<?xml version="1.0" encoding="utf-8"?>
<!-- Generator: Adobe Illustrator 22.0.0, SVG Export Plug-In . SVG Version: 6.00 Build 0)  -->
<svg version="1.1" id="Layer_1" xmlns="http://www.w3.org/2000/svg" xmlns:xlink="http://www.w3.org/1999/xlink" x="0px" y="0px"
	 viewBox="0 0 64 64" style="enable-background:new 0 0 64 64;" xml:space="preserve">
<style type="text/css">
 
</style>
<path fill="currentColor" class="st0" d="M46.9,60.2H20.4L11.7,64h35.2c1,0,1.9-0.8,1.9-1.9C48.7,61.1,47.9,60.2,46.9,60.2z M42.5,8.2l-5.3,5.3
	l13.3,13.3l5.3-5.3L42.5,8.2z M34.5,16.2L10.3,40.6l13.3,13.3l24.2-24.5L34.5,16.2z M62.4,6.9L57,1.6c-2.1-2.1-5.8-2.1-8,0l-4,4
	l13.3,13.3l4-4C64.6,12.6,64.5,9.1,62.4,6.9L62.4,6.9z M8.1,43.7L0.2,61.4c-0.3,0.7-0.2,1.5,0.4,2.1c0.5,0.5,1.4,0.7,2.1,0.4
	l17.9-7.7L8.1,43.7z"/>
</svg>
