<!DOCTYPE svg PUBLIC "-//W3C//DTD SVG 20010904//EN" "http://www.w3.org/TR/2001/REC-SVG-20010904/DTD/svg10.dtd">
<svg version="1.0" xmlns="http://www.w3.org/2000/svg" width="322px" height="301px" viewBox="0 0 3220 3010" preserveAspectRatio="xMidYMid meet">
<g id="layer101" fill="currentColor" stroke="none">
 <path d="M2620 2970 l0 -40 300 0 300 0 0 40 0 40 -300 0 -300 0 0 -40z"/>
 <path d="M1530 2600 c0 -69 -17 -157 -33 -167 -6 -4 -8 0 -4 10 5 15 -1 17 -46 17 -81 0 -233 -28 -331 -61 -314 -105 -567 -323 -715 -615 -305 -606 -61 -1347 545 -1653 606 -305 1347 -61 1653 545 80 160 131 361 131 522 l0 72 -61 0 c-48 0 -60 -3 -56 -14 11 -27 -13 -219 -38 -313 -119 -448 -518 -783 -980 -822 -610 -51 -1153 405 -1204 1013 -39 466 217 907 644 1107 105 49 248 88 350 95 l80 6 25 -48 c18 -34 33 -50 53 -55 44 -12 57 -2 57 42 0 28 5 41 19 49 28 14 47 4 66 -36 9 -19 20 -34 25 -34 16 0 80 62 96 91 17 33 18 71 3 86 -6 6 -28 9 -49 6 -56 -8 -70 18 -70 129 l0 88 -80 0 -80 0 0 -60z"/>
 <path d="M2740 2572 c0 -111 -14 -137 -70 -129 -21 3 -43 0 -49 -6 -15 -15 -14 -53 3 -86 16 -30 80 -91 97 -91 5 0 17 16 26 35 19 39 37 49 64 35 14 -8 19 -21 19 -49 0 -42 15 -52 60 -41 28 7 66 66 76 118 5 27 2 38 -20 61 -29 30 -46 100 -46 187 l0 54 -80 0 -80 0 0 -88z"/>
 <path d="M2129 2436 c-48 -13 -89 -38 -128 -80 -33 -36 -71 -41 -118 -17 l-39 19 -25 -39 c-13 -22 -38 -49 -55 -61 -20 -14 -34 -35 -42 -62 -20 -77 -79 -126 -151 -126 -17 0 -42 -10 -58 -24 -25 -22 -28 -30 -28 -88 1 -90 47 -180 140 -274 87 -88 163 -127 243 -128 71 0 114 21 150 76 48 71 103 126 148 148 38 19 48 20 80 10 41 -14 124 -92 166 -157 36 -55 79 -77 150 -77 82 1 156 40 244 129 86 87 133 175 141 263 5 58 4 62 -25 91 -21 21 -40 31 -62 31 -72 0 -129 46 -152 123 -7 24 -28 55 -50 75 -21 19 -46 47 -55 62 l-16 28 -39 -20 c-49 -26 -74 -19 -135 34 -53 46 -91 64 -143 70 -35 3 -35 3 -38 -42 l-3 -45 65 -29 c78 -33 146 -91 183 -154 21 -36 28 -61 31 -126 3 -73 1 -85 -20 -116 -19 -28 -31 -36 -61 -38 -43 -4 -94 23 -129 68 -28 36 -73 59 -99 53 -11 -3 -40 -27 -66 -54 -52 -55 -86 -72 -134 -67 -72 7 -102 126 -62 244 24 70 108 151 196 189 l68 30 -3 44 c-2 25 -7 46 -13 47 -5 1 -31 -3 -56 -10z"/>
 <path d="M2091 2221 c-32 -28 -32 -30 -13 -40 27 -15 32 -14 32 4 0 9 7 27 16 40 22 34 5 31 -35 -4z"/>
 <path d="M1210 2206 c-310 -94 -561 -331 -670 -633 -25 -71 -21 -108 13 -124 41 -19 72 3 91 63 29 88 104 221 170 298 124 149 327 269 516 305 62 12 85 49 60 96 -15 26 -83 25 -180 -5z"/>
 <path d="M1225 1986 c-187 -69 -346 -207 -435 -378 -43 -81 -50 -127 -24 -152 21 -21 57 -20 76 2 8 9 27 43 42 74 78 163 213 282 398 349 89 33 98 40 98 80 0 54 -54 63 -155 25z"/>
 <path d="M2145 1693 c-54 -28 -65 -43 -65 -91 0 -37 -7 -53 -40 -95 -63 -78 -39 -93 55 -34 44 28 58 32 120 32 62 0 76 -4 120 -32 93 -58 117 -45 58 32 -31 39 -39 59 -43 104 -5 55 -6 57 -50 79 -52 26 -112 28 -155 5z"/>
 <path d="M1400 1595 c-195 -54 -315 -260 -266 -455 64 -254 361 -369 576 -222 216 147 224 456 15 614 -90 68 -217 93 -325 63z m200 -126 c210 -95 212 -377 5 -475 -166 -79 -364 50 -365 236 0 140 120 260 260 260 34 0 72 -8 100 -21z"/>
 <path d="M1412 1370 c-48 -30 -72 -75 -72 -140 0 -100 60 -160 160 -160 100 0 160 60 160 160 0 65 -24 110 -72 140 -45 27 -131 27 -176 0z m120 -107 c22 -20 23 -41 1 -65 -20 -22 -41 -23 -65 -1 -22 20 -23 41 -1 65 20 22 41 23 65 1z"/>
 <path d="M2145 1473 c-54 -28 -65 -43 -65 -89 0 -34 -8 -53 -40 -95 -60 -80 -39 -96 51 -38 50 32 164 56 123 26 -17 -13 -22 -31 -27 -89 -31 -352 -293 -614 -645 -645 -58 -5 -76 -10 -87 -27 -19 -27 -19 -51 1 -70 38 -38 248 -9 381 54 276 129 474 429 461 701 l-3 78 30 -20 c16 -11 40 -25 53 -31 26 -13 28 -48 11 -144 -37 -212 -160 -423 -322 -552 -154 -122 -365 -202 -534 -202 -58 0 -93 -23 -93 -60 0 -29 35 -60 68 -60 56 0 199 21 267 40 330 89 612 370 704 702 19 69 41 212 41 268 0 52 -40 76 -97 57 -32 -11 -67 43 -73 113 -5 53 -6 56 -50 78 -52 26 -112 28 -155 5z"/>
 <path d="M2594 1444 c3 -9 6 -27 6 -40 0 -22 4 -24 42 -24 l42 0 -42 40 c-44 43 -58 50 -48 24z"/>
 </g>
<g id="layer102" fill="currentColor" stroke="none">
 <path d="M2620 2970 l0 -40 300 0 300 0 0 40 0 40 -300 0 -300 0 0 -40z"/>
 <path d="M1530 2598 c-1 -84 -16 -145 -45 -180 -19 -22 -23 -36 -18 -61 10 -55 45 -110 76 -118 44 -12 57 -2 57 42 0 28 5 41 19 49 28 14 47 4 66 -36 9 -19 20 -34 25 -34 16 0 80 62 96 91 17 33 18 71 3 86 -6 6 -28 9 -49 6 -56 -8 -70 18 -70 129 l0 88 -80 0 -80 0 0 -62z"/>
 <path d="M2740 2572 c0 -111 -14 -137 -70 -129 -21 3 -43 0 -49 -6 -15 -15 -14 -53 3 -86 16 -30 80 -91 97 -91 5 0 17 16 26 35 19 39 37 49 64 35 14 -8 19 -21 19 -49 0 -42 15 -52 60 -41 28 7 66 66 76 118 5 27 2 38 -20 61 -29 30 -46 100 -46 187 l0 54 -80 0 -80 0 0 -88z"/>
 <path d="M2129 2436 c-48 -13 -89 -38 -128 -80 -33 -36 -71 -41 -118 -17 l-39 19 -25 -39 c-13 -22 -38 -49 -55 -61 -20 -14 -34 -35 -42 -62 -20 -77 -79 -126 -151 -126 -17 0 -42 -10 -58 -24 -25 -22 -28 -30 -28 -88 1 -90 47 -180 140 -274 87 -88 163 -127 243 -128 71 0 114 21 150 76 48 71 103 126 148 148 38 19 48 20 80 10 41 -14 124 -92 166 -157 36 -55 79 -77 150 -77 82 1 156 40 244 129 86 87 133 175 141 263 5 58 4 62 -25 91 -21 21 -40 31 -62 31 -72 0 -129 46 -152 123 -7 24 -28 55 -50 75 -21 19 -46 47 -55 62 l-16 28 -39 -20 c-49 -26 -74 -19 -135 34 -53 46 -91 64 -143 70 -35 3 -35 3 -38 -42 l-3 -45 65 -29 c78 -33 146 -91 183 -154 21 -36 28 -61 31 -126 3 -73 1 -85 -20 -116 -19 -28 -31 -36 -61 -38 -43 -4 -94 23 -129 68 -28 36 -73 59 -99 53 -11 -3 -40 -27 -66 -54 -52 -55 -86 -72 -134 -67 -72 7 -102 126 -62 244 24 70 108 151 196 189 l68 30 -3 44 c-2 25 -7 46 -13 47 -5 1 -31 -3 -56 -10z"/>
 <path d="M2145 1693 c-54 -28 -65 -43 -65 -91 0 -37 -7 -53 -40 -95 -63 -78 -39 -93 55 -34 44 28 58 32 120 32 62 0 76 -4 120 -32 93 -58 117 -45 58 32 -31 39 -39 59 -43 104 -5 55 -6 57 -50 79 -52 26 -112 28 -155 5z"/>
 <path d="M2145 1473 c-54 -28 -65 -43 -65 -89 0 -34 -8 -53 -40 -95 -61 -82 -39 -96 55 -36 44 28 58 32 120 32 62 0 76 -4 121 -32 86 -56 108 -40 52 37 -25 34 -34 58 -38 100 -5 53 -6 56 -50 78 -52 26 -112 28 -155 5z"/>
 </g>
<g id="layer103" fill="#ffffff" stroke="none">
 <path d="M2620 2970 l0 -40 300 0 300 0 0 40 0 40 -300 0 -300 0 0 -40z"/>
 <path d="M2743 2540 c0 -25 2 -35 4 -22 2 12 2 32 0 45 -2 12 -4 2 -4 -23z"/>
 <path d="M1682 2540 c0 -19 2 -27 5 -17 2 9 2 25 0 35 -3 9 -5 1 -5 -18z"/>
 <path d="M2177 2443 c6 -5 14 -29 16 -53 l4 -45 -1 49 c-1 35 -5 51 -16 53 -10 3 -11 2 -3 -4z"/>
 <path d="M2234 2436 c-3 -8 -4 -31 -2 -52 3 -36 4 -35 8 14 5 53 4 63 -6 38z"/>
 <path d="M2610 2307 c0 -2 15 -16 33 -33 l32 -29 -29 33 c-28 30 -36 37 -36 29z"/>
 <path d="M1912 2030 c0 -19 2 -27 5 -17 2 9 2 25 0 35 -3 9 -5 1 -5 -18z"/>
 <path d="M2513 2025 c0 -22 2 -30 4 -17 2 12 2 30 0 40 -3 9 -5 -1 -4 -23z"/>
 <path d="M2327 1670 c6 -8 13 -33 16 -55 l4 -40 1 41 c1 29 -3 46 -15 55 -16 12 -17 12 -6 -1z"/>
 <path d="M2083 1610 c0 -25 2 -35 4 -22 2 12 2 32 0 45 -2 12 -4 2 -4 -23z"/>
 <path d="M2327 1450 c6 -8 13 -33 16 -55 l4 -40 1 41 c1 29 -3 46 -15 55 -16 12 -17 12 -6 -1z"/>
 <path d="M2083 1390 c0 -25 2 -35 4 -22 2 12 2 32 0 45 -2 12 -4 2 -4 -23z"/>
 </g>

</svg>