<?xml version="1.0" encoding="utf-8"?>
<!-- Generator: Adobe Illustrator 22.0.0, SVG Export Plug-In . SVG Version: 6.00 Build 0)  -->
<svg version="1.1" id="Layer_1" xmlns="http://www.w3.org/2000/svg" xmlns:xlink="http://www.w3.org/1999/xlink" x="0px" y="0px"
	 viewBox="0 0 64 64" style="enable-background:new 0 0 64 64;" xml:space="preserve">
<style type="text/css">
	.st0{fill:currentColor;}
</style>
<path class="st0" d="M27.6,4c1.5,0.5,2.1,1.7,2.1,3.2v19.4c0,2-1,3-3,3H7.3c-1.6,0-2.7-0.5-3.2-2.1V6c0.3-1.1,1-1.7,2.1-2.1
	C13.3,4,20.5,4,27.6,4z M25,25V8.8H8.8V25H25z M4,36.4c0.5-1.5,1.6-2.1,3.2-2.1h19.4c1.9,0,3,1,3,3v19.4c0,1.6-0.5,2.7-2.1,3.2H6
	c-1.1-0.3-1.8-1-2.1-2.1C4,50.7,4,43.5,4,36.4z M8.7,55.2h16.2V39H8.7V55.2z"/>
<path class="st0" d="M61,60.3H33v-56h28V60.3z M58.3,57.9V6.6H35.7v51.3H58.3z"/>
</svg>
