<?xml version="1.0" encoding="utf-8"?>
<!-- Generator: Adobe Illustrator 22.0.0, SVG Export Plug-In . SVG Version: 6.00 Build 0)  -->
<svg version="1.1" id="Layer_1" xmlns="http://www.w3.org/2000/svg" xmlns:xlink="http://www.w3.org/1999/xlink" x="0px" y="0px"
	 viewBox="0 0 64 64" style="enable-background:new 0 0 64 64;" xml:space="preserve">
<style type="text/css">
	.st0{fill:currentColor;}
</style>
<path class="st0" d="M4.7,37.2c0.5-1.5,1.7-2.1,3.2-2.1l19.4,0c2,0,3,1,3,3l0,19.4c0,1.6-0.5,2.7-2.1,3.2l-21.5,0
	c-1.1-0.3-1.7-1-2.1-2.1C4.7,51.5,4.7,44.3,4.7,37.2z M25.7,39.8l-16.2,0l0,16.2l16.2,0L25.7,39.8z M37.1,60.8
	c-1.5-0.5-2.1-1.6-2.1-3.2l0-19.4c0-1.9,1-3,3-3l19.4,0c1.6,0,2.7,0.5,3.2,2.1l0,21.5c-0.3,1.1-1,1.8-2.1,2.1
	C51.4,60.8,44.2,60.8,37.1,60.8z M55.9,56.1l0-16.2l-16.2,0l0,16.2L55.9,56.1z"/>
<path class="st0" d="M61,3.8l0,28l-56,0l0-28L61,3.8z M58.6,6.4l-51.3,0l0,22.7l51.3,0L58.6,6.4z"/>
</svg>
