<?xml version="1.0" encoding="utf-8"?>
<!-- Generator: Adobe Illustrator 22.0.0, SVG Export Plug-In . SVG Version: 6.00 Build 0)  -->
<svg version="1.1" id="Layer_1" xmlns="http://www.w3.org/2000/svg" xmlns:xlink="http://www.w3.org/1999/xlink" x="0px" y="0px"
	 viewBox="0 0 64 64" style="enable-background:new 0 0 64 64;" xml:space="preserve">
<style type="text/css">
	.st0{fill:currentColor;}
</style>
<path class="st0" d="M4.1,36.4c0.5-1.5,1.7-2.1,3.2-2.1l19.4,0c2,0,3,1,3,3l0,19.4c0,1.6-0.5,2.7-2.1,3.2l-21.5,0
	c-1.1-0.3-1.7-1-2.1-2.1C4.1,50.7,4.1,43.5,4.1,36.4z M25.1,39L8.9,39l0,16.2l16.2,0L25.1,39z M36.5,60c-1.5-0.5-2.1-1.6-2.1-3.2
	l0-19.4c0-1.9,1-3,3-3l19.4,0c1.6,0,2.7,0.5,3.2,2.1L60,58c-0.3,1.1-1,1.8-2.1,2.1C50.8,60,43.6,60,36.5,60z M55.3,55.3l0-16.2
	l-16.2,0l0,16.2L55.3,55.3z M13.8,4c1.5,0.5,2.1,1.7,2.1,3.2l0,19.4c0,2-1,3-3,3l-5.4,0c-1.6,0.1-2.7-0.5-3.2-2.1L4.3,6
	c0.3-1.1,1-1.7,2.1-2.1C8.7,4,11.2,4,13.8,4z M13.4,27.3l0-20.9l-6.9,0l0,20.9L13.4,27.3z M27.7,4c1.5,0.5,2.1,1.7,2.1,3.2l0,19.4
	c0,2-1,3-3,3l-5.8,0c-1.7,0-2.8-1.1-2.8-2.8l0-19.6c0-1.8,0.4-2.4,2.1-3.2C20.3,4,27.7,4,27.7,4z M20.5,27.3l6.9,0l0-20.9l-6.9,0
	L20.5,27.3z M44,4c1,0.3,1.8,0.9,2,2c0.1,0.3,0.1,0.6,0.1,0.8l0,20.1c0,1.7-1.1,2.8-2.8,2.8l-6.2,0c-1.6,0-2.7-1.1-2.7-2.7l0-20.1
	c0-1.4,0.8-2.3,2.1-2.8C39,4,41.5,4,44,4z M43.7,27.3l0-20.9l-6.9,0l0,20.9L43.7,27.3z M60.1,27.6c-0.5,1.5-1.6,2.1-3.2,2.1
	c-1.9-0.1-3.7,0-5.6,0c-1.8,0-2.8-1.1-2.8-2.9l0-19.5c0-1.6,0.5-2.7,2.1-3.2l7.5,0c1.1,0.3,1.7,1,2.1,2.1
	C60.1,13.3,60.1,20.5,60.1,27.6z M50.8,6.4l0,20.9l6.9,0l0-20.9C57.7,6.4,50.8,6.4,50.8,6.4z"/>
</svg>
