<?xml version="1.0" encoding="utf-8"?>
<!-- Generator: Adobe Illustrator 22.0.0, SVG Export Plug-In . SVG Version: 6.00 Build 0)  -->
<svg version="1.1" id="Layer_1" xmlns="http://www.w3.org/2000/svg" xmlns:xlink="http://www.w3.org/1999/xlink" x="0px" y="0px"
	 viewBox="0 0 64 64" style="enable-background:new 0 0 64 64;" xml:space="preserve">
<style type="text/css">
	.st0{fill:currentColor;}
</style>
<path class="st0" d="M60.1,27.7c-0.5,1.5-1.7,2.1-3.2,2.1l-19.4,0c-2,0-3-1-3-3l0-19.4c0-1.6,0.5-2.7,2.1-3.2l21.5,0
	c1.1,0.3,1.7,1,2.1,2.1C60.1,13.4,60.1,20.6,60.1,27.7z M39.1,25.1l16.2,0l0-16.2l-16.2,0L39.1,25.1z M27.7,4.1
	c1.5,0.5,2.1,1.6,2.1,3.2l0,19.4c0,1.9-1,3-3,3l-19.4,0c-1.6,0-2.7-0.5-3.2-2.1l0-21.5C4.5,5,5.2,4.3,6.3,4
	C13.4,4.1,20.6,4.1,27.7,4.1z M8.9,8.8l0,16.2l16.2,0l0-16.2L8.9,8.8z M50.4,60.1c-1.5-0.5-2.1-1.7-2.1-3.2l0-19.4c0-2,1-3,3-3
	l5.4,0c1.6-0.1,2.7,0.5,3.2,2.1l0,21.5c-0.3,1.1-1,1.7-2.1,2.1C55.5,60.1,53,60.1,50.4,60.1z M50.8,36.8l0,20.9l6.9,0l0-20.9
	L50.8,36.8z M36.5,60.1c-1.5-0.5-2.1-1.7-2.1-3.2l0-19.4c0-2,1-3,3-3l5.8,0c1.7,0,2.8,1.1,2.8,2.8l0,19.6c0,1.8-0.4,2.4-2.1,3.2
	C43.9,60.1,36.5,60.1,36.5,60.1z M43.7,36.8l-6.9,0l0,20.9l6.9,0L43.7,36.8z M20.2,60.1c-1-0.3-1.8-0.9-2-2
	c-0.1-0.3-0.1-0.6-0.1-0.8l0-20.1c0-1.7,1.1-2.8,2.8-2.8l6.2,0c1.6,0,2.7,1.1,2.7,2.7l0,20.1c0,1.4-0.8,2.3-2.1,2.8
	C25.2,60.1,22.7,60.1,20.2,60.1z M20.5,36.8l0,20.9l6.9,0l0-20.9L20.5,36.8z M4.1,36.5c0.5-1.5,1.6-2.1,3.2-2.1c1.9,0.1,3.7,0,5.6,0
	c1.8,0,2.8,1.1,2.8,2.9l0,19.5c0,1.6-0.5,2.7-2.1,3.2l-7.5,0C5,59.7,4.4,59,4,57.9C4.1,50.8,4.1,43.6,4.1,36.5z M13.4,57.7l0-20.9
	l-6.9,0l0,20.9C6.5,57.7,13.4,57.7,13.4,57.7z"/>
</svg>
