<svg width="64" height="64" xmlns="http://www.w3.org/2000/svg" viewBox="0 0 64 64">
 <style type="text/css">.st0{fill:currentColor;}</style>
 <g>

  <rect fill="none" id="canvas_background" height="402" width="582" y="-1" x="-1"/>
 </g>
 <g>

  <g transform="rotate(90 32.45000076293945,32.0999984741211) " id="svg_3">
   <path id="svg_1" d="m27.6,4c1.5,0.5 2.1,1.7 2.1,3.2l0,19.4c0,2 -1,3 -3,3l-19.4,0c-1.6,0 -2.7,-0.5 -3.2,-2.1l0,-21.5c0.3,-1.1 1,-1.7 2.1,-2.1c7.1,0.1 14.3,0.1 21.4,0.1zm-2.6,21l0,-16.2l-16.2,0l0,16.2l16.2,0zm-21,11.4c0.5,-1.5 1.6,-2.1 3.2,-2.1l19.4,0c1.9,0 3,1 3,3l0,19.4c0,1.6 -0.5,2.7 -2.1,3.2l-21.5,0c-1.1,-0.3 -1.8,-1 -2.1,-2.1c0.1,-7.1 0.1,-14.3 0.1,-21.4zm4.7,18.8l16.2,0l0,-16.2l-16.2,0l0,16.2z" class="st0"/>
   <path id="svg_2" d="m61,60.3l-28,0l0,-56l28,0l0,56zm-2.7,-2.4l0,-51.3l-22.6,0l0,51.3l22.6,0z" class="st0"/>
  </g>
 </g>
</svg>