<?xml version="1.0" encoding="utf-8"?>
<!-- Generator: Adobe Illustrator 22.0.0, SVG Export Plug-In . SVG Version: 6.00 Build 0)  -->
<svg version="1.1" id="Layer_1" xmlns="http://www.w3.org/2000/svg" xmlns:xlink="http://www.w3.org/1999/xlink" x="0px" y="0px"
	 viewBox="0 0 64 64" style="enable-background:new 0 0 64 64;" xml:space="preserve">
<style type="text/css">
	.st0{fill:currentColor;}
</style>
<path class="st0" d="M50.4,60c-1.5-0.5-2.1-1.7-2.1-3.2l0-19.4c0-2,1-3,3-3l5.4,0c1.6-0.1,2.7,0.5,3.2,2.1l0,21.5
	c-0.3,1.1-1,1.7-2.1,2.1C55.5,60,53,60,50.4,60z M50.8,36.7l0,20.9l6.9,0l0-20.9L50.8,36.7z M36.5,60c-1.5-0.5-2.1-1.7-2.1-3.2
	l0-19.4c0-2,1-3,3-3l5.8,0c1.7,0,2.8,1.1,2.8,2.8l0,19.6c0,1.8-0.4,2.4-2.1,3.2C43.9,60,36.5,60,36.5,60z M43.7,36.7l-6.9,0l0,20.9
	l6.9,0L43.7,36.7z M20.2,60c-1-0.3-1.8-0.9-2-2c-0.1-0.3-0.1-0.6-0.1-0.8l0-20.1c0-1.7,1.1-2.8,2.8-2.8l6.2,0c1.6,0,2.7,1.1,2.7,2.7
	l0,20.1c0,1.4-0.8,2.3-2.1,2.8C25.2,60,22.7,60,20.2,60z M20.5,36.7l0,20.9l6.9,0l0-20.9L20.5,36.7z M4.1,36.4
	c0.5-1.5,1.6-2.1,3.2-2.1c1.9,0.1,3.7,0,5.6,0c1.8,0,2.8,1.1,2.8,2.9l0,19.5c0,1.6-0.5,2.7-2.1,3.2l-7.5,0c-1.1-0.3-1.7-1-2.1-2.1
	C4.1,50.7,4.1,43.5,4.1,36.4z M13.4,57.6l0-20.9l-6.9,0l0,20.9C6.5,57.6,13.4,57.6,13.4,57.6z M43.7,4C45.3,4.5,46,5.6,46,7.2
	l0,19.4c0,1.9-1.1,3-3.3,3l-21.1,0c-1.7,0-2.9-0.5-3.5-2.1l0-21.5c0.3-1.1,1.1-1.8,2.3-2.1C28.1,4,35.9,4,43.7,4z M23.2,8.7l0,16.2
	l17.7,0l0-16.2L23.2,8.7z M4.1,6.1C4.6,4.6,5.7,4,7.3,4c1.9,0.1,3.7,0,5.6,0c1.8,0,2.8,1.1,2.8,2.9l0,19.5c0,1.6-0.5,2.7-2.1,3.2
	l-7.5,0c-1.1-0.3-1.7-1-2.1-2.1C4.1,20.4,4.1,13.2,4.1,6.1z M13.4,27.3l0-20.9l-6.9,0l0,20.9C6.5,27.3,13.4,27.3,13.4,27.3z
	 M48.5,6.2c0.5-1.5,1.6-2.1,3.2-2.1c1.9,0.1,3.7,0,5.6,0c1.8,0,2.8,1.1,2.8,2.9l0,19.5c0,1.6-0.5,2.7-2.1,3.2l-7.5,0
	c-1.1-0.3-1.7-1-2.1-2.1C48.5,20.5,48.5,13.3,48.5,6.2z M57.8,27.4l0-20.9l-6.9,0l0,20.9C50.9,27.4,57.8,27.4,57.8,27.4z"/>
</svg>
