<svg xmlns="http://www.w3.org/2000/svg" viewBox="0 0 64 64" fill="currentColor"><path d="M56.6 58.6H7.4c-1-.3-1.7-1-2-2V7.4c.3-1 1-1.7 2-2h49.2c1 .3 1.7 1 2 2v49.2c-.3 1-1 1.7-2 2zM54.1 9.9H9.9v44.3h44.2V9.9z"/><path d="M13.4 21.8v-6.5c0-1 .5-1.5 1.5-1.5H28c1 0 1.5.5 1.5 1.5v13.1c0 1-.5 1.5-1.5 1.5H14.9c-1 0-1.4-.5-1.4-1.4-.1-2.3-.1-4.5-.1-6.7zm2.7-5.3v10.6h10.6V16.5H16.1zm18.5 5.6v-6.6c0-1 .5-1.5 1.5-1.5h13.3c1 0 1.5.5 1.5 1.5v13.3c0 1-.5 1.5-1.5 1.5H36.1c-1 0-1.5-.5-1.5-1.5v-6.7zm2.7-5.4v10.8h10.8V16.7H37.3zM13.4 41.4v-6.5c0-1 .5-1.5 1.5-1.5H28c1 0 1.5.5 1.5 1.5V48c0 1-.5 1.5-1.5 1.5H14.9c-1 0-1.4-.5-1.4-1.4-.1-2.3-.1-4.5-.1-6.7zm2.7-5.3v10.6h10.6V36.1H16.1zm18.5 5.8v-6.6c0-1 .5-1.5 1.5-1.5h13.3c1 0 1.5.5 1.5 1.5v13.3c0 1-.5 1.5-1.5 1.5H36.1c-1 0-1.5-.5-1.5-1.5v-6.7zm2.7-5.4v10.8h10.8V36.5H37.3z"/></svg>