<?xml version="1.0" encoding="utf-8"?>
<!-- Generator: Adobe Illustrator 22.0.0, SVG Export Plug-In . SVG Version: 6.00 Build 0)  -->
<svg version="1.1" id="Layer_1" xmlns="http://www.w3.org/2000/svg" xmlns:xlink="http://www.w3.org/1999/xlink" x="0px" y="0px"
	 viewBox="0 0 64 64" style="enable-background:new 0 0 64 64;" xml:space="preserve">
<style type="text/css">
	.st0{fill:currentColor;}
</style>
<path class="st0" d="M36.5,60.1c-1.5-0.5-2.1-1.7-2.1-3.2l0-19.4c0-2,1-3,3-3l19.4,0c1.6,0,2.7,0.5,3.2,2.1l0,21.5
	c-0.3,1.1-1,1.7-2.1,2.1C50.8,60.1,43.6,60.1,36.5,60.1z M39.1,39.1l0,16.2l16.2,0l0-16.2L39.1,39.1z M60.1,27.7
	c-0.5,1.5-1.6,2.1-3.2,2.1l-19.4,0c-1.9,0-3-1-3-3l0-19.4c0-1.6,0.5-2.7,2.1-3.2l21.5,0c1.1,0.3,1.8,1,2.1,2.1
	C60.1,13.4,60.1,20.6,60.1,27.7z M55.4,8.9l-16.2,0l0,16.2l16.2,0L55.4,8.9z M4.1,50.4c0.5-1.5,1.7-2.1,3.2-2.1l19.4,0c2,0,3,1,3,3
	l0,5.4c0.1,1.6-0.5,2.7-2.1,3.2l-21.5,0c-1.1-0.3-1.7-1-2.1-2.1C4.1,55.5,4.1,53,4.1,50.4z M27.4,50.8l-20.9,0l0,6.9l20.9,0
	L27.4,50.8z M4.1,36.5c0.5-1.5,1.7-2.1,3.2-2.1l19.4,0c2,0,3,1,3,3l0,5.8c0,1.7-1.1,2.8-2.8,2.8L7.3,46c-1.8,0-2.4-0.4-3.2-2.1
	C4.1,43.9,4.1,36.5,4.1,36.5z M27.4,43.7l0-6.9l-20.9,0l0,6.9L27.4,43.7z M4.1,20.2c0.3-1,0.9-1.8,2-2c0.3-0.1,0.6-0.1,0.8-0.1
	l20.1,0c1.7,0,2.8,1.1,2.8,2.8l0,6.2c0,1.6-1.1,2.7-2.7,2.7L7,29.8c-1.4,0-2.3-0.8-2.8-2.1C4.1,25.2,4.1,22.7,4.1,20.2z M27.4,20.5
	l-20.9,0l0,6.9l20.9,0L27.4,20.5z M27.7,4.1c1.5,0.5,2.1,1.6,2.1,3.2c-0.1,1.9,0,3.7,0,5.6c0,1.8-1.1,2.8-2.9,2.8l-19.5,0
	c-1.6,0-2.7-0.5-3.2-2.1l0-7.5C4.5,5,5.2,4.4,6.3,4C13.4,4.1,20.6,4.1,27.7,4.1z M6.5,13.4l20.9,0l0-6.9l-20.9,0
	C6.5,6.5,6.5,13.4,6.5,13.4z"/>
</svg>
