<svg xmlns="http://www.w3.org/2000/svg" viewBox="0 0 64 64" fill="currentColor"><path d="M27.6 4c1.5.5 2.1 1.7 2.1 3.2v19.4c0 2-1 3-3 3H7.3c-1.6 0-2.7-.5-3.2-2.1V6c.3-1.1 1-1.7 2.1-2.1 7.1.1 14.3.1 21.4.1zM25 25V8.8H8.8V25H25zM4 36.4c.5-1.5 1.6-2.1 3.2-2.1h19.4c1.9 0 3 1 3 3v19.4c0 1.6-.5 2.7-2.1 3.2H6c-1.1-.3-1.8-1-2.1-2.1.1-7.1.1-14.3.1-21.4zm4.7 18.8h16.2V39H8.7v16.2zM60 13.7c-.5 1.5-1.7 2.1-3.2 2.1H37.4c-2 0-3-1-3-3V7.4c-.1-1.6.5-2.7 2.1-3.2H58c1.1.3 1.7 1 2.1 2.1-.1 2.3-.1 4.8-.1 7.4zm-23.3-.4h20.9V6.4H36.7v6.9zM60 27.6c-.5 1.5-1.7 2.1-3.2 2.1H37.4c-2 0-3-1-3-3v-5.8c0-1.7 1.1-2.8 2.8-2.8h19.6c1.8 0 2.4.4 3.2 2.1v7.4zm-23.3-7.2v6.9h20.9v-6.9H36.7zM60 43.9c-.3 1-.9 1.8-2 2-.3.1-.6.1-.8.1H37.1c-1.7 0-2.8-1.1-2.8-2.8V37c0-1.6 1.1-2.7 2.7-2.7h20.1c1.4 0 2.3.8 2.8 2.1.1 2.5.1 5 .1 7.5zm-23.3-.3h20.9v-6.9H36.7v6.9zM36.4 60c-1.5-.5-2.1-1.6-2.1-3.2.1-1.9 0-3.7 0-5.6 0-1.8 1.1-2.8 2.9-2.8h19.5c1.6 0 2.7.5 3.2 2.1V58c-.3 1.1-1 1.7-2.1 2.1-7.1-.1-14.3-.1-21.4-.1zm21.2-9.3H36.7v6.9h20.9v-6.9z"/></svg>