<svg xmlns="http://www.w3.org/2000/svg" viewBox="0 0 64 64" fill="currentColor"><path class="st0" d="M54.1 27.7v26.1H9.9V9.5h26.7L41.1 5H7.4c-1 .3-1.7 1-2 2v49.2c.3 1 1 1.7 2 2h49.2c1-.2 1.8-1 2-2v-33l-4.5 4.5z"/><path class="st0" d="M61.6 2.7c.2.4.2.9.1 1.4-.7 4.7-1.5 9.3-2.3 14 0 .3-.1.5-.2.8-.3.6-1.1.9-1.7.6-.1-.1-.3-.2-.4-.3L53.8 16l-.7-.7c-.2.2-.5.4-.7.6L33.6 34.7 28.3 40c-.6.7-1.5 1.2-2.5 1.2-1.2.1-2.3-.6-2.8-1.6s-.5-2.2.2-3.2c.2-.4.5-.7.9-1l23.6-23.6.9-.9-.6-.6L44.8 7c-.4-.3-.6-.8-.5-1.3.2-.6.7-1 1.3-1C50.4 4 55.2 3.1 60 2.4c.4 0 .8 0 1.1.1.2 0 .4.1.5.2z"/></svg>