<svg xmlns="http://www.w3.org/2000/svg" viewBox="0 0 64 64" fill="currentColor"><path d="M5.9 53c.6-1.4 1.6-2 3.2-1.9h1.6c1.6-3.6 4.2-5.7 8.2-5.7 4 0 6.6 2.1 8.2 5.7h27.5c1.5 0 2.6.5 3.2 2v1.4c-.6 1.5-1.8 1.9-3.3 1.9H27.3c-1.4 3.7-3.8 6.1-7.8 6.3-4.5.2-7.4-2.2-9-6.3-1.8 0-3.7.3-4.5-1.9-.1-.5-.1-1-.1-1.5zm51.8-42.7c-.6 1.5-1.7 2-3.2 2H27.2c-1.5 4.1-4.4 6.4-8.9 6.3-3.7-.1-5.9-2-7.9-6.3H9c-1.5.1-2.6-.5-3.2-1.9V9C6.4 7.6 7.5 7 9 7.1h1.5c1.6-3.6 4.3-5.7 8.2-5.7 3.9 0 6.6 2.1 8.2 5.7h27.4c1.5 0 2.7.5 3.3 1.9.1.4.1.9.1 1.3zM5.9 30.6c.5-1.5 1.7-2 3.2-2h27.4c2.8-7.5 13.5-7.7 16.5 0h1.6c1.5-.1 2.6.6 3.1 2v1.3c-.3.9-.9 1.6-1.8 1.8-.9.2-1.8.1-2.7.2-1.5 4.1-4.4 6.4-9 6.3-1.2 0-2.3-.4-3.4-.9-1.1-.6-2.1-1.3-2.8-2.3-.7-1-1.2-2-1.9-3.1H8.9c-1.5 0-2.5-.6-3.1-2 .1-.4.1-.9.1-1.3z"/></svg>