<svg xmlns="http://www.w3.org/2000/svg" viewBox="0 0 64 64" fill="currentColor"><path d="M30.1 31.4v22c0 2-.8 2.8-2.8 2.8H5.6c-1.4 0-2.3-.6-2.5-1.9-.1-.6.1-1.2.4-1.7C7 45.4 10.6 38.2 14.3 31c3.8-7.6 7.6-15.2 11.5-22.8.7-1.4 1.6-1.9 2.9-1.5 1 .3 1.5 1.1 1.5 2.4v7c-.1 5.1-.1 10.2-.1 15.3zm-4.5 20.3V18.5h-.1C20 29.5 14.4 40.6 8.8 51.7h16.8zm8.3-19.8V9.6c0-1.3.5-2.1 1.5-2.4 1.2-.4 2.2.1 2.9 1.5 3.8 7.6 7.6 15.2 11.5 22.8l10.8 21.6c.3.5.4 1.2.4 1.7-.2 1.2-1.1 1.9-2.5 1.9H36.8c-2 0-2.8-.8-2.8-2.8-.1-7.3-.1-14.6-.1-22z"/></svg>