<svg xmlns="http://www.w3.org/2000/svg" viewBox="0 0 64 64" fill="currentColor"><path d="M32.3 29.8h-22c-2 0-2.8-.8-2.8-2.8V5.3c0-1.4.6-2.3 1.9-2.5.6-.1 1.2.1 1.7.4L32.7 14c7.6 3.8 15.2 7.6 22.8 11.5 1.4.7 1.9 1.6 1.5 2.9-.3 1-1.1 1.5-2.4 1.5h-7c-5.1-.1-10.2-.1-15.3-.1zM12 25.3h33.2v-.1C34.1 19.6 23.1 14.1 12 8.5v16.8zm19.7 8.2H54c1.3 0 2.1.5 2.4 1.5.4 1.2-.1 2.2-1.5 2.9-7.6 3.8-15.2 7.6-22.8 11.5L10.5 60.2c-.5.3-1.2.4-1.7.4-1.2-.2-1.9-1.1-1.9-2.5V36.4c0-2 .8-2.8 2.8-2.8 7.3-.1 14.7-.1 22-.1z"/></svg>