<?xml version="1.0" encoding="utf-8"?>
<!-- Generator: Adobe Illustrator 22.0.0, SVG Export Plug-In . SVG Version: 6.00 Build 0)  -->
<svg version="1.1" id="Capa_1" xmlns="http://www.w3.org/2000/svg" xmlns:xlink="http://www.w3.org/1999/xlink" x="0px" y="0px"
	 viewBox="0 0 424.9 485.9" style="enable-background:new 0 0 424.9 485.9;" xml:space="preserve">
<style type="text/css">
	.st0{fill:#C0C1C0;}
	.st1{fill:#F8F9F9;}
	.st2{fill:#F9F9F9;}
	.st3{fill:currentColor!important;}
</style>
<g id="layer101">
</g>
<g id="layer104">
	<path class="st0" d="M159,449.9c-0.8-0.2-4.9-0.8-9-1.5c-12.4-1.9-23.6-5.8-38-13.1c-12.3-6.3-14.7-8-24.8-17.5
		c-12.4-11.7-19.3-20.9-32.1-43.1c-18.2-31.5-23.6-48.4-29.2-90.6c-1.3-10-0.6-61.9,1-68.9c0.5-2.4,1.5-7,2.1-10.3
		c0.7-3.3,2.3-10.6,3.6-16.2C33.9,183,35,177,35,175.3c0-3.2,0-3.2-2.1-1.3c-2.2,1.9-2.2,1.9-1.4-0.6c1.2-4.1,2.3-5.5,4.2-5.5
		c3,0,7.1-11.8,4.6-13.4c-1.5-0.8,0.9-7.7,2.5-7.3c1.3,0.2,2.3-1.9,3.6-7.1c0.4-1.9,0.3-2.6-0.4-2.2c-1.5,0.9-1.3,0.1,0.9-3.7
		c1-1.8,2.2-4.9,2.6-6.8c0.4-1.9,1.3-4.5,2.1-5.7s1.4-2.9,1.4-3.8c0-2.3,3.4-8.7,10.5-19.5c6.9-10.6,24.4-28.8,33.6-35
		c5-3.3,23.5-12.7,28.4-14.4c1.5-0.5,1.6-0.9,0.6-1.5c-1-0.7-1-1-0.1-1.6c0.7-0.4,1.6-0.2,2,0.5c0.9,1.5,13.4,0.9,20.5-0.9
		c7.4-2,11-3.4,9.7-3.9c-0.7-0.2-1.2-0.7-1.2-1.2c0-1.3,8-2.1,15.6-1.4c5.8,0.5,7.2,1,6.4,1.9c-1.2,1.5,0.7,2.5,4.6,2.5
		c3.2,0,3-1.6-0.3-2.8c-2.5-1-2.3-1,2.2-1.1c7.4-0.1,20.8,2.3,32,5.8c9.4,2.8,15.9,6,12.6,6.1c-2.7,0,1,3,11.6,9.2
		c8.3,4.9,12.6,8.4,21.3,17.2c11.9,12.1,18.7,20.7,22.5,28.9c1.4,2.8,3.4,6.8,4.5,8.7c3,5.4,8.2,23.1,7.1,24.4s3.1,23.8,10.4,56.1
		c1.3,6.1,2.7,13.3,3,16c1.2,10.5,0.9,76-0.3,87c-1.6,13.5-6.5,37.8-9.3,45.9c-3.6,10.2-22.8,47.6-28.8,56
		c-11.3,15.9-25.7,28-46.1,38.9c-15.2,8.1-28.2,10.8-50.9,10.6C167.1,450.2,159.8,450,159,449.9z M163.5,424.6
		c3.3-0.4,6.9-1.4,8-2.1c1.7-1.1,2.9-1,8,0.9c3.3,1.2,7.8,2.4,10,2.6c6.7,0.8,37.1-9,44.7-14.3c4.2-2.8,14.9-14.6,20.8-22.7
		c1.9-2.7,5.1-6.7,7.1-9c2-2.2,4.7-6.6,6.1-9.6s5.2-10,8.5-15.5s7.7-13.8,9.8-18.5c3.7-8,3.9-9.1,4-18.5c0.1-8.9,0.4-10.7,2.8-15.3
		c3-5.8,3.5-12.1,1.7-24c-0.5-3.7-1.1-14.3-1.3-23.7c-0.3-12-0.9-18.6-2.1-22.5c-2.3-7.8-2.6-9.9-3.1-24.5
		c-0.4-15.3-1-19.5-3.7-29.5c-2-7.1-3.1-14.8-4.1-28.6c-0.3-3.4-1-7.1-1.6-8.2s-1.1-3.1-1.1-4.4c0-3.1-3.9-11.3-8.4-17.6
		c-2.1-2.8-5.9-10-8.4-15.9c-2.6-5.9-5.4-11.8-6.2-13.1c-2.4-3.6-14.6-10.3-22.4-12.2c-3.9-1-8.4-2.3-9.9-2.9
		c-4.9-1.9-14-0.9-13.7,1.4c0.1,0.6-0.9,1.2-2.2,1.5c-1.9,0.5-2.2,1.1-2,3.9c0.3,2.9,0.1,3.3-1.5,2.6c-1-0.4-3.5-0.9-5.5-1.2
		c-2.3-0.3-3.8-1.1-3.8-1.9c0-1.7-1.2-1.8-2.7-0.3c-1.6,1.6-4.3,0.3-4.3-2.1c0-1.1-0.7-2-1.5-2c-0.9,0-1.5-0.9-1.5-2.5
		c0-2,0.5-2.5,2.4-2.5c2.5,0,5.1-2.2,3.9-3.3c-1.2-1.3-6.1-0.7-10.6,1.2c-3.9,1.7-5.1,1.8-8.3,0.8c-2.7-0.8-3.9-0.8-4.1-0.1
		c-0.8,2.5-3.1,4.7-4.2,4c-0.7-0.5-0.9-2.1-0.5-4.6c0.6-3.6,0.4-4-1.9-4.9c-1.4-0.5-6.3-1.3-11-1.7c-7.6-0.6-8.9-0.4-11.9,1.4
		c-1.8,1.1-5.8,2.4-8.8,2.8c-4.1,0.5-8.5,2.3-17.4,7.3c-12.9,7.2-13.4,7.6-21.8,17.1c-8,9-23.8,35.9-23.8,40.5
		c0,1.4-0.6,3.8-1.4,5.3c-0.7,1.5-2.1,6.3-3,10.7c-2.3,10.5-7.6,28.7-8.9,30.3c-0.7,0.9-0.6,2.5,0.2,5.3c1.7,5.6-0.3,17.8-3.5,22.2
		c-4.4,5.9-5.5,9.8-7.4,26c-2.9,24.2-2.2,41.9,2,54.8c1.1,3,2.2,9.8,2.5,15c1.1,16.5,4.1,27.6,10,36.9c2.3,3.6,5.1,8.1,6.3,10
		c3.1,5,10.2,19.2,10.2,20.4c0.1,0.6,1.4,2.9,3,5.1c1.6,2.2,4.9,6.9,7.3,10.5c3.4,5.1,5.6,7.2,9.8,9.4c4.1,2.2,6.8,4.8,11.3,10.6
		c6.6,8.8,9.9,11,24.6,16.1C143.5,426.5,145.7,426.7,163.5,424.6z M238.6,68.7c-0.4-1.6-1.5-3.9-2.4-5.2c-2.4-3.3-12-8.1-17.3-8.8
		c-2.4-0.3-6.2-1.3-8.4-2.3c-2.2-0.9-7.2-2-11.1-2.4c-6.4-0.6-7.3-0.5-10.6,1.8c-3.5,2.3-3.6,2.4-5.5,0.5c-1-1.1-4.9-2.6-8.7-3.3
		c-5.9-1.3-7.4-1.3-11.9,0.1c-11.9,3.4-14.8,6.4-7.9,8.2c23.9,6.2,20,6.2,27.9,0.6c1.1-0.7,1.9-0.3,3.4,1.7c2.2,3,4.3,3.5,15.9,4.1
		c7.5,0.4,19.3,3.2,26,6.1c1.9,0.8,5.2,1.5,7.4,1.6C239.1,71.4,239.2,71.3,238.6,68.7z"/>
	<path class="st0" d="M166,412.3c0-1.8,0.2-1.9,1.5-0.9c0.8,0.7,1.5,1.6,1.5,2.1s-0.7,0.9-1.5,0.9C166.6,414.4,166,413.5,166,412.3z
		"/>
	<path class="st0" d="M225.5,86.3c0.9-3,3.2-5.5,4.2-4.6c0.9,0.9-2,6-3.7,6.5C225.2,88.5,225,87.9,225.5,86.3z"/>
	<path class="st0" d="M219.5,449.4c0.3-0.5,1.6-1,2.8-1c1.8,0,1.9,0.2,0.7,1C221,450.7,218.7,450.7,219.5,449.4z"/>
	<path class="st0" d="M266.9,421.1c2.5-2.6,4.7-4.5,4.9-4.2c0.5,0.4-4.1,5.1-7.3,7.4C263.4,425.1,264.5,423.7,266.9,421.1z"/>
	<path class="st0" d="M70,414.2c-10.9-9.5-17.4-19.3-33.1-49.4c-6.2-12.1-12.2-29.1-11.7-33.3c0.2-1.8,1.4,0.7,3.7,7.9
		c2.9,9.5,12.3,30.1,18.3,40.5c1.3,2.2,4.1,7.2,6.3,11c5,8.9,11,16.5,18.8,23.7C80.6,422.3,79,422,70,414.2z"/>
	<path class="st0" d="M273,415.2c0-0.7,6.2-9.3,7.7-10.8c0.3-0.3-0.2,0.9-1,2.5C277.9,410.3,273.1,416.3,273,415.2z"/>
	<path class="st0" d="M317.8,256.9c-0.4-2.2-0.7-7.1-0.7-11l0.1-7l1,4.9c0.5,2.7,0.8,7.6,0.6,11
		C318.5,260.7,318.5,260.8,317.8,256.9z"/>
	<path class="st0" d="M20,229c0-1.4,0.5-2.6,1-2.6c0.6,0,1,0.9,1,1.9c0,1.1-0.4,2.3-1,2.6C20.4,231.3,20,230.4,20,229z"/>
	<path class="st0" d="M23.1,205.7c-0.2-2.4,2.3-11.3,3.1-11.3c0.4,0,0.8,0.3,0.8,0.8C26.9,196.6,23.1,206.9,23.1,205.7z"/>
	<path class="st0" d="M27,188.5c0-1.2,0.5-2.1,1-2.1c0.6,0,1,0.6,1,1.4s-0.4,1.8-1,2.1C27.5,190.2,27,189.6,27,188.5z"/>
</g>
<g id="layer105">
	<path class="st1" d="M162.5,449.3c-5.5-0.4-12.5-1.2-15.5-1.7c-14.2-2.7-32.9-10.5-47-19.7c-8.8-5.8-24.4-22-31.8-33
		c-9.8-14.5-23.9-40.2-28.1-51c-8-20.6-14.1-53.6-14.4-77c-0.3-18.3,1-46.7,2.3-49.9c0.5-1.5,1-4,1-5.6c0-1.5,1.1-7,2.3-12.1
		c2.3-8.8,3.8-16.7,5.3-26.6c0.3-2.4,0.9-4.3,1.4-4.3c1,0,4-8.6,4-11.7c0-1.3,0.9-4.2,1.9-6.6c1-2.3,3.1-8.5,4.6-13.7
		c1.4-5.2,3.1-10.8,3.6-12.5c0.6-1.6,1.6-5.1,2.3-7.6c0.7-2.6,2.8-7.1,4.8-10c1.9-3,4.8-7.6,6.4-10.4C71.3,86,98,61.6,106.7,58.3
		c1.5-0.5,6.2-2.6,10.3-4.6c10.9-5.2,10.9-5.2,18.5-5.6c10.7-0.5,25.5-4.8,25.5-7.3c0-2,9.6-1.9,10.4,0.1c0.3,0.8,1.6,1.5,3,1.5
		s3.7,0.5,5.2,1.1c3.1,1.1,10.4,0.3,10.4-1.2c0-0.5-0.7-0.9-1.5-0.9s-1.5-0.5-1.5-1.1s1.1-0.8,2.8-0.5c1.5,0.3,5.6,1,9.2,1.6
		c10.3,1.8,14,2.9,14,4.5c0,0.8,0.8,1.5,1.8,1.5c1.4,0,1.5-0.2,0.2-1s-1.3-1,0.2-1c0.9,0,2.9,0.5,4.5,1.1c2.6,1,2.7,1.2,0.8,1.9
		l-2,0.8l2,0.7c12.2,4.5,29.4,15.9,40.3,26.7c13.7,13.6,19.4,21,25.5,33.3c7,14.1,10,22.9,9.2,27.1c-0.5,3.1,3.6,25.7,10.4,55.8
		c1.1,4.9,2.2,11.2,2.5,14c0.2,2.8,1,7.8,1.6,11.1c1.6,7.7,0.7,77.9-1,87.5c-6.6,36.5-7.4,38.7-22,68c-12,23.9-18.3,32.9-32,45.7
		c-11.2,10.5-30.3,22.1-43,26.2c-7.3,2.4-26.6,5.2-34.3,4.9C174.8,450.2,168,449.8,162.5,449.3z M158,425.7c1.4-0.3,4-0.5,5.9-0.4
		c1.9,0.2,5.1-0.5,7.2-1.4c3.7-1.7,4-1.7,11,0.9c5.2,1.9,8.1,2.5,10.8,2c9.6-1.6,28.5-7.7,38.1-12.2c4.3-2.1,13.5-11.2,21.8-21.7
		c3.4-4.4,7.8-9.9,9.8-12.2c1.9-2.3,4.4-6.4,5.6-9s4-7.9,6.3-11.8c7.2-11.9,14.3-25.8,15.8-31.1c1-3.3,1.3-7.5,1-12.2
		c-0.4-6.5-0.2-7.8,2.6-13.5c3.5-7.1,3.9-13.1,2-24.7c-0.6-3.6-1.1-12.8-1.1-20.5c0.1-13.8-1.3-25.8-4.5-38.1c-1-4.1-1.4-8.8-1.1-14
		c0.5-8.1-0.7-16.9-4.2-30.4c-1-4.1-2.1-12-2.4-17.5c-0.7-13.9-4.8-28.1-10.1-35.1c-4.2-5.5-8-12.7-11.5-21.4
		c-3.8-9.7-6.3-13.5-10-15.4c-1.4-0.7-4.7-2.6-7.3-4.1c-4.9-2.8-14.6-5.9-24.2-7.7c-2.7-0.5-6.4-1.4-8.1-1.9
		c-4.9-1.5-8.2-1.1-9.4,1.1c-1.3,2.4-3.3,1.7-7.6-2.7c-3.9-4-7.5-4.3-14.9-1.2c-4.8,2-5.3,2-8.5,0.5c-1.9-0.9-4.9-2.5-6.5-3.6
		c-1.9-1.2-6.4-2.3-12.2-3c-8.5-1-9.6-1-13.8,0.9c-2.5,1.1-7.1,2.5-10.1,3c-7.8,1.5-29.2,13.3-34.4,19.1c-8,8.9-12,14-14,18
		c-1.3,2.4-4.5,8-7.2,12.2c-2.6,4.3-6,11.3-7.4,15.6c-3.1,9.3-6.4,21.9-6.4,24.2c0,2.1-4.6,17.3-6.5,21.7c-1.1,2.5-1.2,4-0.4,6
		c1.1,3,0.6,11.6-1.1,17.3c-0.5,1.9-2.3,5.3-3.9,7.5c-3.1,4.3-4.6,10.5-5.7,23c-0.3,3.8-1,9.2-1.5,11.9c-2,10.6-0.5,30.9,3.2,43.6
		c1,3.6,2.3,11.7,2.8,18c1.4,16.4,4.3,25.3,12.4,38.3c6.4,10.2,13.6,23.9,13.8,26.2c0,0.5,1,2.4,2.2,4.1c1.2,1.7,4.5,6.5,7.4,10.6
		c4.1,6,6.2,8,10.8,10.4c4.5,2.3,6.6,4.3,10.7,10.3c6.1,8.8,10.1,11.5,24.1,16.5C141.5,426.8,149.1,427.7,158,425.7z M239.5,71.4
		c0.4-0.6-0.4-3.2-1.7-5.8c-1.9-4-3.3-5.2-8.9-8c-3.6-1.9-8.2-3.5-10.2-3.7s-6.2-1.3-9.2-2.4c-7.2-2.7-16.8-2.8-21.1-0.2
		c-2.9,1.8-3.1,1.8-5.2,0.1c-1.2-1-5.2-2.4-9-3c-6-1.1-7.4-1-13.8,0.9c-7.8,2.3-11.4,5-9.1,6.9c1.8,1.5,20.4,6.6,24,6.5
		c1.7,0,4-1.1,5.7-2.8l2.8-2.7l1.7,2.6c2.1,3.2,3.7,3.7,15.9,4.6c9.4,0.7,16.3,2,21.1,4C231.7,72.1,238.3,73.3,239.5,71.4z"/>
	<path class="st1" d="M52.4,392.2c-0.4-0.7-1.4-2.4-2.2-3.8c-1.4-2.4-1.3-2.4,0.3-0.5c2,2.4,3.7,5.5,3.1,5.5
		C53.3,393.4,52.8,392.8,52.4,392.2z"/>
	<path class="st1" d="M34.3,358.7c-0.3-1-0.8-2.2-1-2.8c-0.3-0.5,0.3-0.1,1.1,0.9c1.6,2,2.1,3.6,1.1,3.6
		C35.2,360.4,34.7,359.6,34.3,358.7z"/>
</g>
<g>
	<g id="layer102">
		<path class="st2" d="M249.9,448.6c-1.1-0.4-3.6-0.8-5.5-1c-1.8-0.2-4-0.6-4.9-1c-0.8-0.4-2-0.9-2.7-1.1c-1.6-0.4-4.8,0.7-5.5,1.9
			c-0.3,0.5-1.1,1-1.9,1s-1.3-0.2-1.1-0.5c0.1-0.3,0.8-0.5,1.5-0.5c2.1,0,1.3-1-1.3-1.6c-1.4-0.3-4.8-0.8-7.6-1.1
			c-2.8-0.3-5.9-0.7-6.9-1c-1.1-0.3-2.1-0.4-2.3-0.3c-0.2,0.1-0.4-0.2-0.6-0.6c-0.1-0.4-0.5-0.8-0.8-0.8s-0.9-0.3-1.3-0.7
			c-0.7-0.8-6.5-2.4-8.7-2.4c-0.8,0-2.6-0.8-4-1.8s-3.6-2-4.7-2.2c-1.2-0.2-2.2-0.7-2.4-1.1c-0.2-0.7-0.9-1.1-5-3.4
			c-0.9-0.5-2.1-1.4-2.7-2c-0.5-0.5-2-1.2-3.2-1.4c-1.3-0.2-2.8-1-3.7-1.7c-0.8-0.7-1.7-1.3-2.2-1.3c-0.4,0-1-0.5-1.3-1.1
			c-0.4-0.8-1-1.1-2.5-1.1c-1.7,0-1.9-0.1-1.6-1.1c0.2-0.8,0-1.2-0.9-1.6c-0.7-0.3-1.6-0.4-2.1-0.2s-0.7,0.2-0.4-0.3
			c0.2-0.3-0.1-1-0.7-1.5c-0.5-0.5-1-1.4-1-1.9c0-0.8-0.1-0.8-1-0.4c-1.4,0.8-2.9,0.2-5.1-2.4c-1.1-1.3-2.2-2.3-2.4-2.3
			c-0.3,0-1.4-1.1-6.3-5.9c-0.9-0.8-1.6-1.8-1.6-2.1s-0.3-0.5-0.6-0.5c-0.4,0-1.3-0.8-2.2-1.8c-0.8-1-1.7-1.8-2-1.8
			s-0.5-0.4-0.5-0.8s-0.2-0.8-0.4-0.8c-0.5,0-7.7-7.9-7.7-8.5c0-0.7-2.9-5.3-3.3-5.3c-0.1,0-1-1.3-1.7-2.9c-0.8-1.6-1.6-2.9-1.8-2.9
			s-0.3-0.2-0.3-0.4c0.1-0.7-1.1-3.9-1.5-3.9c-0.2,0-0.3-0.5-0.1-1.2c0.1-0.7,0.1-1-0.3-0.7c-0.4,0.3-0.6-0.1-0.6-0.7
			c0-0.6-0.3-1.5-0.7-1.9c-0.4-0.5-0.7-1.5-0.7-2.4c0-1.4,0.1-1.5,1-1.3c1.2,0.4,1.3-0.4,0.2-1.5c-0.4-0.5-1.2-2.4-1.7-4.3
			c-1-3.5-1.9-4.3-2.8-2.5c-0.4,0.7-0.5,0.7-0.5-0.5c0-1.1,0.2-1.5,1-1.5c1.2,0,1.2-0.4,0.2-2.4c-0.4-0.8-0.7-2-0.7-2.4
			c0-0.5-0.2-1.1-0.5-1.2c-0.3-0.2-0.5-1.1-0.5-2.1s-0.3-2.2-0.7-2.7s-0.7-1.5-0.7-2.1c0-1.8-2.1-6.4-2.7-6.2
			c-0.3,0.2-0.6,0-0.6-0.3s0.3-0.6,0.7-0.6c0.8,0,0.9-0.2,0.3-1.5c-1.1-2.4-1.5-3.9-2.4-7.6c-0.5-2.3-1.3-4.6-1.9-5.4
			c-0.7-0.9-1.1-2-1.1-3.4c0-1.7-0.7-4.6-1.8-7.4c-0.1-0.4-0.4-1.2-0.5-1.7c-0.2-1.5-1.1-3.1-1.5-2.7c-0.5,0.3-1-1.5-1-3.8
			c0-0.9-0.2-1.8-0.5-2c-0.2-0.2-0.5-1-0.5-1.8s-0.2-1.7-0.5-1.8c-0.2-0.2-0.5-0.8-0.5-1.4s-0.3-1.2-0.7-1.3
			c-0.6-0.3-1.5-3.5-1.3-4.7c0-0.3-0.2-0.1-0.5,0.4c-0.6,0.8-0.7,0.3-1-3.9c-0.4-7.3-0.3-26.8,0.2-29.7c0.5-2.7,0.5-3.3,0.5-17.7
			c0-4.8,0.2-9.8,0.4-11c0.2-1.3,0.4-5.1,0.5-8.6c0.1-4.7,0.3-7,1.1-9.3c0.5-1.7,0.8-3.3,0.7-3.7c-0.1-0.4,0-0.8,0.2-1
			c0.3-0.2,0.5-0.7,0.5-1.1s0.4-1.8,0.9-3c0.5-1.3,1.1-3,1.3-3.8c0.1-0.9,0.8-3.3,1.4-5.4c0.6-2.1,1.2-4.2,1.2-4.8s0.4-2.2,0.9-3.6
			c1.3-3.9,5.1-17,5.8-20.2c0.3-1.5,0.8-2.9,1-3.1s0.4-1,0.4-1.7c0-1,0.4-1.8,1.2-2.4c1-0.8,1.1-1.2,0.6-1.9
			c-0.4-0.8-0.4-1.3,0.2-2.4c0.4-0.8,0.9-2.5,1.1-3.8s0.8-3.3,1.3-4.5s0.9-2.6,0.9-3.2s0.3-1.7,0.8-2.6c0.4-0.8,1.2-2.9,1.7-4.5
			s1.3-3.5,1.6-4.2c0.6-1.2,2.2-6.7,2.5-8.4c0.2-1.1,1.8-4.3,2.2-4.3c0.2,0,0.5-0.7,0.7-1.6s0.6-1.6,1-1.6s0.6-0.2,0.6-0.4
			c-0.4-1.3,8.2-18.6,9.3-18.6c0.2,0,0.5-0.5,0.7-1.2c0.1-0.6,1.9-3.2,3.8-5.8c1.9-2.5,3.8-5.1,4.1-5.7c1.8-2.6,6.5-8,7-8
			c0.3,0,0.9-0.5,1.4-1.1s1.1-1.1,1.3-1.1s1.3-0.8,2.5-1.8c3-2.6,7.7-5.8,13.2-8.8c2.7-1.5,5.4-3.1,6-3.6s3.6-2.4,6.6-4.1
			s5.9-3.4,6.4-3.9c1.1-1,10-4.8,11.3-4.8c0.5,0,1.4-0.4,1.9-0.8c0.5-0.4,1.4-0.8,2-0.8s1.6-0.2,2.2-0.5c2.7-1.1,6.8-2.1,11.9-3
			c3-0.5,6.5-1.1,7.7-1.3c1.2-0.3,3.6-0.6,5.3-0.7c1.7-0.2,4.8-0.4,6.7-0.6c5.3-0.5,16,0.6,25.5,2.7c14.1,3.1,14.6,3.2,17.7,4.6
			c1.7,0.8,3.3,1.4,3.7,1.4c0.3,0,0.9,0.3,1.2,0.7c0.3,0.4,1.6,1,3,1.4c1.3,0.4,2.7,1.1,3,1.4c0.3,0.4,0.8,0.7,1.1,0.7
			c0.3,0,1.3,0.6,2.3,1.3s2.1,1.3,2.6,1.3c0.4,0,1.8,0.6,3,1.3c1.3,0.7,2.6,1.3,3,1.3s1.3,0.6,2.1,1.3c0.7,0.7,1.6,1.3,2,1.3
			c0.6,0,4.1,2,9.4,5.3c0.7,0.4,1.4,1.1,1.6,1.4c0.2,0.3,0.6,0.6,0.8,0.6c0.3,0,1.5,0.8,2.8,1.8s2.6,1.8,2.8,1.8
			c0.2,0,1,0.6,1.6,1.3s1.3,1.3,1.6,1.3c1.9,0.1,12.1,10.1,11.6,11.4c-0.1,0.4,0.2,0.7,0.7,0.9c0.8,0.2,2.2,2.2,4.1,5.6
			c0.3,0.5,1.3,2,2.2,3.2c0.9,1.3,2.1,3.2,2.5,4.3s1.1,2,1.3,2c0.2,0,0.5,0.3,0.5,0.6c0,0.3,0.3,1,0.7,1.4c0.7,0.8,7.8,16.3,9,19.5
			c0.3,0.9,0.8,1.7,1,1.7s0.5,0.8,0.7,1.8s0.6,2.1,1,2.4s0.7,1.1,0.7,1.6c0,0.6,0.2,1,0.4,1c0.2,0,0.6,1.4,0.9,3.1
			c0.3,1.6,1.2,4.9,2.1,7.2c0.8,2.3,2,6.1,2.6,8.5c0.6,2.3,2.3,7.7,3.6,11.9c1.3,4.2,2.7,8.7,3.1,10s1.1,3.6,1.7,5.2
			c0.5,1.5,1,3.3,1,4s0.4,1.9,1,2.7c0.5,0.9,1,2.1,1,2.7s0.4,2.2,0.9,3.4c0.5,1.3,1.2,4,1.5,6c0.3,2.1,0.9,4.4,1.3,5.4
			c0.4,0.9,0.7,2,0.7,2.3c0,0.4,0.4,1.6,0.9,2.9c1.2,2.9,2.5,7.3,2.5,8.6c0,0.6,0.3,1.5,0.7,2.1c0.4,0.5,0.7,1.6,0.7,2.3
			c0,1.1-0.1,1.2-0.5,0.5c-0.3-0.5-0.5-0.5-0.5-0.2s0.4,1,1,1.4s0.9,1,0.7,1.4c-0.4,0.7,0.4,5.3,1.5,8.7c0.4,1.2,0.7,2.7,0.7,3.5
			c0,2.6,0.6,4.5,1.4,4.8c0.8,0.2,0.9,1.1,0.9,9.1c0,4.9,0.3,12.5,0.5,16.9c0.4,8.8,0.1,22.9-0.5,21.8c-0.4-0.7-0.6-0.3-0.5,1.5
			c0,0.6-0.3,1.4-0.8,1.6c-0.8,0.5-0.8,0.7-0.2,2.3c0.4,1.1,0.4,1.8,0.1,1.9c-0.2,0.1-0.5,0.8-0.5,1.5s-0.3,1.6-0.7,2.1
			c-0.4,0.5-0.7,1.7-0.7,2.8c0,1.1-0.2,2.2-0.5,2.5s-0.6,2.2-0.8,4.2c-0.1,2-0.6,4.4-1,5.3s-0.7,2.7-0.7,4.1c0,1.5-0.4,3.1-1,4.1
			c-0.5,1-1,2.1-1,2.6c0,0.4-0.5,2-1.2,3.4c-1.4,2.9-2.6,6.4-2.6,7.5c0,0.4-0.4,1.3-0.9,2.1c-0.6,0.9-1,2.8-1.3,5.1
			c-0.1,2.3-0.7,4.5-1.3,5.8c-0.8,1.6-0.9,2.1-0.4,2.4c0.5,0.4,0.5,0.7,0.1,1.4c-0.3,0.6-0.5,0.7-0.5,0.3c0-1.6-1.8,2-2.4,4.9
			c-0.3,1.6-0.9,3-1.2,3c-0.6,0-1.2,1.6-1.2,3.3c0,1.3,0.8,1.1,1.3-0.3c0.3-1.3,2.2-4.2,2.5-4c0.2,0.3-1.3,5-2.1,6.7
			c-0.3,0.8-0.6,2.1-0.6,3c0,1.1-0.1,1.4-0.4,0.9c-0.2-0.5-0.5,0.2-0.7,1.9c-0.1,1.4-0.8,3.9-1.5,5.4s-1.3,3.1-1.3,3.5
			s-0.4,0.7-1,0.7c-0.9,0-0.9-0.1-0.1-2c0.4-1.1,1-2.1,1.2-2.2c0.2-0.1,0.3-0.8,0.3-1.6c-0.1-1.3-0.1-1.3-0.3-0.2
			c-0.1,0.6-0.4,1.1-0.7,0.9c-0.2-0.2-0.7,0.4-1,1.2s-0.7,1.9-1,2.4c-0.3,0.7-0.2,1.2,0.6,1.8c1.2,1.1,0.9,2.5-0.5,2.9
			c-0.7,0.2-1.1-0.1-1.4-0.8c-0.4-1.1-0.4-1.1-0.9,0.3c-0.7,2.1-0.7,3,0.2,3c0.8,0,1,1.3,0.2,1.8c-0.3,0.2-0.4,0.5-0.2,0.8
			c0.1,0.2-0.1,0.5-0.5,0.7s-0.9-0.2-1.2-0.7c-0.8-1.6-2-1.2-2.6,1c-0.3,1-0.2,1.2,0.9,1.2c1.6,0,1.6,0.7,0,1.6
			c-0.6,0.4-1.1,0.9-0.9,1.2c0.3,0.6-2.7,4.1-3.5,4.1c-0.3,0-0.7-0.3-0.8-0.6c-0.2-0.4-0.2,0.1-0.1,1c0.2,1.2,0,1.7-0.8,2.3
			c-0.9,0.6-1,0.6-0.7-0.7c0.2-1,0.1-1.4-0.4-1.4c-0.4,0-0.7,0.5-0.7,1.3s-0.3,1.3-0.7,1.3c-0.4,0-0.7,0.5-0.7,1.2
			c0,1.1,0.1,1.1,0.7,0.3c0.3-0.5,1.1-1,1.5-1c0.9,0.1,0.9,0.1,0.1,0.6c-0.5,0.3-0.9,0.8-0.9,1.2c0,1-2.3,3.1-2.6,2.5
			c-0.6-1.1-1.6-0.5-4.1,2.2c-1.4,1.5-3.1,3.1-3.7,3.5s-1.1,1.2-1.1,1.5c0,0.4-0.3,0.7-0.7,0.7c-0.4,0-0.6,0.4-0.4,1.1
			c0.1,0.6,0,1.1-0.3,1.1s-1.1,0.6-1.7,1.3s-1.3,1.3-1.5,1.3c-0.3,0-0.6,0.4-0.8,0.8c-0.1,0.4-0.4,0.8-0.6,0.7
			c-1.1-0.2-1.9,0.3-4.5,3.2c-1.6,1.7-3.1,3.1-3.3,3c-0.2-0.2-1.2,0.5-2.1,1.5c-1,1-2.2,1.8-2.8,1.8c-1.5,0-4.2,1.5-6.2,3.5
			c-1,1-1.9,1.7-2.1,1.7c-0.1,0-1.6,0.8-3.3,1.8c-1.6,1-3.2,1.8-3.6,1.8c-0.3,0-1.6,0.6-3,1.3c-1.3,0.7-3.1,1.4-4,1.6
			c-0.9,0.2-2.2,1-2.9,1.6c-0.7,0.7-2.4,1.6-3.9,2.1c-1.4,0.5-3.3,1.2-4,1.6c-0.8,0.4-1.9,0.7-2.5,0.7s-2,0.6-3,1.4
			c-1.5,1.2-2.7,1.5-6.2,1.8c-4,0.4-9.5,1.5-11.4,2.3c-0.5,0.2-0.9,0.2-0.9-0.2c0-0.6-7.4-0.6-17.3,0.1
			C253.3,449.3,251.3,449.2,249.9,448.6z M281.6,440.2c7.4-1,12.4-2.1,15.9-3.7c1.4-0.7,3.5-1.5,4.5-1.8c1.1-0.4,2.5-1,3.1-1.4
			c0.7-0.4,1.6-0.7,2.1-0.7s1.1-0.4,1.4-0.8c0.3-0.5,2.3-1.8,4.4-3s4.7-2.7,5.8-3.4c1.1-0.7,2.6-1.2,3.3-1.2c0.9,0,1.3-0.3,1.3-0.8
			c0-1,2.3-3.4,3.1-3.4c0.3,0,1.2-0.8,1.9-1.8c0.7-1,2.5-2.8,3.8-3.9c3.1-2.5,11.9-12,14.5-15.6c1.1-1.4,2.1-2.9,2.3-3.2
			c0.2-0.3,0.8-1.2,1.3-2.1c0.5-0.8,1.7-2.6,2.6-4c0.9-1.3,1.9-2.9,2.2-3.5c0.3-0.6,1.2-1.3,2-1.6c1.2-0.4,1.5-0.7,1.4-1.6
			c-0.1-0.8,0.6-2.3,2.2-4.3c3-4,5.7-8.9,6.7-11.8c0.4-1.2,1-2.4,1.4-2.7c0.4-0.2,0.7-0.8,0.7-1.3s0.7-2.8,1.5-5.1
			c0.9-2.3,1.9-5.4,2.4-6.9c0.5-1.4,1.1-3.5,1.4-4.5s1.1-3.6,1.8-5.8c0.6-2.2,1.4-4.4,1.6-5s0.6-1.7,0.9-2.6c0.3-0.8,1.2-3.5,2-5.8
			s2-5.8,2.6-7.7c0.6-1.9,1.4-4,1.9-4.8c0.7-1.2,0.7-1.3,0-1.9s-0.7-0.8-0.1-2.7c0.4-1.1,1-2.2,1.3-2.5c1-0.9,1.9-5.9,1.2-7
			c-0.5-0.9-0.5-0.9-0.3,0.1c0.1,0.6,0,1.4-0.2,1.8c-0.3,0.6-0.4-0.1-0.2-2.3c0.6-5.3,0.8-9.2,1.1-19.8c0.2-8.2,0.1-10.8-0.5-13.7
			c-0.9-4-1.8-13.3-1.9-18.9c0-2.1-0.3-4.1-0.7-4.5c-0.3-0.4-0.8-3.1-1.2-5.8c-0.3-2.7-0.7-6-1-7.1c-0.2-1.2-0.2-2.5,0-2.9
			c0.6-1.1,0.8-0.3,1.2,4c0.1,1.8,0.5,4.3,0.7,5.5c0.3,1.3,0.7,3.5,1,5s0.7,4.2,1,6.2c0.2,1.9,0.8,4.2,1.2,5.1c0.5,1.2,0.7,3,0.7,7
			c0,5.5,0.1,6.4,1.1,5.3c0.9-1,1.3-0.8,1.3,0.4c0,0.6-0.1,1.1-0.3,1.1c-0.2,0-0.4,4.1-0.4,9.1c0,6.7-0.2,9.9-0.8,12.3
			c-0.9,3.5-1.1,6.1-0.3,6.1c0.6,0,0.6,0.1,1.9-6.6c1.2-5.8,2.1-16.5,1.9-22.1c0-2,0-3.7,0.2-3.9c0.1-0.2,0.1-1.1,0-2.1
			c-0.2-1.7-0.1-1.8,1.7-2.7c1.3-0.6,2-1.2,2-1.8c0-1.1-2.1-3.2-3.2-3.2c-0.3,0-0.8-0.4-0.9-0.8c-0.2-0.5-0.9-0.8-2.1-0.8
			c-1.7,0-1.8-0.1-1.6-1.8c0.1-1,0-2.6-0.3-3.6c-0.7-2.4-2-13.2-2-16.9c0-2.3,0.2-3.2,0.7-3.4c0.4-0.2,0.9-0.1,1.1,0.1
			s0.4,3,0.4,6.2c0,3.3,0.3,7.3,0.6,9.1c0.3,1.7,0.7,4.6,0.9,6.5c0.2,2.7,0.4,3.3,1.1,3.3c1.3,0,1.4-1.2,0.7-5.8
			c-0.4-2.3-0.9-7.2-1.3-10.9c-0.3-3.7-0.7-7.2-0.9-7.8c-0.2-0.6-0.2-1.4-0.1-1.7c0.1-0.4-0.1-0.7-0.5-0.7c-0.8,0-0.8-0.2-1.1-5.9
			c0-1-0.5-3.6-1.2-5.7c-0.6-2.3-1-4.4-0.8-5.3c0.1-1,0-1.8-0.4-2.2c-0.3-0.4-0.8-1.4-0.9-2.3c-0.5-2.6-2.2-9.5-2.7-10.6
			c-0.2-0.6-0.8-3-1.3-5.3s-1-4.4-1.3-4.8c-0.2-0.3-0.4-0.9-0.4-1.4s-0.3-2-0.7-3.2c-0.3-1.3-1.1-3.9-1.7-6c-0.6-2-1.4-4.4-1.7-5.3
			c-0.3-0.8-0.9-2.6-1.2-4c-0.3-1.3-1-3.5-1.4-5c-0.5-1.4-1.7-5.5-2.7-9c-2.8-10.2-3.6-12.6-4.6-14.3c-1.2-2.2-1.2-3,0.3-4.4
			c1.5-1.5,1.5-2.1,0-2.1c-1.7,0-2.9-1.5-4.4-5.3c-0.7-1.9-1.6-3.8-1.9-4.2c-0.8-1.2-4.6-8.2-4.6-8.6c0-0.2-0.6-1-1.3-1.9
			c-0.8-0.8-2.4-3.8-3.7-6.5c-1.3-2.7-2.5-5.3-2.7-5.8c-0.2-0.4-0.8-1.8-1.3-3c-0.4-1.3-1-2.3-1.3-2.3c-0.2,0-0.4-0.4-0.4-0.8
			s-0.4-1.2-0.8-1.7c-0.5-0.5-1.5-2-2.3-3.2c-2.3-3.7-5.1-6.5-10-10.2c-1.7-1.3-4.1-3.2-5.3-4.2c-1.1-1-3.5-2.7-5.2-3.9
			s-3.6-2.4-4.1-2.9c-1.7-1.5-3.1-2.2-7.9-4.1c-2.6-1-5.2-2.2-6.1-2.7c-0.8-0.5-2.6-1.2-4.1-1.6c-1.4-0.4-3-1-3.4-1.4
			s-1.4-0.8-2.2-0.9c-0.8-0.2-2.2-0.6-3.2-1.1s-2.5-0.8-3.3-0.8s-2.3-0.5-3.3-1c-1-0.6-2.6-1.1-3.5-1c-0.9,0-2.9-0.2-4.5-0.5
			c-5.7-1.2-10.9-1.8-11.2-1.5c-0.5,0.6,0.8,1.2,2.1,1c0.6-0.1,1.2,0,1.2,0.3s0.7,0.7,1.6,0.8c0.8,0.1,0.2,0.2-1.3,0.1
			c-2.8-0.1-5.3-0.6-11.8-2.1c-1.7-0.4-5.4-0.9-8.3-1.1c-3.1-0.2-5.1-0.6-4.9-0.9c0.1-0.3-0.2-0.1-0.9,0.3c-0.6,0.5-2.8,1.1-4.9,1.4
			c-4.8,0.7-5.1,0.7-4.9-0.2c0.2-0.7,4.5-1.8,7.4-2c1.7-0.1,1.7-0.1,0.4-0.5c-1.5-0.5-6.3,0.1-7.2,0.9c-0.3,0.3-1.4,0.7-2.3,0.8
			c-1.7,0.2-2,1.3-0.3,1.2c0.4,0,0.8,0.2,0.8,0.4s-1,0.4-2.2,0.4c-2.1,0-2.8-0.6-1.5-1.3c0.3-0.2-0.2-0.2-1.1-0.1
			c-5.8,1-7.1,1.3-7.7,1.5c-0.4,0.2-1.7,0.4-2.9,0.6c-3.2,0.4-6.2,1.1-6.8,1.7c-0.3,0.3-1.6,0.7-2.7,0.9s-2.4,0.7-2.6,1.1
			c-0.3,0.4-1.6,1-2.9,1.3c-1.3,0.4-3.3,1.1-4.5,1.7c-1.1,0.6-2.5,1-3,0.8s-1.1-0.1-1.3,0.2c-0.1,0.3-0.9,0.5-1.6,0.5
			c-0.8,0-1.7,0.3-2,0.7c-0.7,0.8-2.9,2.1-8.1,4.8c-2,1-3.9,2.1-4.3,2.3c-1.7,1.1-2.9,1.7-3.4,1.7c-0.3,0-1.7,0.8-3.2,1.8
			s-2.8,1.8-3,1.8c-0.3,0-1,0.6-4,3.4c-0.6,0.6-2.4,2.2-3.9,3.6c-1.5,1.4-3.4,3.2-4,4c-3,3.8-5.5,7.7-6.2,9.7
			c-0.4,1.2-1.1,2.7-1.6,3.3c-0.8,1-1.4,2.3-4.6,9.1c-0.5,1.3-1.6,2.9-2.4,3.5c-0.7,0.7-1.3,1.5-1.3,1.8s-0.3,0.8-0.7,1.3
			c-0.8,0.9-2.9,4.7-3.9,7.1c-0.5,1.3-1.2,1.8-2.6,2.3c-2.1,0.6-2.5,1.7-1,2.7c1.2,0.8,1.2,1.7,0,4.4c-2.9,6.7-8.2,22.8-10.2,30.8
			c-0.5,2.2-1.2,4.3-1.4,4.9c-0.2,0.5-0.7,2-1,3.4s-0.8,3.3-1.2,4.2c-0.4,0.9-0.9,3-1.2,4.8s-1.5,6.5-2.7,10.6
			c-1.2,4-2.2,7.7-2.2,8.1s-0.4,2.2-0.9,4s-1.2,4.3-1.5,5.6c-0.3,1.3-0.9,3.6-1.3,5c-0.4,1.5-0.8,3.7-0.9,5c0,1.3-0.5,3.5-0.9,4.9
			s-0.8,4-0.8,5.9c0,3.1-0.1,3.3-1.1,3.1c-1.1-0.2-1.1-0.2-0.9,5.8c0.1,5.3,0,6.2-1,8.6c-0.6,1.5-1.3,4-1.5,5.7
			c-0.3,3.1,0.1,3.8,1.3,2.1c0.6-0.7,0.7-0.6,1,1.5c0.2,1.3,0.1,3.5-0.1,5c-0.4,2.3-0.3,7.1,0.3,14.7c0.1,1.1,0.4,2.2,0.6,2.4
			c0.2,0.2,0.4,0.6,0.4,0.8c0.1,2.3,0.9,8.2,1.3,9.2c0.3,0.7,0.9,2.9,1.3,4.9c0.4,2,1.2,3.9,1.6,4.4c0.4,0.5,0.8,1.5,0.8,2.2
			s0.3,1.8,0.7,2.5s1.2,2.9,1.6,4.9c0.9,3.4,3,10.2,3.9,12.7c0.2,0.6,1.1,2.7,1.9,4.8c1.6,4.2,5,14.5,6.4,19.9c0.5,2,1.3,4.2,1.7,5
			c0.3,0.8,0.7,1.9,0.7,2.5c0,0.5,0.5,2.1,1.1,3.4c1.1,2.3,4.9,10.9,6.1,13.8c0.3,0.7,1.1,2.2,1.7,3.2c0.7,1,1.4,2.2,1.7,2.6
			s1.1,1.8,1.9,3.2c0.8,1.3,2.3,3.4,3.4,4.7c1.2,1.4,2,2.9,2,3.6c0,0.8,0.5,1.6,1.4,2.2c0.8,0.5,1.5,1.4,1.6,2s0.8,1.8,1.4,2.6
			c0.6,0.9,2.3,3.1,3.6,5c3.7,5.1,10.8,12.8,15.1,16.4c2.1,1.7,3.9,3.2,4.2,3.2c0.2,0,1.4,1,2.6,2.3c3.1,3.1,4.6,4.3,6.5,5.3
			c1.4,0.8,4.4,3.1,9.5,7.2c1.1,0.8,3.2,2.2,4.7,2.9c1.9,0.9,2.9,1.7,3.2,2.6c0.4,1.1,0.8,1.3,2.4,1.3c1.1,0,2,0.2,2.2,0.5
			c0.1,0.3,1,0.6,1.8,0.7c0.9,0.2,3.4,0.8,5.7,1.6c5.7,1.8,10.7,3,12.6,3c0.9,0,3.6,0.3,6,0.7c9.8,1.7,13.1,2,25.7,2.4
			C273.2,441.1,275.1,441.1,281.6,440.2z M159.3,412.8c0-0.4-0.2-0.8-0.4-0.8s-1-0.6-1.7-1.4l-1.3-1.5l0.4,1.3
			C156.9,412.8,159.3,414.7,159.3,412.8z M131.9,382.5c0-0.8-2-2.8-2.4-2.5c-0.3,0.2,0,0.9,0.6,1.6
			C131.2,382.9,131.9,383.2,131.9,382.5z M129,377.6c-0.3-0.7-0.7-1-1-0.6c-0.6,0.7-0.1,1.7,0.9,1.7
			C129.4,378.7,129.5,378.5,129,377.6z M378.3,366.8c0-1.4-0.7-1.3-1.4,0.4c-0.4,0.8-0.3,1,0.5,1
			C378.1,368.1,378.3,367.8,378.3,366.8z M379.8,361.2c0-0.7-0.9-0.5-1.2,0.4c-0.5,1.5-0.3,2.1,0.4,1.1
			C379.4,362.1,379.8,361.4,379.8,361.2z M389.6,295.7c-0.4-0.7-1.5,0.8-1.3,1.8s0.3,1,0.9-0.2C389.5,296.6,389.7,295.9,389.6,295.7
			z M262.7,44.5c-0.5-0.1-1.3-0.1-1.7,0c-0.5,0.2-0.1,0.3,0.8,0.3C262.8,44.8,263.2,44.7,262.7,44.5z M255.1,42.2
			c0-0.3-0.5-0.5-1.2-0.5s-1.2,0.3-1.2,0.5c0,0.3,0.5,0.5,1.2,0.5C254.6,42.8,255.1,42.6,255.1,42.2z"/>
		<path class="st3" fill="currentColor" d="M246,433.5c-0.1-0.2-2.3-0.4-4.8-0.5c-3.2-0.2-5.2-0.6-6.9-1.4c-1.3-0.6-3.4-1.1-4.6-1.1
			c-1.8,0-2.5-0.3-3.5-1.5l-1.2-1.4l-1.1,1.2l-1,1.2l-1.1-1.2c-1.7-2.1-0.7-5.3,1.1-3.4c0.4,0.5,1.8,1.1,3,1.4
			c1.3,0.3,2.6,0.8,3,1.2c0.6,0.6,4.6,1.3,9.2,1.6c1.5,0.1,1.7-0.1,1.6-1.1c-0.1-0.7,0.1-1.3,0.5-1.3c0.3-0.1,1.1-0.2,1.8-0.2
			c0.6-0.1,1.5-0.6,1.8-1.3c0.9-1.4,1.4-1.4,2.7-0.1c2.6,2.6,3.5,3.4,4.2,3.4c0.3-0.1,1-0.1,1.3-0.2c0.3,0,0.6-0.4,0.6-0.7
			c0-0.4,0.4-1,1-1.3c1-0.7,1.9-3.6,1.5-4.8c-0.1-0.4-1.1-0.7-2.5-0.7c-1.2,0-2.7-0.4-3.4-0.8s-1.6-1-2-1.1
			c-0.5-0.2-0.9-0.6-0.9-0.9c0-1.3,1.2-4.1,1.8-4.1c0.3,0,0.6-0.2,0.6-0.5s0.3-0.5,0.7-0.5c0.4,0,1.7-0.8,3-1.7
			c1.3-1,2.8-2.1,3.5-2.4c1.2-0.6,2.5-1.5,3.8-2.4c0.4-0.3,0.4-0.7,0-1.6c-0.3-0.6-0.8-1.3-1.1-1.5c-0.7-0.5-2.6,0.7-4.9,3.1
			c-1.1,1.1-2.5,2.3-3.1,2.6c-1.9,1-4.7,1.3-5.1,0.6c-0.9-1.5,0.1-11.8,1.3-12.6c0.2-0.2,0.7-1.1,1.2-2.1c0.9-1.9,1-4.5,0.3-8.7
			c-0.3-1.9-0.2-2.7,0.7-4.9c0.6-1.4,1.2-2.8,1.2-3.2c0-1.3,2-1.9,5.4-1.6c2.9,0.3,3.3,0.2,3.2-0.5c-0.1-0.9-0.5-1.2-3.7-2.6
			c-1.7-0.8-2.2-0.8-3.2-0.2c-0.7,0.4-1.3,0.6-1.5,0.4c-0.4-0.4-0.2-11.2,0.1-12.3c0.1-0.4,0-1.2-0.5-1.7c-1.4-1.8-1.5-4.9,0-12.6
			c0.1-0.9,0.9-2.3,1.7-3.1s1.4-1.7,1.4-2.1c0-1.1-2.9-5.5-3.6-5.5c-0.8,0-1.3,0.9-1.4,2.3c-0.3,5.2-0.9,9.7-1.3,10.2
			c-0.6,0.8-0.1,10.6,0.5,11.5c0.5,0.6-0.2,3.9-1.5,7c-0.3,0.7-0.3,2,0.1,3.5c0.8,3.7,0.7,8-0.5,10.7c-0.8,1.9-0.9,3-0.7,5.2
			c0.4,3.8-0.4,8.7-1.9,10.3c-1,1.1-1.2,1.9-1.2,4.3c0,2.5-0.1,3-1.4,4.1c-0.7,0.7-1.6,1.2-1.9,1.2c-0.7,0-3.2,2.9-2.7,3.3
			c0.1,0.2,0,0.4-0.2,0.4c-0.3,0-0.6,0.5-0.6,1.1s0.2,1.1,0.5,1.1c0.7,0,0.6,1-0.2,1.8c-0.4,0.4-2,1.6-3.7,2.7c-3.1,2-7.7,3-8.4,1.8
			c-0.4-0.6-2.7-0.8-2.7-0.2c0,0.2-1.2,1.7-2.6,3.4l-2.6,3.1l-3.1-0.3c-4.5-0.3-6.8-0.8-7.7-1.6c-0.4-0.4-2.6-1-5-1.2
			c-2.6-0.3-4.6-0.8-5.1-1.4c-0.5-0.5-1.1-0.8-1.3-0.8c-0.9,0-3.5-3-3.5-4c0-0.7,0.4-0.8,2.6-0.5c1.4,0.2,2.7,0.2,2.8-0.1
			c0.4-0.7-1.3-5.4-1.9-5.4s-1.4-2.6-0.9-3.1c0.1-0.2,0.2,0,0.2,0.4c0,0.5,0.1,0.5,0.7,0c0.4-0.4,0.7-0.8,0.7-1.1s-0.3-0.5-0.7-0.5
			c-0.4,0-0.7-0.5-0.7-1.3c0-1.3-0.5-1.6-3.4-2c-1.6-0.2-2.6-2.6-2.5-5.9c0.1-2.4,0-2.5-0.9-1.8c-0.8,0.6-1.2,1.4-1.1,2.6
			c0,0.2-0.9,0.9-1.9,1.7c-1.7,1.2-2.1,1.3-2.7,0.7c-0.4-0.4-1.3-0.8-2-1.1c-0.7-0.2-1.9-1.2-2.6-2.3s-1.5-2.1-1.7-2.2
			c-0.2-0.1-0.4-0.5-0.4-0.9s-0.3-0.6-1-0.4c-0.5,0.2-1,0.5-1,0.8s-0.5,1.1-1.1,1.8c-1,1.2-1,1.2-0.1,2.3c0.8,1,0.8,1.2,0.2,1.9
			c-1.3,1.4-3,0.1-4.8-3.4c-0.9-1.8-1.9-3.2-2.2-3.2s-0.6-0.3-0.6-0.6c0-1.8-2.8-6.7-5.8-9.9c-3.5-3.9-4.6-5.9-6.3-11.3
			c-1.1-3.4-3.1-7.3-4.1-8c-0.3-0.2-0.6-0.8-0.6-1.3s-0.3-1.4-0.7-2s-1-2.3-1.4-3.8s-1.1-3.4-1.5-4.3c-1.1-2.3-1-3.4,0.3-3.2
			c0.8,0.1,1.2,0.6,1.4,1.9c0.2,1,0.7,2.2,1.2,2.7c0.8,1,0.9,1,2,0.2c0.8-0.5,1.1-1.2,0.9-1.7c-0.1-0.5,0.1-1.8,0.5-2.8
			c0.7-1.5,0.7-2.3,0.3-4.6c-0.4-2-0.4-3.1,0-3.7c0.7-1.3,0.2-1.7-1.2-1c-0.7,0.3-1.5,1.4-1.8,2.4c-0.5,1.4-1.3,2.2-3.3,3.4
			c-1.5,0.8-2.7,1.3-2.8,1c-0.1-0.3-0.5-0.5-0.8-0.5c-1,0-3.8-3.7-4.8-6.3c-0.5-1.3-1.2-3.1-1.5-4s-0.9-3.3-1.3-5.4s-0.8-3.8-1-3.8
			s-0.4-0.4-0.4-0.8s-0.6-2.3-1.4-4.1c-0.9-2.1-1.4-4.1-1.4-5.5c0-1.6-0.2-2.3-0.7-2.3c-1.1,0-1.9-1.5-2-3.8c0-1.3-0.4-2.5-0.9-2.8
			c-0.4-0.4-0.9-2.2-1.2-4.6c-0.4-3.5-0.4-4.6,0.3-7.4c0.5-1.8,1.3-3.7,1.7-4.2c0.5-0.5,0.9-1.2,0.9-1.4c0-0.8,4.6-5.9,5.3-5.9
			c0.4,0,0.3-0.3-0.3-0.8c-2.1-1.7-7.9-0.4-6.5,1.5c0.3,0.5,0.4,0.9,0.1,1.1c-0.2,0.2-0.6,0-0.7-0.3c-0.1-0.4-0.3-0.1-0.3,0.8
			c0,0.8-0.2,1.4-0.5,1.4c-0.2,0-0.5,0.4-0.5,0.8s-0.3,0.8-0.7,0.8s-0.7-0.4-0.7-0.8s-0.2-0.8-0.5-0.8s-0.5-2-0.4-4.9
			c0-2.7,0.1-4.6,0.3-4.2c0.1,0.3,0.4,0.6,0.7,0.6s0.9,0.6,1.4,1.3s1.2,1.2,1.4,1.1c0.7-0.5,0.5-2.4-0.2-2.4c-0.6,0-2.7-4.4-2.7-5.7
			c0-0.3-0.7-1.2-1.5-2.1c-2.6-2.8-3.4-5.1-3.4-11.5c0-3.3,0.1-5.9,0.4-6.1c0.3-0.2,0.8-1.3,1.1-2.3c0.8-2.6,3.7-4.9,6.8-5.4
			c1.4-0.2,2.7-0.2,3,0.2c0.3,0.3,1.4,0.6,2.4,0.8c1,0.2,1.8,0.6,1.8,0.8c0,1.4,7.7,1.5,9.3,0.1c1.1-1,3.1-1.1,3.7-0.3
			c0.3,0.4,1,0.8,1.5,0.8s0.9,0.3,0.9,0.5c0,0.3,0.3,0.5,0.7,0.5s0.7,0.3,0.7,0.5c0,1,4.4,5.8,5.3,5.8c0.8,0,0.7-0.2-0.3-2.2
			c-1.9-3.9-2.8-7.3-2.7-11.1l0.1-3.6h-1.7c-1.1,0-1.6-0.2-1.4-0.6c0.4-0.7-0.7-3.6-1.8-4.8c-0.5-0.5-0.9-1.6-0.9-2.5
			c0-1.2-0.2-1.6-0.8-1.6c-1-0.1-2.6-1.2-2.6-1.9c0-0.6-2.3-3.4-2.7-3.4c-0.2,0-0.9-0.8-1.6-1.8c-0.7-1-2.2-2.7-3.5-3.9
			c-1.7-1.6-2.3-2.4-2.4-3.9c-0.1-1.6-0.3-1.8-1.3-1.7c-1,0.1-1.1-0.1-0.8-1.1c0.1-0.7,0.5-2.2,0.7-3.4c0.6-3.1,1.4-4.3,3.2-4.6
			c0.9-0.2,1.7-0.6,1.8-1.1c0.4-1.2,1.8-1,4.3,0.6c1.4,0.8,2.3,1.8,2.5,2.6c0.2,0.7,0.8,1.4,1.3,1.5c6.3,1.5,6.5,1.6,6.5,0.6
			c0-0.8-1.2-1.5-2.1-1.1c-1,0.4-4-3-4.4-4.9c-0.2-1.1-0.7-1.8-1.3-2c-0.5-0.2-1.2-0.9-1.4-1.6s-0.7-1.4-1-1.4
			c-0.8,0-0.6-9.8,0.2-10.8c0.4-0.4,0.7-1,0.7-1.2c-0.2-1.1,0.2-1.8,2.1-3.8c1.1-1.2,2.3-2.2,2.7-2.2s1.4-0.4,2.2-0.8
			c0.7-0.4,1.9-0.8,2.5-0.8c1.3,0,4.5-2,4.5-2.8c0-0.5-1.2-0.6-4.1-0.4c-4.2,0.3-6.8-0.2-5.5-1c0.5-0.3,0.5-0.5,0.1-0.8
			c-0.3-0.2-0.9-0.1-1.3,0.3c-0.4,0.3-0.8,0.5-0.9,0.4c-0.1-0.2-0.4-2.1-0.5-4.3c-0.2-2.2-0.5-4.1-0.7-4.1s-0.4,0.4-0.5,1
			c0,0.5-0.2,0-0.5-1.1c-0.2-1.2-0.2-2.5,0-3.2c0.3-0.8,0.2-1.6-0.1-2.3c-0.8-1.5-0.8-12.1,0-15.3c0.3-1.4,0.7-3.4,0.8-4.3
			c0-1,0.5-2.2,0.9-2.7s0.8-1.5,0.8-2.1s0.3-1.4,0.8-1.8c0.4-0.4,0.6-1.1,0.5-1.6c-0.1-0.6,0.1-1.2,0.6-1.5s1.2-1.4,1.5-2.5
			c0.3-1.1,0.8-2.3,1.1-2.7c0.3-0.4,0.8-1.2,1.1-1.8c0.3-0.6,1.3-1.4,2.3-1.7c1-0.3,2.3-1.1,3-1.7s1.4-1.2,1.5-1.2s0.8-0.4,1.4-1
			c1-0.8,1.4-0.9,4.2-0.4c1.6,0.3,3.6,1,4.2,1.5c0.6,0.5,2,0.9,3,0.9c1.7,0,1.8-0.1,1.8-1.6c0-1.1-0.4-2-1.1-2.6l-1.1-1l2.1-0.1
			c2.1,0,2.3-0.3,1.5-1.6c-0.4-0.6-0.7-0.6-2.6,0.4c-2.6,1.4-2.6,1.4-2.6,0.5c0-0.4-0.4-1.2-1-1.7c-0.9-0.9-1-0.9-1.9-0.1
			c-0.9,0.9-1,0.9-1.1-0.3c-0.1-0.8-0.5-1.3-1.2-1.4c-0.9-0.2-1.1,0.2-1.4,2c-0.2,1.2-0.5,2.2-0.7,2.2s-0.4,0.4-0.5,0.8
			c-0.1,0.7-0.3,0.7-1,0.1c-0.8-0.6-0.8-0.9,0.6-3.9c0.8-1.7,1.4-3.8,1.4-4.5c0-1.2,0.8-4.5,1.3-5.1c0-0.1,0.5,0.1,1.1,0.5
			c0.8,0.6,1.4,0.6,3.1,0.1c1.8-0.5,2.4-0.5,3.5,0.2c1.2,0.7,1.3,0.7,1.5,0c0.1-0.6,0.8-0.8,2.3-0.8h2.1l-0.2,3
			c-0.2,2.7-0.2,2.9,0.3,1.5c0.3-0.8,0.8-1.8,1.1-2.1c1.1-1,1.2-2.9,0.2-4c-0.5-0.5-1-1.4-1.1-2s-0.5-0.9-1.1-0.8
			c-0.8,0.2-0.9-0.1-0.6-1.5c0.1-1,0.3-2.2,0.3-2.7c0-0.7,0.7-1.4,2.2-2.2c1.7-0.9,2.2-1.5,2.2-2.4c0-1.4,0.1-1.4,4.6,0.5
			c1.3,0.6,2.6,1,2.8,1c0.2,0,0.3-1.2,0.3-2.6c0-2,0.2-2.6,0.7-2.6c0.4,0,0.7-0.4,0.7-1c0-0.8,0.5-1,2.9-1.3c2-0.2,3.1-0.6,3.5-1.2
			c0.6-0.8,0.7-0.8,2.5,0.4c2.6,1.8,3.4,3,3.8,5.3c0.2,1.4,0.6,2,1.3,2c0.7,0,0.9,0.4,0.9,2.1c0,1.5,0.2,2.1,0.7,2.1
			c1.1,0,1.2-4.5,0.1-8.1c-0.6-2.1-1.3-3.3-2.2-4c-2-1.3-3.6-3.2-3.7-4.2c0-0.5-0.2-1.2-0.4-1.6c-0.6-1,0.6-3.2,1.8-3.5
			c2.8-0.6,6.5-0.8,6.5-0.4c0,0.3,1.2,0.5,2.5,0.5c2.2-0.1,2.7-0.4,3.9-1.7l1.3-1.6v1.7c0,1.4,0.2,1.7,1.2,1.7
			c1.3,0,1.5-0.8,0.5-2.3c-1.1-1.6-0.9-1.9,1.5-1.9c1.8,0,2.2-0.2,1.9-0.8c-0.3-0.8,1-1.8,2.5-1.8c0.5,0,1.5-0.6,2.2-1.3
			s1.6-1.3,2-1.3c0.3,0,0.7-0.2,0.7-0.5s0.8-0.7,1.8-1c3.5-1.1,6.7-0.4,4.6,1c-0.8,0.5-0.8,0.5,0.1,0.5c0.5,0,1.8-0.2,2.7-0.4
			c1.4-0.4,1.7-0.3,1.5,0.3c-0.1,0.5,0,0.6,0.4,0.5c1-0.4,5,3.9,6.1,6.6c0.5,1.3,1.1,3.8,1.2,5.5s0.4,4.2,0.6,5.4
			c0.1,1.2,0.1,3.1,0,4l-0.3,1.8h-4.4c-4.8,0-8.4,0.8-8.9,2c-0.1,0.4-0.6,0.7-1.1,0.7c-1.1,0-3.1,4.4-2.7,5.8
			c0.5,1.7,3.6,2.1,3.6,0.3c0-1.1,1.7-2.9,2.8-2.9c0.9,0,1-0.2,0.8-1.1c-0.3-0.9-0.1-1.1,1.3-1.1c1,0,2.2-0.5,2.9-1.1
			c0.7-0.6,1.3-0.8,1.3-0.5s0.3,0.6,0.7,0.6c0.4,0,0.7-0.2,0.7-0.5s0.4-0.7,1-1.1c1.3-0.7,1.9-0.1,2.1,2c0.1,0.8,0.4,3.9,0.6,6.8
			c0.3,2.9,0.7,5.4,1,5.5c0.6,0.4,0.6,7.9,0,9.2c-0.7,1.4,0.4,3.6,1.7,3.4c0.8-0.1,1.1-0.8,1.7-4.2c0.5-2.6,1.1-4.5,1.8-5.4
			c1-1.3,1.2-1.3,5.1-1.1c2.2,0.2,5,0.4,6.3,0.6c1.4,0.2,2.3,0.1,2.3-0.3c0-0.3-0.4-0.5-1-0.5s-1-0.2-1-0.5s-0.6-0.6-1.3-0.7
			c-9.1-1.8-10.6-2.2-11.6-3.2c-1.1-1.1-1.1-1.2-0.9-9.3c0.3-9.1,0.6-10.9,1.6-10c0.5,0.5,0.7,0.4,0.7-0.6c0-1.4,1.3-2.6,2.8-2.6
			c0.9,0,1.1,0.3,1.1,2.1v2.1h2.4c2.3,0,3-0.6,1.9-1.3c-0.2-0.2-0.5-0.9-0.5-1.6c0-1-0.2-1.3-1.2-1.3c-0.7,0-1.2-0.2-1.2-0.4
			c0-0.3-0.4-1-1-1.7s-0.9-1.6-0.7-2c0.1-0.4-0.4-2-1.2-3.5c-0.9-1.7-1.4-3.6-1.4-4.8c0-1.7,0.2-2,1.6-2.6c3-1.4,7.7-1,9,0.7
			c0.6,0.7,4.1,3.6,5,3.9c0.4,0.2,0.8,0.7,0.8,1.2c0,0.6,0.6,0.8,3.1,0.8c2.3,0,3.1-0.2,3-0.6c-0.1-0.4,0.5-0.7,1.7-0.8
			c1-0.1,1.8,0.1,1.8,0.4c0,0.3,0.5,0.6,1.2,0.6c2.2,0,3.4,2.7,2.3,5.2c-0.8,1.8-1.4,4.4-1.2,5.1c0.1,0.4,0,1.2-0.2,1.7
			c-0.4,0.8-0.3,1.3,0.6,2.2c1.3,1.3,2.3,0.7,2.3-1.3c0-1.7,2.7-4,4.8-4c2.1,0,2.7,1.2,1.9,3.5c-0.2,0.7-0.3,1.8-0.1,2.4
			c0.1,0.6,0.3,2.7,0.3,4.8s0.2,4.2,0.4,4.6c0.2,0.5,0.5,2.2,0.6,3.8c0.3,4.2,0.8,6,1.8,6.7c0.9,0.6,0.9,0.5,0.9-2
			c0-1.5,0.2-2.7,0.6-2.8c0.4-0.2,0.4-0.6,0-1.8c-1.1-3.1-1.2-9.2-0.1-12.9c0.5-1.9,1.2-3.6,1.6-4c0.3-0.3,0.9-1.1,1.2-1.7
			c0.5-1.1,0.8-1.2,3.6-1c1.6,0.1,3.1,0.3,3.3,0.3c0.2,0.1,0.5,0.6,0.7,1.3l0.4,1.2l0.2-1.2c0.2-1,0.5-1.2,2.1-1.2
			c1.3,0,1.9,0.2,1.9,0.8c0,0.4,0.4,0.8,1,0.8h1l-1,1.2c-0.5,0.6-1,1.5-1,1.8c0,0.4-0.4,1.2-1,1.7c-0.7,0.8-1,1.7-1,3.7
			c0,2.3-0.1,2.6-1,2.6c-1.5,0-1.2,0.7,1,2c1.6,1,1.9,1.1,1.9,0.4c0-0.6,0.5-0.8,1.9-0.8c1.1,0,2-0.3,2.1-0.6c0.3-1,4.2-2.1,5.3-1.4
			c0.6,0.4,1.7,0.4,3.4-0.1c1.7-0.4,2.6-0.4,2.6,0c0.3,0.8,2,0.6,2-0.3c0-1.1,1-1,3.1,0.1c1,0.5,1.7,1.3,1.7,1.8s0.4,1,0.9,1.2
			c0.5,0.2,1.1,1,1.3,2.3c0.4,1.8,0.6,2.1,1.8,1.9l1.4-0.2l-0.3,2.7c-0.4,3.4-0.5,3.6-2,3.6c-1.9,0-1.3,1.7,0.8,2.4
			c3.3,1,4.1,3,2.6,6.3c-0.4,0.8-0.7,1.7-0.7,1.9c0,0.8,2.8,0.9,3.6,0.1c0.6-0.7,0.9-0.6,2.5,0.7c3.6,3,4.1,3.7,3.8,5.1
			c-0.2,0.7-0.1,1.5,0.2,1.6c0.3,0.2,0.5,0.8,0.5,1.4s0.2,0.9,0.5,0.7c1.4-1,2.6,3,1.3,4.4c-0.4,0.5-0.4,0.6,0,0.6
			c0.3,0,0.7-0.2,0.9-0.5c0.5-1,1.2-0.5,1.2,0.8c0,0.7,0.2,1.2,0.5,1s0.5,0.1,0.5,0.5c0,0.5-0.3,0.7-0.7,0.5
			c-0.4-0.2-0.9,0.1-1.1,0.6s-0.1,1,0.2,1.2c0.4,0.1,0.3,0.4-0.1,1c-0.6,0.7-0.6,1,0.1,2.1c0.5,0.7,1,1.1,1.3,0.7
			c0.7-0.7,2.6,4.6,2.7,7.1c0,1.1,0.2,2,0.5,2c0.6,0,0.6,3.5,0,4.9c-0.7,1.5-4.4,3.2-6.1,2.7c-0.7-0.2-1.4-0.5-1.6-0.7
			c-0.3-0.4-3.7-1.5-6.8-2.1c-3.9-0.8-10.2-3.1-11.1-4.1c-0.3-0.4-0.8-0.6-1.1-0.6c-0.3,0-1.3-0.4-2.2-1c-2.4-1.3-7.4-1.3-7.6,0.1
			c-0.1,0.6,0.1,0.9,0.8,0.9c0.6,0,1,0.4,1.1,1.1c0.1,1.2,3.6,2.9,3.9,1.9c0.1-0.4,0.9-0.3,2.3,0.1c1.2,0.4,2.9,0.8,3.8,1.1
			c0.9,0.2,2.2,0.7,2.7,1.1c0.6,0.3,3,1.1,5.3,1.6c6.6,1.6,8,2,10.3,3.1c3,1.5,3.9,2.7,4,6.1c0.1,2.8,0.1,2.9-1.7,4.3
			c-2,1.5-2.4,2.6-1,3.1c1.2,0.4,2.3,5.2,1.9,8.1c-0.3,2-0.2,2.2,2,4c1.8,1.5,2.5,2.5,3.1,4.7c0.4,1.5,1.1,3.1,1.3,3.4
			c0.3,0.5,0.3,1.2-0.1,2.4c-0.5,1.3-0.5,1.7,0,1.9c0.3,0.1,0.6,0.5,0.6,1s0.3,0.7,0.7,0.7c0.9,0,5.2,4.6,4.9,5.3
			c-0.1,0.3,0,1,0.4,1.6c0.5,0.8,0.6,2,0.4,4.1c-0.2,3-1.4,6.9-2.2,6.9c-0.9,0-0.3,1.7,1.1,3.1c2.4,2.4,3.4,5.1,3.5,9.7
			c0.1,3.1,0,4.1-0.5,4.1c-0.3,0-0.6,0.1-0.6,0.2c0,0.6,2.4,3,2.9,3c1,0.1,2.4,1.3,2.4,2.2c0,0.4-0.3,1.3-0.8,2
			c-0.7,1.2-0.7,1.2,1.2,1.2c1.4,0,2.1,0.3,2.5,1c0.7,1.6,0.6,4.1-0.3,5.1c-1.1,1.3-1.4,8.7-0.5,11.9c0.4,1.4,0.6,3.7,0.5,5.6
			c-0.1,2.9-0.3,3.2-1.1,3c-0.5-0.2-1.2-0.1-1.5,0.3c-0.3,0.3-1.1,0.5-1.6,0.3s-2.3,0.4-3.9,1.2c-2.3,1.1-2.9,1.6-2.6,2.2
			c0.4,0.6,0.9,0.6,3.3,0.1c1.5-0.3,3.9-0.7,5.3-0.8c2.3-0.2,2.6-0.1,3.5,1.3c0.6,0.8,1.3,1.5,1.7,1.5s0.7,0.3,0.7,0.5
			c0,0.3,0.3,0.5,0.7,0.5c0.8,0,1.1,0.8,1.7,5c0.4,2.6,0.3,4-0.2,6.4c-0.4,1.7-0.7,4.4-0.7,6s-0.2,3.8-0.5,4.8
			c-0.5,1.8-0.9,4-1.8,11.1c-0.8,6.4-2,10.4-2.9,9.8c-0.8-0.6-3.9,4.8-3.9,6.8c0,0.6-0.5,2.1-1.2,3.5c-0.6,1.3-1.5,3.3-1.9,4.3
			s-1.3,2.5-1.8,3.2c-0.9,1.3-1,1.6-0.4,3.3c0.5,1.8,1.4,2.5,1.5,1.3c0-0.4,0.2,0.1,0.4,0.9c0.3,1.6-0.7,5.4-2.7,10.3
			c-0.5,1.3-1.2,3-1.3,3.6c-0.5,1.7-3.4,7.1-4.3,8c-0.8,0.6-2.2,0.2-5.2-1.6c-1.2-0.7-2.3-0.6-2.3,0.2c0,0.3,0.9,1.6,1.9,2.7
			c1.1,1.2,1.9,2.4,1.9,2.8c0,0.4,0.2,0.7,0.5,0.7c0.8,0,0.5,1.6-0.6,3.9c-2.1,4.2-3.3,5.9-4.7,6.5c-0.8,0.3-1.4,1-1.4,1.5
			s-0.4,0.8-1.4,0.8c-0.8,0-1.6,0.4-2,0.8c-0.3,0.4-1,0.8-1.5,0.8c-1.2,0-6.1-2.9-7.4-4.3c-1.5-1.7-3-2.6-3.9-2.2
			c-0.4,0.2-0.6,0.5-0.5,0.7c0.1,0.3-0.1,0.8-0.5,1.3c-0.7,0.8-0.7,1,0.4,1.9c0.6,0.6,1.3,1,1.5,1.1c0.2,0,0.3,0.3,0.3,0.7
			c0,1,2.3,3.6,2.6,3c0.5-0.9,1.5-0.6,2.9,0.9c1.2,1.3,1.3,1.8,1.1,3.9c-0.1,1.5-0.6,2.9-1.3,3.7c-0.6,0.6-1.1,1.4-1.1,1.6
			c0,0.3-0.7,0.8-1.6,1.3c-1.6,0.8-3.7,3.8-3.7,5.2c0,1,0,1,1.7,0c0.8-0.4,1.7-0.8,2.2-0.8c0.4,0,1.1-0.4,1.4-0.8
			c0.4-0.4,1.3-1.1,2.2-1.5c1.2-0.5,1.6-1.1,1.9-2.5c0.1-1,0.7-2.2,1.3-2.7c0.5-0.5,1.6-2.2,2.5-3.7c1.4-2.6,3-4,4.5-4
			c0.8,0,1,1.9,0.3,2.2c-0.2,0.1-1.4,1.8-2.7,3.8c-1.3,2-3,4.1-3.8,4.8c-0.8,0.6-2.1,2.4-3,3.9c-0.9,1.4-2.7,3.8-4.2,5.2l-2.7,2.5
			l-1.5-1.2c-1.7-1.3-2.9-1.1-2.9,0.6c0,1-0.2,1.1-1.6,0.8c-1.1-0.2-1.9-0.1-2.5,0.5c-1.3,1-1.7,1-1.7,0c0-0.5,0.4-0.8,1.1-0.8
			c0.6,0,1.5-0.4,2-0.9c0.9-0.7,0.9-0.8,0.1-0.5c-0.5,0.2-1.6,0.3-2.4,0.3c-1.2,0-2.1,0.5-3.5,2.1c-1.1,1.1-2.5,2.2-3.1,2.3
			c-1,0.2-1,0.3,0.4,0.3c2.1,0.1,2,1.1-0.1,1.1c-2.3,0-4.1,1-4.1,2.3c0,0.5-0.4,1.1-1,1.3s-0.8,0.5-0.7,0.8c0.5,0.8-1.8,3.1-3,3.1
			c-0.6,0-1.1,0.2-1.1,0.5c0,0.7-1.3,1.2-3.7,1.4c-1.5,0.2-2.1,0.1-2.1-0.5c0-0.4-0.4-1.1-1-1.4c-0.9-0.7-0.9-0.9-0.3-2.7
			c0.3-1.2,1.6-3.1,2.7-4.3c3.5-3.8,5.7-6.7,5.7-7.8c0-0.5,0.2-1.1,0.5-1.3c0.6-0.4,0.6-1.3,0-1.3c-0.3,0-1,0.5-1.5,1.1
			s-1.3,1.1-1.6,1.1c-0.3,0-0.8,0.5-0.9,1.1s-0.6,1.1-1,1.1s-0.7,0.2-0.7,0.5c0,0.6-2.8,1.3-4.5,1.2c-1.7-0.2-4.1,0.9-4.1,1.8
			c0,0.4-0.2,0.7-0.5,0.7c-0.2,0-0.5-0.9-0.5-2c0-1.4,0.3-2.2,1-2.7c0.5-0.4,1-1.1,1-1.4c0-0.4,0.2-0.7,0.5-0.7c0.5,0,2.3-4,2.6-6
			c0.1-0.6,0.3-3,0.5-5.2c0.2-3,0.1-4.1-0.3-4.4c-0.9-0.6-2.4,1.6-2.4,3.7c0,0.9-0.5,2.8-1.2,4.2s-1.2,2.7-1.2,3.1
			c0,0.8-3,4.6-3.7,4.6c-0.3,0-0.7,0.9-0.9,2c-0.6,3.6-1.3,4.3-4.5,4.3c-2.5,0-2.8-0.2-3.3-1.3c-0.7-1.8-2.5-2.1-6-1.2
			c-2,0.5-3.4,0.6-4.4,0.3c-2.4-0.8-3.4-0.6-5.1,1.1c-0.9,0.9-1.8,1.6-2.1,1.6c-0.3,0-0.1,0.5,0.4,1.1s1.3,1.1,1.9,1.1
			c0.8,0,1.2,0.4,1.3,1.3c0.2,1-0.2,1.8-2.2,3.7c-1.5,1.6-2.2,2.6-1.9,3c0.5,0.6,2.7-0.2,3.3-1.1c0.1-0.3,0.7-0.6,1.2-0.6
			s1.7-0.4,2.6-0.9c1.4-0.7,1.7-1.2,1.7-2.6c0-1.2,0.3-1.9,1.2-2.5c1.5-1.1,4.4-1.1,4.8-0.1c0.1,0.4,0.5,0.8,0.9,0.8
			c0.6,0,1.2,0.8,2.4,3.9c0.3,0.8,1,1.4,1.4,1.4s0.9,0.3,0.9,0.5c0,0.3,0.4,0.5,1,0.5s1.3,0.6,1.7,1.3s1,1.2,1.2,1.1
			c0.2-0.2,0.5-0.1,0.7,0.2c0.1,0.3-0.4,1.1-1.2,1.7c-1.1,1-1.3,1.3-0.9,1.9c0.3,0.4,0.8,0.6,1.2,0.5c0.3-0.1,1,0.2,1.4,0.7
			c1.5,1.8,3.3,2.3,5,1.4c0.8-0.5,1.8-0.8,2.3-0.8c0.4,0,0.7-0.3,0.7-0.5c0-0.4,0.3-0.4,0.9-0.1c0.6,0.4,1.5,0.3,3-0.3
			c2.6-1,7.5-0.8,7.5,0.3c0,1-2.9,2.6-9.8,5.2c-2,0.8-4.1,1.7-4.8,2.1c-2.7,1.6-6.3,2.3-11.6,2.3c-3.4,0.1-5.9-0.2-6.5-0.6
			c-0.9-0.6-0.9-0.6,0.1-0.6c0.6,0,1.5-0.5,2-1.1s1.5-1.1,2.2-1.1c1.7,0,3.2-1,2.9-1.8c-0.1-0.4,0.1-1,0.5-1.3
			c0.4-0.4,0.7-1,0.7-1.4s0.3-0.7,0.7-0.7c0.4,0,0.7-0.3,0.7-0.6c0-0.4-0.7-0.5-2.5-0.2c-1.4,0.3-4.2,0.5-6.2,0.5s-4.5,0.2-5.6,0.5
			c-1.7,0.3-2,0.3-2.2-0.6c-0.2-0.7-0.2-0.7-0.3,0.3s-0.3,1.2-2,1.2c-1.6,0-2.3,0.4-3.6,1.8c-0.9,1-1.8,2.2-1.9,2.9
			c-0.4,1.3-1.9,2-2.9,1.3c-1.1-0.6-3.6-0.2-3.6,0.7c0,0.4-1,0.8-2.5,1c-1.4,0.2-3.5,0.5-4.7,0.6C247.2,433.6,246.1,433.6,246,433.5
			z M245.4,429.1c0.6-0.4,1.1-1,1.1-1.2c0-0.6-1.7-1.1-2.9-0.7c-1.5,0.4-1.2,2.5,0.5,2.7C244.2,429.9,244.8,429.6,245.4,429.1z
			 M204.1,419.4c0.3-1.9,2.7-6.3,3.4-6.3c0.2,0,0.4-0.6,0.4-1.4s0.5-2.1,1.2-3.1c1.4-2.1,1.5-2.4,0.3-2.4c-1.1,0-3.4,2.2-3.4,3.2
			c0,0.4-0.3,1.2-0.8,1.7c-0.9,1.1-1.7,2.5-2.8,5.2c-1.9,4.3-1.9,4.3-1.2,4.8C202.7,422,203.8,421.3,204.1,419.4z M218.1,403.5
			c0-1-1-2.6-1.6-2.6c-0.1,0-0.8,0.3-1.5,0.5l-1.3,0.6l1.2,1.3C216.2,404.9,218.1,405,218.1,403.5z M187.7,393c0-0.9-0.6-2.2-1-2.2
			c-0.2,0-0.5,0.6-0.6,1.3c-0.2,1,0,1.3,0.6,1.3C187.4,393.5,187.7,393.3,187.7,393z M195.2,385.3c0.5-2.2-0.8-3.3-2.1-1.6
			c-0.5,0.6-0.4,1,0.3,1.8C194.5,386.9,194.8,386.9,195.2,385.3z M206.5,385.1c0-1.7-0.5-2.7-1.5-2.7c-0.6,0-0.9,0.4-0.9,1.1
			c0,0.6,0.2,1.1,0.5,1.1s0.5,0.4,0.5,0.8s0.3,0.8,0.7,0.8C206.2,386.1,206.5,385.6,206.5,385.1z M322,378.5c0-1.1-0.8-1.9-1.7-1.9
			c-1.3,0-1.4,0.4-0.3,1.4C320.8,378.6,322,379,322,378.5z M270.8,375.8c1.1-0.9,0.9-1.1-1-1.6c-1.6-0.4-3.5,0.7-2.9,1.7
			C267.3,376.8,269.7,376.7,270.8,375.8z M221.9,375c0-0.3-0.3-0.7-0.7-0.8c-0.4-0.2-0.7-0.6-0.7-1c0-0.3-0.5-1.1-1.2-1.6
			s-1.2-1.5-1.2-2.2s-0.3-1.3-0.7-1.5c-0.8-0.3-1-3.2-0.2-3.8c0.9-0.6,0.5-1.8-0.7-2.4c-1.2-0.5-1.9-1.3-2-2.6
			c-0.1-0.6-1.7-2.9-2.6-3.8c-0.8-0.7-1.1-3.3-1-7.9c0.1-5.3,0.8-9,1.7-9c1.3,0,2.3-2,2-3.9c-0.2-1.1-0.5-2-0.7-2.2
			c-0.6-0.4-2,0.3-2,0.8c0,0.3-0.7,1.6-1.5,2.9c-1.1,1.6-2.1,2.5-3.4,2.9c-1,0.3-1.8,0.7-1.8,0.9c0,0.6,1.6,2.3,2.2,2.3
			c0.3,0,0.6,1.5,0.7,4.3c0,2.4,0.3,4.7,0.5,5.2c1,2.1,1.5,4.8,1.2,6.3c-0.2,1.3,0,1.9,1,3c0.7,0.7,1.3,1.5,1.3,1.6s0.9,1.3,1.9,2.4
			c1.1,1.2,1.9,2.6,1.9,3.1c0,0.4,0.4,1.1,1,1.5c0.5,0.4,1,1.1,1,1.6c0,0.6,0.8,1.7,1.8,2.6C221.3,375.6,221.9,375.8,221.9,375z
			 M278.6,372.6c0.6-0.7,0.4-1.8-0.3-1.8c-0.7,0-3.9,3.3-3.7,3.8C274.9,375,277.5,373.8,278.6,372.6z M326.9,360.6
			c0.3-0.3,1.4-1.1,2.5-1.7c1-0.6,1.8-1.3,1.8-1.7s0.2-0.7,0.5-0.7s0.5-0.5,0.5-1.1c0-1.3-0.1-1.3-3.2,0.3c-2.4,1.3-4,3.3-4,5
			C324.9,361.5,326.2,361.4,326.9,360.6z M337.9,359c0-1.2-1.6-2.5-3-2.5c-1.6,0-1.8,1.1-0.2,2.3C335.9,359.8,337.9,359.9,337.9,359
			z M336.4,354.8c-0.3-1-1.3-1.1-1.3-0.2c0,0.5,0.3,0.8,0.8,0.8S336.5,355.2,336.4,354.8z M336,343.6c0-0.7-0.6-1.8-1.5-2.7
			c-1.5-1.4-1.6-1.4-1.7-0.3c-0.2,1.4,0.7,3.3,1.6,3.3c0.4,0,0.7,0.4,0.7,0.8s0.2,0.6,0.5,0.5C335.8,345,336,344.3,336,343.6z
			 M316.7,344.4c0-0.3-0.2-0.7-0.5-0.9c-0.4-0.3-0.4-0.5,0-0.7c0.4-0.3,0.4-0.7,0.1-1.3c-0.4-0.8-0.5-0.8-1-0.2
			c-0.4,0.5-0.4,1.1,0,2.1C316,344.8,316.7,345.4,316.7,344.4z M228.1,339.6c0.6-0.6,1.1-1.5,1.1-2.1c0-2-2.5-1.7-4.4,0.5
			c-0.7,0.8-0.7,1,0,1.8C225.8,341,226.8,340.9,228.1,339.6z M365.3,338c0-0.3-0.3-0.5-0.7-0.5c-0.4,0-0.7,0.3-0.7,0.5
			c0,0.3,0.3,0.5,0.7,0.5C365,338.6,365.3,338.3,365.3,338z M297.9,335.6c0.9-1,1.5-2.1,1.5-2.3c0-0.2,0.3-0.7,0.7-1.1
			c1-0.9,3.6-7,3.6-8.4c0-0.6,0.2-1.1,0.4-1.1c1.2,0,2.2-10.2,1.4-14.5c-0.8-4.6-3.3-10-5.6-12.2c-1.1-1-2.1-2.3-2.3-2.9
			c-0.2-0.6-0.7-1.1-1.3-1.1c-0.5,0-0.9-0.2-0.9-0.5s-1.1-1-2.4-1.6s-2.6-1.4-2.7-1.6c-0.1-0.3-0.9-0.5-1.7-0.5
			c-0.8,0-2.9-0.3-4.7-0.6c-1.9-0.4-3.9-0.4-4.7-0.2c-1.1,0.3-1.2,0.5-0.6,0.6c0.6,0.2,0.8,0.6,0.7,1.4c-0.1,0.9-0.6,1.2-2,1.5
			c-1.7,0.3-2,0.2-4-2c-1.2-1.3-2.5-2.3-2.8-2.3s-0.9-0.4-1.1-1c-0.7-1.4-4.2-4-4.8-3.5c-0.3,0.2-0.5,0.7-0.5,1.1s-0.1,0.7-0.2,0.7
			c-0.4,0-2.2-2.1-2.2-2.5c0-0.7-4.2-2.9-5-2.6c-0.6,0.3-0.5,0.7,0.7,2.9c0.8,1.4,1.4,2.9,1.4,3.4s0.3,1.2,0.7,1.5s0.7,1.1,0.7,1.7
			s1.8,3.1,4.5,6c4.3,4.7,8,9.3,8,9.9c0,0.2,0.5,0.9,1.2,1.7c0.6,0.7,1.7,2.5,2.3,3.9c0.7,1.3,2.7,5.8,4.7,9.8
			c5.3,11.3,5.3,11.4,5.8,11.4c0.2,0,0.6,0.5,0.8,1.1c0.2,0.6,1.3,2.1,2.3,3.4c1.7,2,2.2,2.3,4.1,2.3
			C296.1,337.5,296.6,337.3,297.9,335.6z M251.2,333.8c0.2-0.9,0.4-2,0.2-2.4c-0.1-0.4,0.2-2,0.9-3.5c0.7-1.5,1.6-4.1,2-5.7
			c0.5-1.8,1.3-3.3,2-4l1.3-1.1l-1.4-1.9c-0.8-1.1-1.8-2-2.2-2c-0.5,0-1.4-1-2.1-2.1c-0.7-1.2-1.8-2.4-2.6-2.7
			c-1.7-0.7-6-0.2-8.2,1.1c-1,0.6-2.4,1.1-3.1,1.1c-0.8,0-1.3,0.2-1.3,0.4c0,0.6,1.5,2.3,2.1,2.3c0.3,0.1,1.4,1,2.6,2.1
			c1.9,1.8,2.1,2.2,2.2,5.1c0.1,1.7,0.4,3.5,0.6,4.1c0.2,0.5,0.2,1.1,0.1,1.2s0,1.1,0.2,2.1c0.4,1.4,0.3,2.1-0.3,3.2
			c-1,1.6-0.2,3.1,1.4,2.6c0.6-0.2,1.6,0.2,2.5,0.7C250.2,335.7,250.6,335.6,251.2,333.8z M198.2,317.9c0.9-0.5,1.9-1.3,2.3-1.6
			c1.2-1,4.7-4.5,5.5-5.4c0.4-0.4,1.3-1.4,2.2-2.2c3.7-3.8,3.6-3.8,3.6-6.2c0-3.1-0.7-3.1-3.7,0c-1.3,1.3-2.4,2.4-2.6,2.4
			s-0.4,0.5-0.6,1c-0.1,0.6-0.9,1.4-1.8,1.9c-1.4,0.8-1.6,0.8-2.3,0.1c-0.6-0.7-0.6-0.9,0.1-1.9c0.5-0.6,1.1-1.1,1.3-1.1
			c0.2,0,0.7-0.3,1-0.7c0.3-0.4,1.2-1.4,1.9-2.3l1.3-1.6l-1.2-1.6c-0.7-0.8-1.3-1.8-1.3-2.2c0-0.3-0.3-0.6-0.7-0.6
			c-0.4,0-0.7-0.5-0.7-1.3s0.3-1.3,0.7-1.3c0.9,0,1.5-1,1-1.6c-0.2-0.2-1.9-0.6-3.6-0.8c-3-0.3-3.3-0.3-4.5,1.1
			c-1.3,1.5-3.7,6.6-3.7,8.1c0,0.5-0.3,2.5-0.8,4.4c-0.7,3.1-0.7,4-0.2,6.3c0.3,1.5,0.6,3,0.5,3.3c-0.2,0.9,0.6,3.1,1.6,4.4
			C194.8,319.6,195.5,319.6,198.2,317.9z M139.8,305c0.6,0.3,0.7,0.1,0.5-0.8c-0.4-1.5-1.8-1.1-2,0.5c-0.1,0.9,0,1.1,0.3,0.6
			C138.8,305,139.3,304.9,139.8,305z M127.6,301.6c-0.4-0.3-0.5-0.7-0.3-1.2c0.3-0.5,0.2-0.6-0.1-0.2c-0.3,0.3-0.4,1.1-0.2,1.7
			c0.2,0.9,0.4,1.1,0.8,0.6S128.1,301.9,127.6,301.6z M154,300.5c0-1-1.2-1.8-2-1.3c-1.1,0.7,0.1,3,1.3,2.5
			C153.8,301.6,154,301.1,154,300.5z M209.3,297.5c0.5-1.1,0.4-1.2-0.7-1.2s-1.2,0.2-1.2,1.9c0,1.6,0.1,1.7,0.6,1.2
			C208.5,299,209,298.1,209.3,297.5z M226,289.3c0.2-0.5,0.4-1,0.2-1.2c-0.4-0.5-2.8,1-2.8,1.7C223.4,290.9,225.3,290.4,226,289.3z
			 M206.3,288.1c2.2-1.6,1.3-2.6-1.4-1.7c-2.1,0.6-3.3,1.8-2.8,2.6C202.4,289.7,204.7,289.2,206.3,288.1z M277.1,286.4
			c-0.2-0.9-0.2-0.9-0.6,0c-0.2,0.5-0.2,1.3,0,1.8c0.4,0.8,0.4,0.8,0.6,0C277.3,287.7,277.3,286.9,277.1,286.4z M321.8,287.9
			c0.5-0.9-0.5-1.1-1.5-0.3c-0.9,0.7-0.9,0.7,0.1,0.8C321,288.4,321.6,288.2,321.8,287.9z M239,283.7c1.3-0.3,4-0.4,6-0.2
			c2.9,0.2,3.8,0.2,4.2-0.5c0.5-0.7,0.5-1.1,0-2.3c-0.4-0.8-0.8-2.6-1-4.1c-0.2-2.2-0.1-2.7,0.9-3.9c1.4-1.5,1.4-1.7,0.3-1.8
			c-0.8-0.1-0.8-0.1,0-0.3c2.1-0.6,2.3-8.2,0.3-15.5c-0.4-1.4-0.3-2.2,0.1-3.1c0.3-0.6,0.7-2.9,0.8-5c0.1-2.1,0.4-5.5,0.7-7.7
			c0.3-2.2,0.4-4.4,0.2-5c-0.1-0.6,0-1.2,0.2-1.4c0.3-0.2,0.6-1.3,0.7-2.5s0.7-2.9,1.3-3.6c1.3-1.8,1.3-3,0.1-4.5
			c-0.7-1-1-1.1-1.6-0.6c-0.4,0.4-0.6,1.2-0.5,2c0.1,0.7-0.1,2.4-0.5,3.8s-0.8,3.1-0.8,3.7c0,0.7-0.4,1.5-1,1.8
			c-0.6,0.4-1,1.1-1,2.2c0,0.8-0.3,2.1-0.8,2.9c-0.5,0.9-0.7,1.9-0.4,3.6c0.2,1.5,0.1,2.5-0.2,2.7c-0.3,0.2-0.5,2.4-0.5,6.2
			c0,3.3-0.1,6.7-0.4,7.6c-0.3,1.1-0.3,1.8,0,2c0.9,0.6,0.4,1.9-0.6,1.8c-1.8-0.2-2.6,0.5-3.6,3.1c-0.9,2.5-2,4.5-3.9,7
			c-0.5,0.7-1.3,2.7-1.6,4.3c-0.3,1.6-0.9,3.1-1.2,3.3c-0.3,0.1-0.1,0.3,0.5,0.3c1.7,0.1,1.7,0.9-0.1,2.4c-2,1.7-2.2,2.6-0.3,2.3
			C236,284.3,237.7,283.9,239,283.7z M358.4,282.3c0-0.8-0.6-1.2-3.4-2c-1.8-0.5-4.6-1.2-6-1.4l-2.6-0.4l1.5-0.9
			c0.9-0.5,2.1-0.9,2.7-0.9c1.5,0,2.3-1.4,1.6-2.7c-0.4-0.7-0.3-1.2,0.3-1.9c0.7-1,0.7-1-0.1-1.6c-0.5-0.4-1.2-0.6-1.5-0.6
			c-0.6,0-4.3,4.1-4.3,4.8c0,0.3-0.5,0.5-1.1,0.5s-1.4,0.3-1.7,0.7c-0.5,0.5-0.7,0.5-0.9,0c-0.1-0.4-0.8-0.7-1.4-0.7
			s-1.2-0.2-1.2-0.5s-0.3-0.5-0.7-0.5c-0.4,0-0.7-0.2-0.7-0.5s-0.3-0.5-0.8-0.5c-0.6,0-0.7,0.4-0.6,1.3c0.2,0.8,0,1.3-0.4,1.3
			c-1.1,0-2.1-0.6-1.8-1.2c0.1-0.3-0.3-1.2-1-2l-1.3-1.5l1-1.1c0.6-0.6,1-1.4,1-1.8s0.3-1,0.6-1.3c0.5-0.5,0.5-0.8-0.1-1.2
			c-1.2-0.8-2.7-0.6-3.1,0.4c-0.1,0.5-0.6,1.5-1,2.2c-1,1.8-0.9,3.6,0.5,6.6c1.9,4.3,2.3,4.6,5.8,5.1c1.8,0.2,3.5,0.6,3.8,1
			c0.3,0.3,2.4,0.8,4.6,1.1c2.2,0.3,4.8,0.8,5.7,1c0.9,0.3,2.8,0.4,4.1,0.4C358,283.4,358.4,283.2,358.4,282.3z M222.4,281.2
			c0-0.4-0.3-0.8-0.7-0.8c-0.8,0-1.3,0.7-0.9,1.3C221.4,282.4,222.4,282,222.4,281.2z M260.9,275.6c0-0.3-0.3-0.4-0.7-0.4
			c-0.8,0-0.9,0.1-0.4,1.3c0.2,0.7,0.4,0.7,0.7,0.2C260.7,276.3,260.9,275.8,260.9,275.6z M166.6,275.2c0-1.1-1.3-3.1-2.2-3.6
			c-0.9-0.4-1.2-0.3-1.8,0.5c-1,1.2-1,2-0.1,2c0.4,0,1.2,0.4,1.8,1C165.3,276,166.6,276.1,166.6,275.2z M174.3,273.3
			c0-0.8-0.8-1-2.1-0.5c-1.3,0.5-0.9,1.3,0.7,1.3C173.8,274.1,174.3,273.9,174.3,273.3z M359.8,268.3c0.1-0.3-0.1-0.5-0.7-0.5
			s-1,0.3-1,0.5c0,0.3,0.3,0.5,0.7,0.5S359.7,268.6,359.8,268.3z M362,267.2c0-0.3-0.3-0.5-0.7-0.5c-0.4,0-0.7,0.3-0.7,0.5
			c0,0.3,0.3,0.5,0.7,0.5C361.6,267.8,362,267.6,362,267.2z M338,261.7c0.8-1.9,0.5-2.2-1.1-1.3c-1,0.6-1.3,3.2-0.3,3.2
			C336.9,263.6,337.6,262.7,338,261.7z M186.3,261.6c0.5-0.7,0.4-1.2-0.5-3.1c-0.6-1.3-1.9-3.2-2.9-4.3c-1-1.1-1.9-2.4-2.1-2.9
			c-0.1-0.5-1.2-1.5-2.3-2.3c-1.1-0.7-2.4-2.1-3-3.1c-3.1-5.2-5.1-2.4-2.5,3.3c1.1,2.4,1.4,2.7,2.7,2.7c1.2,0,2.1,0.6,3.8,2.3
			c1.3,1.2,2.5,2.8,2.8,3.5c0.9,2,2.6,4.8,2.9,4.8C185.6,262.5,186,262.1,186.3,261.6z M329.7,257.1c0.5-0.6,1-1,1-0.7
			c0,0.2,0.4,0,0.9-0.5c0.5-0.5,1.1-0.8,1.3-0.7c0.2,0.2,0.8-0.7,1.3-1.9c0.5-1.2,1.1-2.3,1.3-2.5c0.4-0.4,3.8-8.3,3.8-8.9
			c0-0.3,0.7-1.7,1.4-3.2c1.3-2.5,1.8-4.2,1.2-4.2c-0.2,0-2.1,2.1-3.5,3.9c-0.7,1-2.9,1.7-3.4,1.2c-0.1-0.2,0-0.8,0.2-1.3
			c0.3-0.6,0.4-1.2,0.1-1.7c-0.4-0.6-0.6-0.5-1.3,0.4c-1.3,1.8-2.7,4.1-2.8,4.4c-0.1,1.7-1.1,4.6-2.2,7.2c-2,4.7-2.5,9.7-1,9.7
			C328.5,258.3,329.1,257.7,329.7,257.1z M368.7,235.3c1.2-1.6-3.1-4.1-4.4-2.6c-0.5,0.5,2.3,3.1,3.6,3.3
			C368,236.1,368.4,235.8,368.7,235.3z M166.2,232.9c-0.2-3.4,0-7,0.4-7.9c0.3-0.6,0.2-1.1-0.1-1.5c-0.4-0.4-1.1-0.1-2.7,1.7
			c-1.2,1.3-2.9,2.6-3.9,3.1c-1.8,0.7-3.5,2.3-3,2.8c0.1,0.2,1.3,0.3,2.5,0.3c1.9,0,2.6,0.3,4.1,1.8c1,1,2.1,1.7,2.4,1.6
			C166.1,234.7,166.3,233.9,166.2,232.9z M246.3,228.9c0.3-1-2.1-7.4-3-7.8s-0.9,1.2,0,2.5c0.4,0.6,0.7,1.9,0.7,3
			C244.1,229.2,245.6,230.9,246.3,228.9z M329.9,229c1.2-1,0.4-1.4-1.3-0.6c-1,0.4-1.2,0.7-0.7,1C328.8,229.8,328.9,229.8,329.9,229
			z M331.9,224.6c2.9-3.1,4.1-5,3.5-5.4c-1.9-1.3-4.6,0.7-5.2,4C329.7,225.7,330.3,226.3,331.9,224.6z M171.9,219.8
			c0-0.8-1.4-4.2-2.2-5.2c-0.4-0.5-1.4-2.1-2.3-3.5c-1.8-3.1-2.5-3.4-3.2-2c-0.6,1.2-0.1,3.2,1.5,5.4c0.6,0.8,1.6,2.4,2.3,3.6
			c0.9,1.7,1.4,2.2,2.5,2.2C171.2,220.2,171.9,220,171.9,219.8z M258.8,217.8c1.2-2,1.2-9.1,0-12c-1-2.5-2.1-6.9-2.7-10.7
			c-0.6-4.4,0.4-9.7,2.8-14c3.1-5.7,7.3-11,9.1-11.7c0.6-0.2,2-1.2,3.3-2.2c1.3-1.1,3-2.1,3.9-2.4c1-0.3,1.8-0.7,2-0.9
			c0.1-0.2,0.7-0.6,1.2-0.9s1.6-1.8,2.3-3.4c1.1-2.3,1.3-3.3,1.1-5.2c-0.3-3.4-1.1-5.2-2.5-5.9c-1.2-0.6-1.4-0.5-3.3,1.7
			c-1.1,1.3-2.5,3.2-3.2,4.1c-0.7,1-2,2.7-3.1,4c-1,1.2-2,2.7-2.3,3.3c-0.2,0.7-1,1.5-1.6,1.8c-0.7,0.3-1.2,1-1.2,1.5
			s-0.7,1.6-1.5,2.5c-0.9,0.9-1.8,2-2.1,2.3c-0.3,0.4-1.7,1.8-3.2,3.3c-5.1,4.9-9,9.2-8.4,9.6c0.3,0.2,0.4,1.1,0.2,2.1
			c-0.1,1-0.1,1.8,0.2,1.8c0.2,0,0,0.5-0.5,1c-1,1.1-1.3,3-1.7,10.2c-0.2,3.6-0.1,4.8,0.5,5.4c1,1.1,2.1,4.9,2.1,7
			c0,1,0.2,1.9,0.5,2.1s0.5,0.9,0.5,1.5c0,1.5,1.3,2.7,2.5,2.5c0.5-0.1,1.4,0.5,2.1,1.4C257.4,219.6,257.8,219.6,258.8,217.8z
			 M241.5,210.3c0-2.4,0.3-4.9,0.6-5.4c0.3-0.6,0.4-1.5,0.3-2.1c-0.1-0.5,0-1.1,0.3-1.2c0.4-0.1,0.5-2.6,0.5-7.6
			c0-8.9-0.4-12.7-1.3-13.9c-0.4-0.5-0.8-1.4-0.8-2.1c0-1.2-8.7-11.4-10.1-11.9c-0.4-0.2-1-0.8-1.2-1.4c-0.3-0.6-0.9-1.4-1.4-1.7
			c-0.5-0.3-1.3-1.2-1.9-1.9c-0.9-1.1-4.4-5.3-7.3-8.6c-1.5-1.7-3.6-0.6-3.6,1.8c0,1.5,2,4.1,3.1,4.1c0.4,0,0.7,0.2,0.7,0.4
			c0,0.2,0.8,0.8,1.8,1.4c1,0.5,2.9,1.9,4.2,3c1.3,1.1,2.6,2,2.8,2c0.7,0,5.6,6,7.2,8.7c2.8,4.9,3.8,8.8,3.8,15.1
			c0,4-0.2,6.4-0.9,8.7c-0.6,2.1-0.9,4.7-1,7.7c0,3.9,0.1,4.8,1.1,6.2c0.6,0.9,0.9,2,0.8,2.5s-0.2,1.2,0,1.6
			c0.2,0.7,0.4,0.7,1.1-0.1C241.2,214.9,241.5,213.7,241.5,210.3z M326,214.7c0.7-1.2,0.7-1.3-0.2-2.3c-0.8-1-1.3-1.1-3.4-0.8
			c-3.1,0.3-3.9,0.9-0.8,0.7l2.2-0.2l-0.3,2c-0.3,1.8-0.2,2,0.7,2C324.8,216,325.6,215.5,326,214.7z M327.3,201.3
			c0.1-0.2,0.9-0.7,1.7-1.1c1.5-0.9,2.3-2.6,1.1-2.6c-0.4,0-1.2,0.5-1.7,1c-0.6,0.6-1.9,1.2-3,1.4c-1.4,0.3-1.9,0.6-1.9,1.4
			c0,1,0.2,1,1.8,0.7C326.3,201.8,327.2,201.4,327.3,201.3z M349,199.1c1.6-1.8,1.7-2.3,0.7-2.8c-1-0.4-3.7,2.6-3.3,3.6
			C346.8,201.1,347.5,200.9,349,199.1z M174.6,196.9c-0.2-0.8-2.3-1.3-2.3-0.5c0,0.6,0.8,1.1,1.8,1.1
			C174.6,197.5,174.7,197.2,174.6,196.9z M323.5,183.7c0-2,0.2-2.4,1.6-3.3c0.8-0.6,1.6-1.4,1.7-1.9c0.2-1.3-3.7-6.2-5.3-6.5
			c-1.6-0.4-2.5,0.1-1.3,0.8c1.2,0.7,3.4,3.1,3.4,3.6c0,0.7-1.6,1.2-2.6,0.8c-1.2-0.5-2.2,0.7-2.5,3c-0.2,1.1-0.6,2.1-1,2.3
			c-0.4,0.2-0.7,0.7-0.7,1.2c0,0.6,0.2,0.7,0.9,0.5c2.2-1.1,3.4-0.9,4.2,0.5C323,186.5,323.5,186.2,323.5,183.7z M315.8,184.5
			c0-0.5-0.2-0.7-0.6-0.6c-0.9,0.3-1,1.5-0.2,1.5C315.4,185.4,315.8,185,315.8,184.5z M177.9,182.1c0.3-0.3,0.3-0.6-0.1-0.7
			c-0.4-0.2-1.4-1-2.3-1.8c-1.9-1.8-3.9-2-5.4-0.5c-1.6,1.7-1.4,2,2.3,3.5C173.7,183.2,177.2,182.8,177.9,182.1z M317.9,166.3
			c-0.4-0.7-2-1.3-4.8-1.7l-2.4-0.4l1.4,1.3c1.1,1,2,1.3,3.8,1.4C317.4,166.9,318.1,166.7,317.9,166.3z M176,164.2
			c0.4-0.8-0.6-1.7-1.5-1.3c-0.7,0.3-0.7,0.5-0.2,1.1C175,164.9,175.5,165,176,164.2z M173.8,157.7c0.3-0.7,0.3-1.6,0-2.6
			c-0.3-0.8-0.5-2.2-0.5-3.2c0-1.8-0.7-3-1.9-3c-1.5,0-4.3,1.9-5.5,3.6c-2.2,3.3-0.2,3.2,2.1-0.1c1.1-1.5,1.3-1.5,3.9,0.8
			c1.4,1.3,1.5,1.6,1,2.6c-0.4,0.7-0.5,1.7-0.2,3.3c0.3,1.7,0.4,1.9,0.5,0.8C173.3,159.3,173.5,158.2,173.8,157.7z M247.7,148.7
			c0.4-0.4,0.9-2,1.2-3.4c0.5-2.2,0.4-2.7-0.3-4c-1-1.6-1.7-1.7-3.4-0.6c-1.1,0.8-1.1,1-0.5,2.5c0.3,1,0.9,2.7,1.2,4
			C246.6,149.7,246.7,149.8,247.7,148.7z M155.2,138.1c0.5-0.4,1.3-0.8,1.8-0.8c1.1,0,1.2-2.4,0.1-2.9c-1.6-0.7-3.1-0.4-3.1,0.7
			c0,0.7-0.5,1.2-1.8,1.7c-1.6,0.6-1.7,0.7-0.9,1.3C152.6,139.1,154,139.1,155.2,138.1z M250.7,131.9c2.2-3.7,2.3-3.9,3.6-3.1
			c0.7,0.4,1.5,0.5,1.9,0.4c1.4-0.6,0.8-1.8-1.3-3c-1.2-0.6-2.7-2-3.5-3.1c-0.7-1.1-1.9-2.5-2.6-3.2c-0.8-0.7-1.3-1.7-1.3-2.2
			c0-1.3-0.9-1.9-3-2.3c-1.3-0.2-2-0.1-2.5,0.5c-0.6,0.6-0.6,1.1,0.3,3.1c0.9,2.1,1.3,2.4,2.6,2.4c2,0,3.1,2.5,3.1,7.3
			C247.9,133.7,249,134.9,250.7,131.9z M196.1,85.2c-0.3-0.2-0.6-0.6-0.6-1c0-0.5-0.5-0.7-1.3-0.7c-1,0-1.2,0.2-0.8,0.6
			c0.8,0.8,2.7,1.9,3,1.6C196.5,85.5,196.4,85.3,196.1,85.2z M281.6,84.2c-0.6-0.8-1.4-0.6-1.4,0.3c0,0.3,0.5,0.5,1,0.5
			C282,85,282.1,84.9,281.6,84.2z"/>
		<path class="st2" d="M263.9,285.2c0.1-0.3,0.4-0.5,0.6-0.5s0.5,0.2,0.6,0.5s-0.2,0.6-0.6,0.6S263.8,285.5,263.9,285.2z"/>
		<path class="st2" d="M242,274c-0.3-1.1,1-2.9,1.6-2.2c0.3,0.3,0.4,1,0.3,1.5C243.8,274.5,242.4,275,242,274z"/>
		<path class="st2" d="M355.2,373c0-0.3,0.1-0.7,0.4-0.8c0.2-0.1,0.7-1,1.1-2c2.8-6.6,4.1-9.4,5.1-10.7c0.6-0.8,1.3-2.1,1.4-2.8
			s0.4-1.3,0.6-1.3c0.1,0,0.7-0.9,1.3-2c0.5-1.1,1.1-2.1,1.2-2.3c0.7-0.7,2.9-6.4,2.9-7.4c0-1.8,5.2-19.6,6.1-20.7
			c0.4-0.5,1-0.8,1.3-0.6c0.8,0.5,0,4.6-2,9.2c-1,2.5-2.2,5.9-2.5,7.6s-1.2,4.4-1.9,6c-0.7,1.6-1.8,4.4-2.3,6.2
			c-0.9,2.9-2.4,7-3.4,9C362.6,364.5,355.3,374.4,355.2,373z"/>
		<path class="st2" d="M141.7,364.8c-1.5-1.8-5-7.6-6.8-11.5c-4.2-8.6-5.2-11.1-5.6-12.6c-0.6-2.9,0.4-2,3.9,3.6
			c0.9,1.4,1.6,2.7,1.6,2.9s0.6,1,1.4,2c0.8,1,1.9,3.1,2.5,4.8s1.3,3.2,1.4,3.4c0.2,0.2,0.4,0.7,0.4,1.3s0.5,2.4,1.2,4
			C143.2,366,143.1,366.6,141.7,364.8z"/>
		<path class="st2" d="M127.4,336.3c-0.5-1.2-1.3-3.2-1.8-4.4c-0.5-1.2-0.9-2.9-0.9-3.8s-0.4-2.5-0.9-3.6c-1.1-2.3-1.5-5.1-0.8-5.4
			c0.2-0.1,1.1,1,1.8,2.4c1.1,2,1.3,2.7,0.9,3.4c-0.3,0.7-0.3,1.1,0.2,1.6c1.1,1,1.6,2.2,2.4,6.1c0.4,2,0.8,4.1,1,4.8
			C129.8,339.5,128.3,338.7,127.4,336.3z"/>
		<path class="st2" d="M368,330.2c-0.2-0.3-0.1-1,0.1-1.5c0.4-0.9,0.5-0.9,0.8,0C369.4,329.8,368.5,331.1,368,330.2z"/>
		<path class="st2" d="M119.1,298.6c0.1-1.4-0.1-2.3-0.4-2.3c-0.8,0-1.5-3.3-1.9-8.3c-0.2-3.1-0.1-4.4,0.2-4.4s0.5,0.9,0.5,2.1
			s0.2,2.1,0.4,2.1c0.6,0,1.5,3.3,1.5,5.4c0,1.1,0.3,2.3,0.7,2.7c0.7,0.7,0.5,2.4-0.2,2.4c-0.2,0-0.5,0.5-0.7,1.2
			C119.1,300.3,119,299.8,119.1,298.6z"/>
		<path class="st2" d="M107.8,288.7c0-0.8-0.1-1.4-0.4-1.4c-0.4,0-1.4-5.1-2-10c-0.2-1.6-0.6-3.5-0.9-4.2
			c-0.5-1.3-1.6-13.7-1.2-14.3c0.1-0.2,0.3-2.7,0.4-5.5c0.1-2.9,0.5-5.4,0.7-5.7c0.3-0.3,0.5-1.3,0.5-2.1c0-0.9,0.2-2,0.5-2.4
			c0.8-1.3,1.5,0.4,1.2,2.6c-0.9,6-1.3,12-1.1,17.1c0.3,8.9,1.3,17.8,2,19.6c0.7,1.7,1.1,6.8,0.6,7.4
			C108,290,107.8,289.5,107.8,288.7z"/>
		<path class="st2" d="M381.9,263.4c-0.6-3.8-0.7-7.3-0.3-7c1,0.6,2,9.2,1,9.2C382.5,265.7,382.1,264.7,381.9,263.4z"/>
		<path class="st2" d="M390.7,259.5c-0.3-3.2,0.3-5.5,1.5-5.5c0.5,0,0.6,0.5,0.4,2c-0.1,1.1-0.4,3-0.6,4.2
			C391.6,263.3,391,263.1,390.7,259.5z"/>
		<path class="st2" d="M141.7,245.8c0.4-0.1,0.8-0.7,0.8-1.2c0-0.8-0.6-1-5.5-1.2c-3.5-0.2-6-0.6-6.8-1.1s-2.3-1.3-3.4-2
			c-1.1-0.6-2.7-1.1-3.6-1.1c-1.4-0.1-1.5-0.1-0.8-0.7c1-0.8,1.1-1.4,0.1-1.4c-0.9,0-0.9-0.5,0-2.1c0.6-0.9,0.7-1.9,0.5-4
			c-0.2-2.3-0.1-3,0.7-4.1c0.5-0.7,1-1.5,1-1.7c0-0.5,1.5-1.8,2.1-1.8c0.2,0,0.3,0.5,0.3,1.1c0,1.3,0.3,1.3,2.6,0
			c1.9-1.2,1.8-1.2,4.2,1.1c0.5,0.4,0.9,1.2,0.9,1.7c0,0.6,0.2,0.8,0.7,0.6c0.7-0.3,6.7,6,9,9.5c1.3,1.8,1.3,2.1,0.7,3.1
			c-1,1.5-0.9,2,0.2,2c0.5,0,1,0.4,1,0.8s-0.4,0.8-1,0.8s-1.3,0.5-1.8,1.1s-1.3,1-1.8,1C141,246,141,246,141.7,245.8z"/>
		<path class="st2" d="M103.6,239.8c0-1,0.1-1.4,0.2-0.9c0.1,0.5,0.1,1.3,0,1.8C103.7,241.2,103.6,240.8,103.6,239.8z"/>
		<path class="st2" d="M104.5,235.6c-0.5-1.3-0.5-2,0-3c0.3-0.7,0.5-1.9,0.5-2.6s0.2-1.3,0.4-1.3c0.4,0,0.4,7.7,0,8.2
			C105.2,237,104.8,236.5,104.5,235.6z"/>
		<path class="st2" d="M108,234.2c0-2,0.2-3,0.7-3.2c0.6-0.2,0.6,0.1,0.4,1.4c-0.1,0.9-0.3,2.3-0.3,3.2s-0.2,1.5-0.4,1.5
			S108,235.8,108,234.2z"/>
		<path class="st2" d="M119.1,234.8c0.5-2.2,1.3-3,1.3-1.2c0,0.7-0.3,1.7-0.8,2.1C118.8,236.3,118.8,236.2,119.1,234.8z"/>
		<path class="st2" d="M107.8,224.6c0-1.2-0.2-1.7-0.7-1.7c-0.4,0-0.7-0.2-0.7-0.5s-0.1-0.8-0.3-1.3c-0.4-1.2,1.1-1.1,1.5,0.1
			c0.9,2.3,1.1,3.7,0.7,4.4C108,226.1,107.8,225.8,107.8,224.6z"/>
		<path class="st2" d="M381.9,224.3c0.5-0.4,1.2-0.6,1.4-0.4c0.2,0.2,0,0.5-0.5,0.7C381.4,225.2,381,225,381.9,224.3z"/>
		<path class="st2" d="M380.9,221.8c-0.3-0.7-0.8-2.9-1.1-4.8c-0.3-2-0.7-4.3-0.8-5.2c-0.4-2.1,0.3-2,1.3,0.2
			c1.1,2.3,1.3,3.8,0.8,4.8c-0.3,0.6-0.2,1.5,0.1,2.7C381.9,221.8,381.7,223.6,380.9,221.8z"/>
		<path class="st2" d="M110.8,221.2c0-0.5-0.3-1-0.6-1c-0.2,0-0.3-0.3-0.1-0.6c0.4-0.8,1.3,0.8,1,1.8
			C110.9,221.8,110.8,221.7,110.8,221.2z"/>
		<path class="st2" d="M384.6,219.1c0-3-1.3-9.7-1.9-10.7c-0.4-0.5,0.3-5.3,0.7-4.9c0.1,0.1,0.5,2,1,4.2c0.4,2.2,0.9,4.4,1.2,5
			c1.5,3.8,1.5,3.9,0.6,6c-0.5,1.1-1,2.3-1.2,2.7C384.8,221.7,384.6,220.7,384.6,219.1z"/>
		<path class="st2" d="M112.5,210.4c0.5-2.1,0.7-2.2,0.7-0.3c0,1-0.2,1.7-0.5,1.7C112.4,211.8,112.3,211.2,112.5,210.4z"/>
		<path class="st2" d="M108.3,209.8c0-0.3,0.3-1.4,0.7-2.3l0.8-1.8l-0.3,1.8C109.2,209.4,108.3,211.1,108.3,209.8z"/>
		<path class="st2" d="M113.1,206.8c0-0.4,0.2-1,0.5-1.1c0.3-0.2,0.5,0.2,0.5,0.7c0,0.6-0.2,1.1-0.5,1.1
			C113.4,207.6,113.1,207.2,113.1,206.8z"/>
		<path class="st2" d="M376.7,202.6c-0.2-0.5-0.2-1.1-0.1-1.3c0.4-0.5,0.8,0.3,0.6,1.3C377.1,203.6,377.1,203.6,376.7,202.6z"/>
		<path class="st2" d="M110.3,200.7c0-1.4,0.7-3.1,1.2-2.5c0.1,0.2,0,1.1-0.4,2.1C110.4,201.9,110.3,201.9,110.3,200.7z"/>
		<path class="st2" d="M381.9,201.2c-0.1-0.3-0.4-1.7-0.6-3.3c-0.1-1.5-0.4-2.9-0.6-3.1c-0.4-0.4-1.9-4.6-1.9-5.5
			c0-0.4,0.2-0.8,0.5-0.8c0.5,0,2.4,6.4,2.4,8.2c0,0.7,0.3,1.4,0.7,1.6c0.4,0.2,0.7,0.9,0.7,1.5
			C383.1,201.3,382.4,202.1,381.9,201.2z"/>
		<path class="st2" d="M372.6,195.8c-0.7-2.2-1.9-5-2.7-6.9c-0.3-0.8-1.2-3.1-1.9-5c-0.7-2-1.5-4-2-4.5c-1.3-1.5-2.1-6.5-2.8-16.8
			c-0.1-2.2-0.5-4.2-0.7-4.4c-0.6-0.7-0.5-1.4,0.2-1.4c0.3,0,0.9,0.9,1.3,2c0.9,2.6,1.4,10.9,0.8,12c-0.3,0.6-0.3,1,0.2,1.4
			c0.4,0.3,0.8,1,0.8,1.5c0.1,1.4,1.2,4.3,1.6,4.3c0.2,0,0.5,0.7,0.6,1.5s0.6,1.9,1.1,2.3c0.4,0.5,0.7,1.2,0.7,1.6s0.6,2.1,1.4,3.9
			c0.8,1.7,1.5,4.1,1.7,5.4c0.2,1.2,0.5,2.2,0.7,2.2s0.6,0.6,0.9,1.3c0.5,1.2,0.4,1.3-0.3,1.3C373.5,197.5,372.9,196.9,372.6,195.8z
			"/>
		<path class="st2" d="M112.8,190.5c0.4-2.8,1.3-5.2,1.7-4.1c0.1,0.4-0.1,1.4-0.4,2.4c-0.4,1-0.6,2.1-0.5,2.6s-0.1,1.1-0.4,1.3
			C112.7,192.8,112.6,192.4,112.8,190.5z"/>
		<path class="st2" d="M121.1,189.7c-0.2-0.3,0.2-1.9,0.9-3.4c0.7-1.6,1.2-3.4,1.2-4.1c0-1.2,2.6-5.3,3.4-5.3c0.8,0,0.4,3.5-0.5,4.6
			c-1.2,1.4-2.6,3.9-3.8,6.7C121.9,189.6,121.4,190.1,121.1,189.7z"/>
		<path class="st2" d="M118,187c0-0.6,0.2-1.1,0.5-1.1s0.5,0.3,0.5,0.7s-0.2,1-0.5,1.1C118.2,187.9,118,187.6,118,187z"/>
		<path class="st2" d="M373.5,186.3c0-0.4-0.1-1.6-0.3-2.5c-0.2-1-0.1-1.6,0.2-1.6c0.6,0,1.1,3.8,0.5,4.5
			C373.7,187,373.5,186.9,373.5,186.3z"/>
		<path class="st2" d="M377.5,184.5c-0.3-0.8-0.6-2-0.6-2.6c0-1.5-1.8-3.9-3-3.9c-0.7,0-0.9-0.2-0.5-0.6c0.3-0.4,0.8-1.6,1.1-2.7
			c0.5-1.6,0.7-1.9,1.3-1.4c0.4,0.3,0.7,1.5,0.7,2.6c0,1.2,0.2,2.1,0.4,2.1c0.5,0,1.7,5.8,1.4,7
			C378.1,185.7,377.9,185.5,377.5,184.5z"/>
		<path class="st2" d="M115.1,184.6c0-0.3,0-0.7,0-1.1c0-0.3,0.2-1.4,0.3-2.4s0.5-2.2,0.9-2.6c0.4-0.5,0.7-1.3,0.7-1.7
			c0-0.5,0.2-0.9,0.5-0.9c0.7,0,0.1,3.2-1,5.7c-0.5,1.1-1,2.3-1.1,2.7C115.3,184.7,115.1,184.9,115.1,184.6z"/>
		<path class="st2" d="M119.6,182.5c0.4-2,1.2-3,1.2-1.5c0,0.6-0.3,1.5-0.8,2.1C119.3,184,119.3,184,119.6,182.5z"/>
		<path class="st2" d="M125.9,175.3c-0.1-0.3,0-0.5,0.4-0.5c0.8,0,1-0.7,1.5-4.5c0.9-6.5,1.1-7.6,1.6-8.4c0.3-0.5,1-0.8,1.3-0.8
			c0.6,0,0.7,0.7,0.4,4c-0.1,2.2-0.6,4.5-1,5.1s-0.7,1.5-0.7,2c0,1.2-1.8,3.6-2.6,3.6C126.5,175.9,126,175.7,125.9,175.3z"/>
		<path class="st2" d="M373.7,171.5c0.1-0.4-0.4-2.3-1.2-4.3c-0.7-2-1.3-4.2-1.3-4.9c0-0.6-0.3-1.5-0.7-2c-0.4-0.4-0.7-1.3-0.7-1.9
			c0-0.9,0.1-1,0.9-0.6c1.1,0.6,2,3.2,2,5.7c0,1.3,0.2,1.8,0.8,1.8c0.4,0,0.6,0.3,0.4,0.5c-0.2,0.3-0.1,0.9,0.2,1.2
			c0.2,0.4,0.6,1.7,0.8,2.9c0.3,1.9,0.2,2.2-0.5,2.2C373.8,172.2,373.5,171.9,373.7,171.5z"/>
		<path class="st2" d="M118.2,169.3c0.3-1.7,1.2-3.1,1.2-1.8c0,0.4-0.3,1.3-0.7,2.1l-0.7,1.3L118.2,169.3z"/>
		<path class="st2" d="M368.2,167.8c0-1.1-0.1-2.3-0.3-2.7c-0.4-1.1,0.9-1.2,1.7-0.1c0.5,0.6,0.4,1.2-0.4,2.8l-1,2L368.2,167.8z"/>
		<path class="st2" d="M119.7,164.1c0.5-4.8,3.5-11.9,3.5-8.3c0,0.6-0.2,1.1-0.5,1.1c-0.2,0-0.5,0.8-0.5,1.8c0,2-1.3,5.9-2.2,7
			C119.6,166.2,119.5,165.8,119.7,164.1z"/>
		<path class="st2" d="M128.5,160.6c0-0.3,0.3-0.7,0.7-1.1s0.7-1.4,0.7-2.4s0.2-1.9,0.5-2.1s0.5-1.2,0.5-2.3s0.2-2.5,0.5-3.3
			c0.2-0.9,0.3,0.4,0.3,3.7c-0.1,3.8-0.3,5.4-1,6.5C129.9,161,128.5,161.6,128.5,160.6z"/>
		<path class="st2" d="M366.4,159.5c-0.4-0.7-0.4-1.1-0.1-1.4c0.6-0.4,1.4,0.7,1.4,1.8C367.7,160.9,367.1,160.7,366.4,159.5z"/>
		<path class="st2" d="M369,155.6c-0.4-0.6-1-2.4-1.3-4s-0.9-3.6-1.3-4.5s-0.9-2.7-1.2-4c-0.9-4.4-1.9-8-2.6-8.6
			c-1-1-2.3-3.4-2.3-4.5c0-0.6-0.5-2.4-1.2-4s-1.2-3.4-1.2-4c0-0.5-0.4-1.5-0.9-2.2c-1-1.3-2.5-5.3-2.5-6.4c0-1.8,5,8.6,5.5,11.5
			c0.2,1.3,0.7,2.1,1.3,2.2c0.7,0.2,0.9,0.7,0.9,2.2c0,1.1,0.3,2.5,0.7,3.2c0.4,0.7,0.8,1.7,1,2.1c2.2,5.8,3.1,8.9,3.1,10.2
			c0,0.5,0.3,1.6,0.7,2.3c0.4,0.8,0.9,2.5,1.3,3.8c0.3,1.3,0.8,2.8,1,3.3C371.3,156.6,370.3,157.8,369,155.6z"/>
		<path class="st2" d="M365.9,154.7c0-0.6-0.4-0.7-1.4-0.6c-1.9,0.3-2.2-0.4-2.2-5.7c0-2.5-0.2-5.9-0.5-7.6c-0.2-2.1-0.2-3,0.1-2.8
			c0.5,0.4,1.1,2.8,1.4,6.4c0.1,1.2,0.4,2.2,0.7,2.3c0.3,0.1,0.5,0.7,0.5,1.4c0,0.6,0.4,2.3,1,3.6c0.5,1.4,0.9,2.7,0.7,3.1
			S365.9,155.2,365.9,154.7z"/>
		<path class="st2" d="M123.5,151.6c0.2-1.6,0.7-3.9,1.2-5c0.5-1.2,1.3-3.6,1.7-5.4c0.5-1.8,1.1-3.3,1.2-3.3c0.2,0,0.5-1.1,0.6-2.3
			c0.2-1.3,0.6-2.7,1-3.3c0.4-0.6,0.7-1.4,0.7-1.9s0.2-1,0.5-1s0.5-0.7,0.5-1.6c0-0.8,0.2-1.6,0.4-1.6s0.6-0.6,0.7-1.3
			c0.2-0.7,0.5-1.3,0.8-1.3s0.5-0.9,0.5-2c0-1.8,0.1-1.9,0.6-1c0.9,1.7,2.3,1.1,2.3-1.1c0-1.7-0.3-2.1-1.9-1.8
			c-0.4,0.1-0.1-0.6,0.7-1.7c0.7-1.1,1.5-1.9,1.9-1.9c0.3,0,0.3,0.2-0.1,0.5c-0.4,0.3-0.5,0.6-0.1,0.8c0.7,0.5,2-0.9,2-2.2
			c0-1.3,1.7-3.6,2.1-2.9c0.3,0.6-0.8,4.5-1.9,6.2c-0.3,0.6-1.2,3.2-1.9,5.7s-1.5,4.4-1.7,4.3c-0.2-0.2-0.4-0.7-0.4-1.1
			c0-1.2-1.3-0.8-2.4,0.6c-0.6,0.8-1,2.2-1,3.3c0,1.1-0.2,2.2-0.6,2.6c-0.7,0.7-1.8,3.9-2.3,6.4c-0.2,1-0.8,2.7-1.3,3.7
			s-0.9,2.2-1,2.6c0,0.4-0.5,2.5-1.1,4.7C123.9,154.5,123.1,155.6,123.5,151.6z"/>
		<path class="st2" d="M128.1,150.5c0-1.2,0.1-2.1,0.4-2.1c0.2,0,0.3,1,0.2,2.1s-0.3,2.1-0.4,2.1
			C128.2,152.6,128.1,151.7,128.1,150.5z"/>
		<path class="st2" d="M131.2,142c-0.4-2.6-0.1-5.1,1-7.4c0.4-0.8,0.7-2.1,0.7-2.8c0-0.7,0.2-1.7,0.4-2.3c0.2-0.5,0.6-1.3,0.7-1.8
			c0.1-0.6,0.5-0.8,1.1-0.6c0.7,0.3,0.7,0.4,0,0.9c-0.4,0.4-0.9,1.9-1.1,3.8c-0.2,1.7-0.7,3.9-1,4.8c-0.4,0.9-0.9,3-1.1,4.8
			l-0.4,3.2L131.2,142z"/>
		<path class="st2" d="M142.6,115.7c0.4-2.3,1.8-5.4,2.6-5.7c0.3-0.1,0.7,0.3,0.9,1c0.4,1.4-1.1,4.7-2.6,5.8l-1.2,0.8L142.6,115.7z"
			/>
		<path class="st2" d="M153.1,114.1c0-1.3,1.2-3.8,1.7-3.8c0.9,0,0.9,0.8-0.1,2.7C153.9,114.6,153.1,115.1,153.1,114.1z"/>
		<path class="st2" d="M141.1,108.1c0-0.4,0.3-0.9,0.8-1.1c0.4-0.2,0.6-0.5,0.5-0.7s0.2-1,0.7-1.7l0.9-1.3v1.2c0,0.7-0.4,2-0.8,2.8
			C142.3,108.8,141.1,109.3,141.1,108.1z"/>
		<path class="st2" d="M171,100.8c-0.8-0.8-0.2-2.1,0.9-2.1c1.2,0,1.8,1.5,0.9,2.2C171.9,101.5,171.7,101.5,171,100.8z"/>
		<path class="st2" d="M340.9,98.1c-1.2-2-1.8-4.3-1.3-5.1c0.6-1.2,3.1,3.3,3.1,5.7C342.7,100.3,342.2,100.1,340.9,98.1z"/>
		<path class="st2" d="M345.9,94.2c-0.2-0.2-0.3-0.7-0.3-1.2c0-0.6,0.1-0.6,0.5-0.2c0.3,0.3,0.5,0.8,0.3,1.2
			C346.4,94.3,346.1,94.4,345.9,94.2z"/>
		<path class="st2" d="M184.9,81.9c0-0.6,0.3-1.1,0.8-1.1c0.4,0,0.7,0.4,0.6,0.9C186,83,184.9,83.2,184.9,81.9z"/>
		<path class="st2" d="M160.1,76c-0.2-0.3-0.2-0.6-0.2-0.7c1.1-0.6,2.2-1.6,4.4-3.7c1.5-1.4,3.8-3,5.2-3.6c3.1-1.2,2.9-1.2,2.4,0
			c-0.3,0.5-1.1,1.2-1.8,1.5c-0.8,0.3-2.4,1.5-3.8,2.7c-1.3,1.2-2.6,2.2-2.8,2.2s-1.1,0.5-1.8,1.1C160.8,76.3,160.3,76.4,160.1,76z"
			/>
		<path class="st2" d="M324.9,71.1c-1.4-1.2-3.5-2.7-4.4-3.3c-1-0.6-1.8-1.2-1.8-1.4s-0.4-0.5-1-0.7c-0.8-0.3-1.4-1.8-0.7-1.8
			c0.6,0,5.1,3.3,5.1,3.8c0,0.3,0.3,0.5,0.7,0.5c0.4,0,1.6,0.8,2.7,1.8s2.2,1.8,2.4,1.8c0.2,0,0.5,0.4,0.7,0.8
			C328.9,74,327.6,73.5,324.9,71.1z"/>
		<path class="st2" d="M186.3,64.7c2.5-2,3.2-2.1,5.1-0.7c0.9,0.7,1.5,1.4,1.4,1.6c-0.1,0.2-2,0.4-4.2,0.4h-3.9L186.3,64.7z"/>
		<path class="st2" d="M175.2,65.3c0-0.1,0.4-0.7,1-1.4c1.1-1.4,2-1,1.2,0.4C176.9,65.1,175.2,65.9,175.2,65.3z"/>
		<path class="st2" d="M313.1,62.8c-0.6-0.2-1.3-0.8-1.7-1.3c-0.7-0.8-0.6-0.9,0.5-0.5c0.7,0.2,1.6,0.8,2.2,1.4
			C315,63.4,314.8,63.6,313.1,62.8z"/>
		<path class="st2" d="M194.5,61.9c0-1.2,5.3-4.2,8.4-4.6c2.9-0.5,2.8,0.4,0,1.8c-5.3,2.6-8,3.8-8.1,3.8
			C194.6,62.8,194.5,62.4,194.5,61.9z"/>
		<path class="st2" d="M295.8,61.4c-0.5-0.2-1.3-0.5-1.5-0.8c-0.3-0.3-2.5-0.6-4.8-0.8c-2.4-0.2-5.1-0.6-6.2-1s-4.7-1-8-1.2
			l-6.1-0.5l-3.6-2.5c-2-1.4-3.7-2.7-3.9-3.1c-0.2-0.4-2.1-0.6-4.6-0.5c-3.6,0-4.7,0.3-6.9,1.4c-1.4,0.8-3.1,2-3.7,2.7
			c-1.3,1.7-2.3,1.7-4.4-0.1c-1.7-1.4-2-1.5-8.2-1.6c-6.9-0.2-10.3,0.2-16.8,2.1c-5.8,1.6-7.3,1.7-8.4,0.8c-0.9-0.7-0.9-0.8,0.5-1.2
			c0.8-0.2,1.8-0.7,2.2-1.1c0.4-0.4,2-1,3.6-1.2c1.5-0.3,3-0.7,3.4-1.1c0.3-0.3,2.6-0.9,4.9-1.3c2.4-0.4,5.3-1,6.6-1.3
			c8.2-2,15-2.5,20.8-1.6c1.8,0.3,5.2,0.8,7.6,1.1c2.4,0.4,5.8,1.1,7.5,1.6s4.1,1,5.3,1c2.4,0,12.4,2.5,13.3,3.3
			c0.3,0.3,0.6,1,0.6,1.5c0,1.1,1,1.3,1.8,0.4c0.6-0.7,3.3,0.2,9.2,2.9c2.4,1.1,3.3,1.7,2.9,2C298.1,61.8,297.3,61.8,295.8,61.4z"/>
		<path class="st2" d="M340.8,418.8c0-0.6,1.3-1.1,1.7-0.6c0.1,0.3-0.2,0.6-0.7,0.7C341.2,419.2,340.8,419.1,340.8,418.8z"/>
		<path class="st2" d="M356.2,403.7c0-0.3,0.2-0.8,0.5-1.2c0.4-0.6,0.5-0.6,0.5,0.4c0,0.6-0.2,1.2-0.5,1.2
			C356.4,404,356.2,403.9,356.2,403.7z"/>
		<path class="st2" d="M120.2,364.1c-0.2-0.8-0.1-1.7,0.1-2c0.4-0.4,0.5,0,0.5,1.4C120.8,365.9,120.6,366,120.2,364.1z"/>
		<path class="st2" d="M118.9,358.6c0-0.6,0.2-0.9,0.5-0.7s0.5,0.7,0.5,1.1c0,0.4-0.2,0.7-0.5,0.7
			C119.2,359.7,118.9,359.2,118.9,358.6z"/>
	</g>
	<g id="layer103">
		<path class="st2" d="M249.3,447.1c-0.2-0.3-2.9-0.9-11-2.5c-1.4-0.3-4.8-0.5-7.4-0.5s-5.1-0.2-5.6-0.5c-0.4-0.3-2.9-0.7-5.6-1
			c-3.4-0.4-5.4-1-7.1-1.9c-1.3-0.7-2.6-1.3-3-1.3c-1.3,0-9-2.7-9.8-3.4c-0.4-0.4-1.4-0.8-2.2-0.8c-0.8,0-1.9-0.4-2.4-0.8
			c-0.5-0.4-1.3-0.8-1.7-0.8c-0.5,0-0.9-0.2-0.9-0.5c0-0.2-1.7-1.2-3.7-2.2c-2.1-1-4-2.1-4.4-2.5c-0.8-0.8-3.7-2.5-5.3-3
			c-1.8-0.6-9.6-6.2-9.6-7c0-0.4-0.2-0.7-0.4-0.7c-0.4,0-5.7-4.5-9.4-8.1c-2.2-2.1-5.7-5.4-7.1-6.7c-0.5-0.4-2.1-2.2-3.6-3.9
			c-4.3-4.9-7-7.9-8.6-9.3c-1.3-1.3-3.6-4.1-7.1-8.8c-1-1.3-1.7-2.4-1.7-2.5s0.6,0.1,1.3,0.5c2.1,1.2,3.6-0.3,1.8-1.9
			c-0.6-0.5-1.1-0.5-2.1-0.1c-1.1,0.4-1.4,0.4-2.1-0.6c-0.5-0.6-0.8-1.6-0.8-2.3c0-0.6-0.4-1.4-1-1.7c-0.7-0.4-0.9-0.9-0.7-1.8
			c0.2-0.9,0-1.5-0.9-2.2c-0.7-0.6-1.4-1.8-1.7-2.7c-0.3-1-1-2.4-1.5-3.2s-1-1.9-1-2.4s-0.2-1.3-0.4-1.8c-0.3-0.5-1.1-2.6-1.7-4.8
			c-1.3-3.7-1.3-3.9-0.4-4.5c0.8-0.7,0.8-0.7-0.2-1.3c-1.2-0.7-2.9-4.7-2.9-6.7c0-0.7-0.4-1.9-0.8-2.7c-0.8-1.3-0.8-1.4,0-2
			c1.2-1,1-1.8-0.8-3.8c-1.3-1.4-1.7-2.4-2.2-5.3c-0.3-2-0.9-4.2-1.3-5s-0.7-2.1-0.7-2.9s-0.4-2.2-0.9-3.1s-1.3-2.8-1.7-4.3
			c-0.5-1.4-1.2-3.6-1.7-4.8c-0.5-1.2-1.1-3-1.3-4s-1.1-3.5-1.8-5.5c-2.5-7.3-2.7-7.9-2.9-9c-0.1-0.6-0.4-1.5-0.6-2.1
			c-2.4-6.7-2.6-8.6-2.6-18.5c0-5.4,0.3-11.2,0.6-12.8l0.6-3l0.6,2.6c0.3,1.5,0.7,4.2,0.7,6.1s0.2,4.5,0.5,5.8
			c0.2,1.3,0.7,4.1,0.9,6.1c0.5,4.2,2.2,11.9,3.2,14.3c0.3,0.9,1,2.8,1.3,4.2c0.4,1.5,1.1,3.4,1.5,4.2c0.4,0.9,0.8,1.9,0.8,2.3
			s0.4,1.7,1,2.9c0.5,1.2,1,2.5,1,2.8c0,0.7,2.9,8.8,5.1,14c0.9,2.2,2,5.4,2.6,7.1c0.5,1.7,1.6,5.2,2.5,7.7s1.9,5.5,2.2,6.9
			c0.9,3.3,2,6.6,3.4,9.8c0.6,1.5,1.2,3.1,1.2,3.5s0.2,1,0.4,1.3c0.9,1.1,2.9,5.6,2.9,6.6c0,0.6,0.6,1.8,1.4,2.7
			c0.8,0.8,1.4,1.7,1.4,1.9c0,0.8,4.5,7.9,6.3,9.9c1.5,1.6,1.9,2.5,1.8,3.6c-0.1,1.2,0.1,1.6,1.3,2.4c0.8,0.5,1.9,1.7,2.5,2.7
			s1.3,2.1,1.5,2.3c0.2,0.3,1.7,2.4,3.3,4.8c3.7,5.2,11.3,13.5,16.6,17.9c0.6,0.5,2.3,1.8,3.7,2.9c1.3,1.1,3.5,2.9,4.8,4
			c3.6,3.2,14,10.7,17.3,12.6c2.4,1.3,3,2,3.1,3c0.1,1.3,0.3,1.4,2.4,1.4c1.2,0,3.8,0.6,5.8,1.4c1.9,0.7,5.7,1.8,8.3,2.5
			c2.6,0.6,5.5,1.4,6.3,1.6c0.8,0.3,2.2,0.4,3.1,0.4s4.3,0.4,7.5,0.8c12.2,1.8,20,2.3,42.8,2.6c7.1,0.1,19.4-1.7,24.4-3.4
			c5.9-2.1,13.1-5.7,14.8-7.3c0.6-0.6,2-1.4,3-1.6c1-0.3,2-0.8,2.2-1.2c0.6-1.1,4.3-3,5.7-3c1.6,0,3.1-0.9,3.1-1.9
			c0-0.4,1.1-1.5,2.4-2.4s2.4-2,2.4-2.4c0-0.8,1-2,4.3-4.9c2-1.7,9.8-10.2,14.6-15.8c1.3-1.4,2.3-3,2.3-3.4s0.5-1.5,1.2-2.3
			c0.7-0.9,1.2-1.8,1.2-2.1s0.1-0.6,0.4-0.7c0.2-0.1,1-1.1,1.7-2.1c0.7-1.1,1.7-2,2.3-2c1.9,0,2.5-0.6,2.1-2.3c-0.2-1.4,0-2,1.5-3.8
			c0.9-1.1,2.3-3.1,3-4.4c0.7-1.3,1.5-2.7,1.8-3.2c0.3-0.4,1-1.8,1.4-3.2s1.3-2.9,1.7-3.4c0.7-1,3.9-10.1,5.5-15.8
			c0.3-1.2,1-3.2,1.6-4.5s1.1-2.7,1.1-3.2c0-0.4,0.3-1.3,0.7-1.8c0.4-0.5,0.7-1.6,0.7-2.3c0-0.7,0.4-2.1,1-3.2
			c1-1.9,2.2-5.4,4.9-13.8c0.8-2.5,2.2-5.5,3.1-6.9c1.1-1.4,1.5-2.6,1.3-3.2c-0.8-2-0.7-3.5,0.4-8.3c2.8-11.7,4.4-24.3,4.8-38.4
			c0.1-5.3,0.1-5.3,1.6-6c0.8-0.4,1.5-1,1.7-1.3c0.8-1.3-0.6-3.6-2.9-5c-0.4-0.3-0.8-1.4-0.9-2.7c-0.1-1.3-0.5-4.9-0.9-8.1
			c-1.2-9.5-1.7-15.7-1.4-17.5c0.2-1.3,0-2-1-3c-0.7-0.7-1.3-2-1.3-2.6c0-0.7-0.4-3.1-1-5.4c-0.5-2.3-0.9-4.8-0.7-5.5
			c0.1-0.8,0-1.8-0.5-2.5c-0.4-0.6-1.1-2.5-1.5-4.1c-0.9-3.6-1.3-5.3-2.3-9.1c-0.4-1.6-1.1-4.3-1.5-6.1c-1-4.3-2.8-11.1-5-17.7
			c-1-3.1-2-6.7-2.4-8.2c-0.3-1.4-1-3.5-1.4-4.5s-1-2.9-1.3-4.2c-2-7.6-3.1-11.8-4.3-15.2c-0.7-2.1-1.2-4.2-1-4.6
			c0.4-1.3,1.6-0.8,2.2,1c0.3,0.9,1.1,2.9,1.7,4.4s1.3,3.8,1.6,5c0.3,1.3,1,3.3,1.5,4.5s0.9,2.6,0.9,3.3c0,1.1,0.9,4.2,2,6.7
			c0.2,0.6,1.6,5,3.1,9.8c1.4,4.8,2.9,9.1,3.1,9.6c0.3,0.5,0.5,1.4,0.5,1.8c0,0.5,0.4,1.9,0.8,3.1c0.8,2.4,3.2,11.8,4.5,17.4
			c0.5,2.1,1.2,4.6,1.6,5.7s0.8,2.4,0.8,3c0,0.5,0.5,3,1.2,5.4s1.3,5.7,1.3,7.2c0.1,1.6,0.5,3.2,0.9,3.8c0.4,0.5,0.8,1.5,0.8,2.3
			c0,1.3,1.5,12.1,2.5,17.7c0.3,1.5,0.6,3.5,0.7,4.5s0.5,2.4,0.8,3c0.6,1.3,0.7,6.7,0.2,11.3c-0.2,1.6-0.5,6.5-0.8,10.8
			c-0.6,9.7-1.3,17-1.9,18.2c-0.2,0.5-0.7,2.7-1,5.1c-0.3,2.3-0.8,4.9-1.1,5.7c-0.5,1.6-0.7,2.6-1.3,8.5c-0.4,3.9-0.8,4.7-2.2,5.3
			c-0.2,0.1-0.5,1.6-0.7,3.3c-0.1,2-1,5.2-2.3,8.9c-1.2,3.2-2.6,7.5-3.1,9.5c-0.6,2.1-1.3,4.1-1.5,4.6s-0.4,1.6-0.4,2.5
			c0,1-0.4,1.8-1,2.4c-0.7,0.5-1,1.1-0.8,1.8c0.4,1.7-0.9,6.2-2.4,8.4c-0.8,1.2-1.3,2.6-1.4,3.7c0,1-0.4,2.6-0.8,3.7
			c-0.4,1.1-1.1,3.3-1.6,4.9c-1.3,4.7-4.7,11.8-6.7,14c-0.5,0.6-1.8,2.2-2.9,3.6c-1.1,1.4-2.5,3.2-3.1,3.9c-0.6,0.8-1.9,2.6-2.7,4.1
			c-2,3.3-13.7,17-20.6,24c-1.1,1.1-2.9,2.6-4.1,3.4c-1.2,0.8-2.6,1.9-3.1,2.4s-1.5,1-2.2,1.2c-1.3,0.3-5.3,3.1-6.9,4.6
			c-0.5,0.5-1.4,1.1-2.1,1.2c-0.6,0.2-2.1,1.1-3.3,1.9c-1.2,0.9-2.3,1.6-2.5,1.6c-0.5,0-6.2,2.4-7.5,3.2c-0.5,0.3-1.2,0.5-1.5,0.5
			c-0.4,0-1.5,0.7-2.6,1.5c-1.1,0.9-3.6,2-6,2.7c-2.2,0.6-4.3,1.4-4.6,1.6c-0.4,0.3-1.8,0.4-3.5,0.2l-2.9-0.4v1.5
			c0,1.4-0.1,1.4-1.7,1.2c-1.1-0.2-2.7,0.1-4.5,0.7c-2.5,1-3.9,1.1-13.6,1c-6-0.1-11.5-0.1-12.3-0.1s-2.2,0.2-3.1,0.4
			C250.4,447.3,249.4,447.3,249.3,447.1z M336.5,416.5c0-1.1-1.8-1.4-2.6-0.5c-1,1-0.9,1.6,0.1,1.9
			C335.1,418.2,336.5,417.4,336.5,416.5z"/>
		<path class="st2" d="M126,330.1c-1.1-1.1-1.1-2.1-0.1-2.1c0.8,0,1.4,1.1,1.1,2.3C126.9,330.8,126.7,330.8,126,330.1z"/>
		<path class="st2" d="M98.7,241.3c-0.4-3.7,0.6-22.9,1.2-23.5c0.4-0.3,0.8-2.2,0.9-4.2c0.2-2.1,0.8-5.2,1.3-7.1s1-3.9,1-4.5
			s0.2-1.3,0.4-1.6c0.2-0.3,0.7-1.6,1-3.1c0.7-3.3,3.1-12.1,5.7-21.4c1.1-3.9,2.4-8.6,2.7-10.3c0.4-1.7,1.2-4.4,1.6-6
			c0.5-1.5,1-3.2,1-3.8c0-0.5,0.4-1.2,1-1.3c1-0.3,1.1-0.7,1-2.7c-0.1-1.6,2.6-11.6,4.5-16.3c1.5-3.8,2.6-7,2.9-8.6
			c0.1-0.9,0.6-2,1-2.3s0.8-1.3,1-2.1c0.4-2.2,1.3-2.9,2.3-1.7c0.7,0.8,0.6,1.3-0.9,5.4c-0.9,2.5-2,5.2-2.4,6.1
			c-0.8,1.7-6.2,19.8-7.8,26.1c-0.6,2.2-1.5,5.4-2,7.1s-1.5,5.5-2.2,8.5c-0.7,2.9-1.7,6.8-2.3,8.7c-0.6,1.9-1.2,4.2-1.3,5
			c-0.2,0.9-1.1,4.3-1.9,7.7c-3.7,14.4-4.6,18.8-5.2,24.8c-0.2,2.5-0.4,2.9-1.4,3.1c-1.4,0.2-1.9,1.5-1.1,2.9
			c0.9,1.5,0.7,9.3-0.2,10.4c-0.4,0.5-0.9,2.2-1.1,3.8C98.9,243.1,98.9,243.1,98.7,241.3z"/>
		<path class="st2" d="M365.2,124.8c-1-0.3-2-2-2.5-4c-0.1-0.8-1.1-2.7-1.9-4.2c-0.9-1.5-2.3-4.3-3.2-6.2c-0.9-1.9-2-4.1-2.6-5
			c-1.5-2.2-1.9-4-1.2-4.5c0.5-0.4,0.5-0.6-0.2-1.1c-1.4-0.9-3-2.9-3.9-4.9c-0.9-2.1-5.1-9.2-6.1-10.4c-1.2-1.3-1.4-2.6-0.4-2.6
			c1.2,0,3.4,2,3.4,3c0,0.4,0.2,0.7,0.4,0.7c0.2,0,0.8,0.8,1.3,1.7s1.6,2.7,2.5,4c0.9,1.3,1.6,2.6,1.6,3.1c0,0.4,0.6,1.5,1.3,2.5
			c3.4,4.5,7.5,13.1,9.9,20.5c0.3,1.1,0.8,2,1,2c0.5,0,2.4,4.9,2,5.3C366.2,124.9,365.7,124.9,365.2,124.8z"/>
		<path class="st2" d="M129.3,116.2c-0.4-0.7,0.6-2.6,2-4.1c0.6-0.6,1.1-1.7,1.1-2.4c0-0.7,0.6-2.4,1.3-3.9c0.7-1.4,1.6-3.5,2.2-4.5
			c0.5-1.1,1.4-2.6,2.1-3.4s1.7-2.5,2.2-3.7s1.3-2.6,1.9-3.1c0.5-0.5,0.9-1.1,0.9-1.4c0-0.8,5.7-8.8,6.5-9.1c0.4-0.2,0.7-0.6,0.7-1
			c0-1.1,5.1-6.2,11.2-11.1c6.4-5.2,8.4-6.4,8.8-5.6c0.5,0.8-1,2.4-3.8,4.2c-1.3,0.8-3.1,2.2-3.9,2.9c-0.8,0.7-1.9,1.8-2.6,2.4
			c-0.6,0.5-1.3,1-1.5,1c-1.3,0-10.6,12.5-14.7,19.9c-2.8,5.1-5.1,9.3-5.3,10.2c-0.2,0.6-0.5,1.1-0.7,1.1s-1.4,2.3-2.6,5.1
			s-2.7,5.5-3.2,6.1C130.9,116.8,129.7,117,129.3,116.2z"/>
		<path class="st2" d="M338.9,77.8c-1.4-1.6-3.4-3.4-4.3-4c-1.7-1.2-6.8-5.2-7.2-5.8c-0.5-0.6-5-3.9-6.7-5c-2.2-1.3-7.2-5-7.2-5.3
			c0-1,6.8,2.7,8.8,4.8c0.7,0.7,1.4,1.3,1.7,1.3c0.2,0,0.8,0.5,1.3,1.1s1.1,1.1,1.3,1.1c0.2,0,2.4,1.5,4.8,3.3s4.9,3.6,5.4,4.1
			c2.4,1.7,5.6,5.5,5.6,6.4C342.2,81.3,341.8,81,338.9,77.8z"/>
		<path class="st2" d="M188.2,64.4c0-0.3,0.4-0.5,1-0.5s1,0.3,1,0.5c0,0.3-0.4,0.5-1,0.5S188.2,64.7,188.2,64.4z"/>
		<path class="st2" d="M173.8,61.3c0-1.2,6.4-5,7.6-4.4c1.2,0.5,0.6,1.1-2.9,3C174.8,61.8,173.8,62.2,173.8,61.3z"/>
		<path class="st2" d="M276.8,56.8c-2.3-0.4-4.7-0.5-5.5-0.4c-1,0.2-2-0.2-3.3-1.1c-1-0.7-2-1.4-2.2-1.4s-1.1-0.7-2-1.5
			c-2.3-2.1-1.1-2.6,2.8-1.2c1.6,0.6,4.2,1.1,5.7,1.1c1.5,0.1,4.6,0.6,6.9,1.3c3.8,1.1,4.1,1.3,4.2,2.6
			C283.6,57.8,283.4,57.8,276.8,56.8z"/>
		<path class="st2" d="M183.9,56c0-0.5,0.7-1.3,3.3-3.8c0.5-0.5,1.4-1,2.1-1.2c0.6-0.2,2.1-1,3.2-1.6c1.2-0.7,2.5-1.3,2.9-1.3
			c0.5,0,1.5-0.6,2.4-1.3s2.6-1.6,3.9-1.9c1.3-0.4,2.4-0.8,2.4-1.1s1.4-0.7,3.3-1.1c1.8-0.4,3.3-0.8,3.5-1c0.3-0.5,5.1-1.6,6.8-1.6
			c0.8,0,1.9-0.3,2.5-0.6c1.2-0.7,1.3-0.7,4.9-1.4c1.3-0.2,2.6-0.6,2.9-0.7c0.3-0.2,4.3-0.9,8.9-1.5c7.5-1,9-1.1,14.9-0.5
			c3.6,0.3,7.3,0.8,8.2,1.1c4.8,1.4,16,4.2,16.9,4.2c0.6,0,1.8,0.5,2.7,1.1c0.9,0.6,2.1,1.1,2.7,1.1c1.3,0,7.3,2.2,10.1,3.8
			c2.2,1.2,2.6,1.5,5.5,3.3c1.2,0.7,2.6,1.3,3.2,1.3c1.5,0,7.1,3,8.2,4.3l0.9,1.1l-1.8-0.4c-1-0.2-3.5-1.3-5.5-2.4
			c-2.1-1.1-4.3-2.2-5.1-2.4c-0.7-0.2-1.4-0.6-1.6-0.8c-0.1-0.3-0.9-0.5-1.6-0.5c-0.8,0-1.5-0.2-1.6-0.5s-1.1-0.6-2.1-0.8
			s-2.1-0.8-2.5-1.4c-0.4-0.7-1-0.9-2.1-0.6c-0.8,0.2-1.9,0.1-2.5-0.3s-2.3-0.7-3.7-0.8c-1.4-0.2-4-0.5-5.8-0.8s-5.5-0.8-8.4-1.2
			c-5.7-0.6-9.3-1.4-10.2-2.2c-0.8-0.7-6.1-0.9-9.3-0.3c-1.4,0.3-3.2,0.4-3.9,0.4c-6.4-0.4-8-0.3-9.4,0.5c-0.8,0.4-2.8,1-4.6,1.2
			c-11.5,1.4-25.2,4.6-26.3,6.1c-0.3,0.4-1.4,0.7-2.6,0.7s-2.7,0.4-3.7,1.1c-0.9,0.6-2.1,1.1-2.8,1.1c-1.3,0-4.3,1.5-6.5,3.2
			C185.3,56.6,183.9,56.8,183.9,56z M244.1,38.8c0-0.4-0.4-0.8-1-0.8c-0.5,0-1,0.4-1,0.8c0,0.4,0.4,0.8,1,0.8
			C243.6,39.6,244.1,39.2,244.1,38.8z"/>
		<path class="st2" d="M213,54.4c1.1-0.6,2.5-1,3.2-1.1c0.7,0,2.2-0.5,3.4-1.1c2.4-1.2,5.9-1.4,5.6-0.4c-0.1,0.3-1.4,1-2.8,1.3
			c-1.4,0.4-3.7,1-5,1.4s-3.2,0.8-4.3,0.8l-2-0.1L213,54.4z"/>
		<path class="st2" d="M242.2,54.1c-0.9-0.7-2.4-1.4-3.5-1.6c-1-0.2-2.1-0.7-2.5-1.1c-0.7-1-1.4-1-1.4,0c0,0.8-4.8,1.5-6.6,1
			c-2.1-0.6-1-2,2.1-2.6c9.7-2.1,15.6-2.3,24.8-0.9l2.2,0.3l-3.1,1.1c-4.2,1.4-7.3,3-8.1,4.2C245.3,55.8,244.2,55.7,242.2,54.1z"/>
	</g>
	<g id="layer104_1_">
		<path class="st2" d="M248.7,444.4c-0.1-0.2-1.2-0.4-2.4-0.5c-3.9-0.3-11.2-1.3-11.4-1.6c-0.3-0.4,18.9,0.2,20.5,0.6
			c0.6,0.2,1.2,0.6,1.3,1.1c0.2,0.6-0.5,0.7-3.8,0.7C250.8,444.7,248.9,444.6,248.7,444.4z"/>
		<path class="st2" d="M259,443.9c-0.8-1.1-0.6-1.2,2.3-1.4c2.7-0.2,4.3,0.7,3,1.6C263.1,445,259.6,444.8,259,443.9z"/>
		<path class="st2" d="M267.9,443.7c0.1-0.3,0.6-0.5,1-0.5s0.8,0.3,1,0.5c0.2,0.3-0.2,0.5-1,0.5S267.7,444,267.9,443.7z"/>
		<path class="st2" d="M228.5,441.2c-0.4-0.4-0.8-1-0.8-1.1c0-0.5,4.5,0.4,5.8,1.2c1.2,0.6,1.1,0.7-1.5,0.7
			C230,442.1,228.9,441.8,228.5,441.2z"/>
		<path class="st2" d="M318.7,427.6c0.6-0.5,2.8-0.8,2.8-0.3c0,0.3-0.7,0.5-1.5,0.5S318.6,427.7,318.7,427.6z"/>
		<path class="st2" d="M180.5,423.1c-0.4-0.3-0.5-0.6-0.3-0.9c0.2-0.2,0.5-0.2,0.7,0.2c0.2,0.3,0.7,0.7,1.1,0.9
			c0.6,0.3,0.6,0.3,0,0.3C181.6,423.5,180.9,423.4,180.5,423.1z"/>
		<path class="st2" d="M175.5,419.7l-1.3-1.2h1.2c0.6,0,1.1,0.2,0.9,0.4s0.1,0.5,0.5,0.5c0.9,0,1,0.8,0.3,1.3
			C177,420.8,176.2,420.4,175.5,419.7z"/>
		<path class="st2" d="M170.4,416.8c-0.7-0.5-2.2-1.5-3.2-2.3c-1.1-0.8-2.2-1.9-2.6-2.4c-0.3-0.6-1.1-1.2-1.7-1.4
			c-0.6-0.2-1.4-1-1.8-1.6c-0.4-0.6-2.5-2.7-4.7-4.6c-2.2-1.8-4.4-3.9-4.9-4.5c-11.2-12.3-14.2-16.1-14.5-18c-0.7-4.7-0.8-5-2.2-5.8
			c-0.8-0.4-1.7-0.8-2.1-0.8c-0.4,0-0.9-0.6-1.1-1.4c-0.2-0.8-0.7-1.9-1.2-2.4s-0.9-1.5-0.9-2.1c0-0.7-0.4-1.4-1.1-1.7
			c-0.8-0.4-1.2-1.1-1.3-2.5c-0.1-1.1-0.3-2-0.6-2c-0.2,0-0.8-0.9-1.2-2s-1.1-2.7-1.5-3.6c-0.4-0.8-0.9-2.7-1-4.1
			c-0.1-1.4-0.5-2.5-0.7-2.5c-0.3,0-0.3-0.9-0.1-2.1c0.3-1.8,0.1-2.2-0.7-2.7c-1.3-0.7-2.9-4.5-2.9-6.6c0-3.1-0.6-6-1.4-7
			c-0.5-0.5-1.3-2.4-1.7-4.1c-0.5-1.7-1.3-4.4-1.7-5.9c-0.5-1.6-0.9-3.4-0.9-4.1c0-0.6-0.4-1.8-1-2.5c-0.5-0.7-1-1.6-1-2.1
			c0-0.4-0.4-1.4-1-2.3c-0.5-0.8-1-2-1-2.5s-0.6-2.5-1.3-4.5c-0.8-2-2.1-6-3-8.9s-1.9-5.8-2.2-6.3s-0.7-2.1-0.9-3.4s-0.6-3.1-1-4
			c-0.8-2-2.2-6.9-2.2-7.6c0-0.3,0.5-0.6,1.2-0.6c1,0,1.2,0.3,1.4,2.2c0.4,2.5,1.3,5.8,3,11.3c0.6,2.1,1.3,4.4,1.6,5.3
			c0.2,0.9,1,3.3,1.8,5.3c0.8,2.1,1.7,4.8,2,6c0.3,1.3,1,3.2,1.5,4.2c0.5,1.1,0.9,2.2,0.9,2.6s1,2.9,2.2,5.5
			c1.2,2.7,2.2,5.1,2.2,5.4c0,0.7,2.3,7.6,3.1,9.2c0.3,0.7,1.1,3.1,1.7,5.3c0.6,2.2,1.3,4.4,1.5,4.9s0.4,1.2,0.4,1.6
			s0.5,1.8,1.2,3.2c0.7,1.4,1.2,2.7,1.2,3.1s1,2.7,2.2,5.4c1.2,2.6,2.2,5.5,2.2,6.3c0,1.1,0.3,1.6,1.1,2.1c1,0.5,2.2,2.2,4,6.3
			c1.2,2.4,1.5,2.9,3.9,5.4c1.6,1.7,2,2.5,1.9,3.5c-0.3,1.7,0.4,3.2,1.6,3.2c0.6,0,1.5,1,2.6,2.8c0.9,1.5,2.1,3.2,2.6,3.8
			s1.2,1.6,1.5,2.4c0.3,0.7,0.9,1.7,1.2,2.3c0.7,1.1,7.5,8.5,9.6,10.5c0.7,0.7,2.8,2.7,4.6,4.6c3.6,3.7,5,4.8,6.1,4.8
			c0.4,0,0.7,0.2,0.7,0.4s0.7,1.2,1.4,2.2c0.8,1,1.4,2,1.4,2.2C173.8,418.1,171.7,417.8,170.4,416.8z"/>
		<path class="st2" d="M338.9,412c0-0.3,0.3-0.6,0.7-0.7c0.4-0.2,1-1.2,1.4-2.2c0.7-1.8,7.7-10,10.1-11.7c0.8-0.5,1.3-1.4,1.3-2.3
			c0-0.7,0.9-2.8,1.9-4.5c2.5-4.2,2.7-4.5,3.9-4.5c0.5,0,1.4-0.3,2-0.6c0.8-0.5,0.9-0.9,0.7-2.4c-0.2-1.4-0.1-2.1,0.6-3
			c0.5-0.6,1.6-2.1,2.3-3.3c0.7-1.2,1.7-2.7,2.2-3.5c0.5-0.7,1.4-2.6,2.1-4.2c0.7-1.6,1.7-3.5,2.4-4.2c0.7-0.8,1.5-3,2.1-5.3
			c1.3-5.3,4.7-16.2,5.6-17.6c0.3-0.6,0.9-2.3,1.3-3.8c0.3-1.4,0.9-3,1.2-3.4c0.3-0.4,0.8-1.5,1-2.4c0.2-0.8,0.7-2.4,1.3-3.4
			c0.5-1,0.9-2.1,0.9-2.5s0.5-2,1.2-3.5c0.7-1.6,1.2-3.5,1.2-4.2c0-1.3,1.6-4.1,2.5-4.1c0.6,0,0.6,5,0,6.2c-0.4,0.8-1.9,5-3.9,10.9
			c-0.5,1.5-1.4,4.2-2.1,6.2s-1.3,4-1.3,4.5s-0.4,1.4-1,2c-0.7,0.6-0.9,1.4-0.8,2.3c0.1,0.7,0,1.9-0.4,2.6c-0.3,0.7-0.5,1.8-0.4,2.3
			c0,0.6-0.2,1.3-0.5,1.6c-1.2,1-2.1,3.6-1.8,5.1c0.2,1,0,1.9-0.7,2.8c-0.5,0.7-1.1,2.3-1.3,3.3c-0.2,1.1-0.6,2.4-1,2.8
			c-0.4,0.5-1,2.2-1.4,3.9s-1.3,3.9-1.9,4.8c-0.7,1-1.9,2.7-2.8,4c-0.9,1.2-2.3,3.1-3.1,4.1c-0.9,1-1.6,2.1-1.6,2.4
			c0,0.3-1,1.6-2.3,3.1c-1.3,1.4-3.3,4-4.5,5.8s-2.8,3.8-3.6,4.3c-1.4,1-5,5.2-7.7,9.1c-0.8,1.1-1.6,2-2,2s-0.7,0.4-0.9,0.8
			C341.3,412.6,338.9,412.8,338.9,412z"/>
		<path class="st2" d="M389.8,308.4c-0.8-0.5-0.8-1,0.1-3.4c0.3-0.9,1.4-5.4,2.2-9c1.7-8.3,3.7-27,3.5-33.3c-0.1-4.5,0-4.8,0.9-4.9
			c0.9-0.2,1.1,0.1,1.2,2.1c0.2,2.7-0.4,15-0.8,18.4c-0.2,1.3-0.5,4.1-0.7,6.1c-0.2,2.1-0.9,5.5-1.4,7.9c-0.6,2.3-1,4.8-1,5.7
			c0,0.8-0.2,1.6-0.5,1.8c-0.2,0.2-0.4,1.3-0.4,2.4s-0.2,2.4-0.4,2.7c-0.3,0.4-0.6,1.4-0.7,2.2C391.6,308.8,391,309.2,389.8,308.4z"
			/>
		<path class="st2" d="M98.8,269.3c-0.7-3.1-0.8-11-0.1-12c0.2-0.5,0.5,1.7,0.6,5.3c0.1,3.9,0.4,6.4,0.8,6.9
			c0.6,0.8,0.4,2.4-0.3,2.4C99.5,272,99.1,270.8,98.8,269.3z"/>
		<path class="st2" d="M395.5,249.9c-0.1-0.3-0.2-1.7-0.2-3.3c0-1.8-0.3-3.8-0.9-5.4c-0.7-2-1.1-4.3-1.3-9.3c-0.2-4.1-0.1-6.8,0.2-7
			c0.2-0.2,0.6,0.4,0.7,1.2c0.1,0.8,0.5,2.2,0.7,3.1c0.6,2.1,1,5.9,1.2,10.5c0.1,2.1,0.6,5.2,1.2,6.9c0.5,1.7,0.9,3.3,0.7,3.5
			C397.4,250.5,395.8,250.5,395.5,249.9z"/>
		<path class="st2" d="M99,234.1c-0.1-0.3-0.1-1.1,0.1-1.7l0.4-1.2l0.3,1.3C100.1,233.8,99.5,235,99,234.1z"/>
		<path class="st2" d="M99.2,228.4c0-1.2,0.1-1.3,0.7-0.7c0.4,0.3,0.6,1,0.4,1.4C99.9,230.2,99.2,229.9,99.2,228.4z"/>
		<path class="st2" d="M390.8,217.6c0-0.6-0.5-2.6-1.2-4.5c-1.3-3.6-1.5-6.3-0.7-7.6c0.5-0.9,0.5-1,2,4.5c1.4,5.2,1.7,8.7,0.7,8.7
			C391.2,218.7,390.8,218.2,390.8,217.6z"/>
		<path class="st2" d="M102.8,209c0.2-0.7,0.6-2.6,0.9-4.4c0.3-1.8,0.8-3.5,1.1-4s0.8-2.3,1.1-4.1c0.6-3.8,0.8-4.2,1.6-3.3
			c0.4,0.4,0.3,1.1-0.2,2.7c-0.4,1.2-1.1,3.9-1.5,5.9c-0.9,4.6-2.1,8.4-2.8,8.4C102.6,210.2,102.6,209.7,102.8,209z"/>
		<path class="st2" d="M387.7,202.2c-0.2-0.6-0.2-1.2,0-1.4c0.3-0.4,1.2,0.9,1.2,1.9C388.9,203.8,388.1,203.4,387.7,202.2z"/>
		<path class="st2" d="M386.7,197.8c-0.3-0.8-0.7-2.2-0.9-2.9c-0.2-0.7-0.6-2.1-1-2.9c-0.4-0.9-0.8-2.9-1-4.5s-0.6-3.4-0.9-4
			s-0.9-2.2-1.2-3.7c-1.3-5.6-2.2-8.6-3.3-11.9c-0.7-1.9-1.3-4.1-1.3-4.9c-0.1-0.8-0.6-2.4-1.2-3.5c-1.2-2.5-1.3-4.1-0.3-3.2
			c0.3,0.3,1,2.1,1.5,4c0.4,1.9,1,3.6,1.3,3.8c0.2,0.2,0.4,0.8,0.4,1.5s0.2,1.4,0.4,1.5c0.2,0.2,0.6,1.2,0.8,2.3
			c0.1,1.1,0.6,2.5,0.9,3.1c0.4,0.6,0.9,2.1,1.2,3.4c0.3,1.3,0.8,3.4,1.2,4.8c1.9,6.3,2.7,9.9,2.7,10.9c0,0.7,0.3,2.1,0.8,3.3
			c0.4,1.2,0.7,2.6,0.6,3.3C387.2,199.3,387.2,199.3,386.7,197.8z"/>
		<path class="st2" d="M108.1,188.8c0.2-1.4,0.5-2.9,0.8-3.2c0.3-0.3,0.4,0.3,0.1,1.8C108.5,190.9,107.7,192.1,108.1,188.8z"/>
		<path class="st2" d="M110,182.2c-0.1-0.3,0-0.8,0.2-1.2c0.4-0.4,0.5-0.3,0.5,0.6C110.7,182.8,110.5,183.1,110,182.2z"/>
		<path class="st2" d="M110.7,178.5c0-1.8,0.9-4.7,1.5-4.7s0.1,2.7-0.9,4.6l-0.7,1.4L110.7,178.5L110.7,178.5z"/>
		<path class="st2" d="M114.7,164.4c0-1.5,0.8-4.9,1.3-4.9c0.2,0,0.1,1.3-0.1,2.9C115.4,165.2,114.8,166.3,114.7,164.4z"/>
		<path class="st2" d="M116.3,156.9c-0.3-0.5,1.1-2,1.4-1.5c0.4,0.4-0.2,2-0.7,2C116.8,157.4,116.5,157.2,116.3,156.9z"/>
		<path class="st2" d="M268.6,54.5c0-0.3-0.7-0.8-1.5-1.3c-1-0.5-1.3-0.8-0.8-0.8c0.4-0.1,1,0.2,1.1,0.5s0.7,0.5,1.2,0.5
			c0.4,0,1.3,0.4,1.8,0.8c0.9,0.7,0.9,0.7-0.4,0.8C269.2,54.9,268.6,54.7,268.6,54.5z"/>
		<path class="st2" d="M240.2,51.6c-2.5-1.3-2.6-1.4-2.3-1.8c0.2-0.2,0.8,0,1.3,0.3c0.8,0.5,1.3,0.4,2.2-0.2
			c0.9-0.6,1.4-0.7,2.6-0.2c0.9,0.3,3,0.4,5,0.3c3.1-0.3,3.2-0.2,1.7,0.3c-1,0.4-2,0.9-2.4,1.2s-1.9,0.7-3.3,0.9
			C242.9,52.7,241.9,52.5,240.2,51.6z"/>
		<path class="st2" d="M216.8,43.5c-0.6-0.1-1.1-0.4-1.1-0.7c0-0.8,3.6-2,5.3-1.7c1,0.2,1.9,0,2.1-0.3c0.2-0.4,2-0.6,4.6-0.6
			c3.8,0,4.3-0.1,4.6-1c0.2-0.7,0.9-1.1,3.4-1.3c1.7-0.2,3.7-0.5,4.4-0.6c1.2-0.3,1.3-0.2,1.3,1.5v1.8l-4.1,0.3
			c-2.3,0.2-4.8,0.7-5.5,1.1c-0.8,0.4-3.8,0.9-7,1.1c-3,0.2-5.9,0.4-6.3,0.5C218.2,43.6,217.3,43.6,216.8,43.5z"/>
		<path class="st2" d="M263.8,42.7c-0.7-0.2-2.2-0.4-3.4-0.4c-1.2-0.1-2.4-0.2-2.6-0.4c-1.1-1.2-4.2-1.7-8.7-1.5l-4.7,0.3l0.2-1.3
			c0.1-0.7,0-1.5-0.2-1.6c-0.2-0.2-0.4-0.6-0.4-1.1c0-0.9,2.5-1,3.3-0.1c0.4,0.4,0.7,0.4,1.3-0.1c1-1,5.8-0.2,6.8,1
			c0.6,0.8,1.1,0.9,2,0.5c0.6-0.3,1.4-0.3,1.6-0.2c0.3,0.2,1.6,0.5,3,0.7c4.8,0.8,7.3,1.6,7.6,2.2c0.2,0.4,1.3,0.6,2.5,0.7
			c1.6,0,2.1,0.2,2.2,1c0.1,0.9-0.2,1-4.6,0.8C267.1,43.1,264.5,42.9,263.8,42.7z"/>
	</g>
</g>
</svg>
 