<svg xmlns="http://www.w3.org/2000/svg" fill="currentColor" viewBox="0 0 64 64"><path d="M27.458 29.361H4.56c-.794 0-1.444-.65-1.444-1.444V5.018c0-.794.65-1.444 1.444-1.444h22.887c.794 0 1.444.65 1.444 1.444v22.887a1.433 1.433 0 0 1-1.432 1.456zm32.129 0H36.7c-.794 0-1.444-.65-1.444-1.444V5.018c0-.794.65-1.444 1.444-1.444h22.887c.794 0 1.444.65 1.444 1.444v22.887a1.45 1.45 0 0 1-1.444 1.456zM27.543 61.177H4.655c-.794 0-1.443-.65-1.443-1.444V36.846c0-.794.65-1.444 1.443-1.444h22.888c.794 0 1.444.65 1.444 1.444v22.887c0 .794-.65 1.444-1.444 1.444zm32.14 0H36.784c-.794 0-1.444-.65-1.444-1.444V36.846c0-.794.65-1.444 1.444-1.444h22.887c.794 0 1.444.65 1.444 1.444v22.887a1.43 1.43 0 0 1-1.432 1.444z"/></svg>