<svg xmlns="http://www.w3.org/2000/svg" viewBox="0 0 64 64" fill="currentColor"><path d="M41.6 45.5c-12 9.1-27.1 5.3-34.6-4.1C-1 31.3.1 17.1 9.1 8.3c9-8.7 23.1-9.3 32.8-1.4 9.7 7.9 12.6 22.9 3.9 34.4.2.2.3.4.5.5l15 15c1.2 1.2 1.3 2.7.5 3.9-1 1.6-3.2 1.8-4.6.4l-4.6-4.6C49.1 53 45.5 49.4 42 45.8c-.1-.1-.3-.2-.4-.3zM26.3 7.3C16 7.3 7.6 15.7 7.6 26c0 10.3 8.4 18.7 18.7 18.7C36.7 44.7 45 36.3 45 26c0-10.3-8.4-18.7-18.7-18.7z"/><path d="M27.8 14.8v8.8h8.4v3.8h-8.4v8.9h-4v-8.9h-8.5v-3.8h8.5v-8.8h4z"/></svg>