<svg xmlns="http://www.w3.org/2000/svg" fill="currentColor" viewBox="0 0 64 64"><path d="M63.998 61.676H60.61c-.467 0-.818-.116-1.051-.584-.584-1.05-1.285-2.102-1.986-3.27-.583.935-1.284 1.869-1.751 2.803-.35.818-.935 1.051-1.752 1.051-.935-.116-1.752 0-2.803 0 .117-.233.233-.35.35-.584 1.051-1.635 2.22-3.386 3.27-5.021.35-.468.234-.701 0-1.168a341.476 341.476 0 0 0-3.27-5.022h3.737c.117 0 .35.233.468.467.584 1.051 1.168 2.102 1.868 3.153l1.752-3.153c.234-.467.467-.584.934-.584h3.27c-1.284 2.102-2.452 3.97-3.62 5.84 1.401 1.985 2.686 3.97 3.97 5.839v.233zM33.983 28.625v7.592c0 .467.117.7.584.934a754.789 754.789 0 0 1 13.08 7.591c1.052.584 1.168 1.168.584 2.219-.467.7-.817 1.518-1.284 2.219-.584.934-1.168 1.051-2.102.584-3.738-2.102-7.475-4.321-11.095-6.423-.584-.35-1.168-.584-1.752-1.051-.584-.468-1.051-.35-1.635 0-4.205 2.452-8.526 4.905-12.73 7.357-1.168.7-1.635.467-2.336-.584-.467-.7-.817-1.401-1.285-2.219-.467-.934-.35-1.518.584-1.985a474.812 474.812 0 0 1 13.08-7.475c.468-.233.585-.584.585-1.05V21.267c0-1.285.35-1.752 1.751-1.752h2.453c1.168 0 1.635.467 1.635 1.635-.117 2.452-.117 5.022-.117 7.474zM-.002 61.443v-1.986c0-.233.233-.584.35-.7 1.869-1.986 3.62-3.854 5.49-5.723.116-.117.35-.35.583-.7H.7V49.88h10.16c0 1.05.234 2.102-.7 3.153-1.87 1.752-3.504 3.62-5.256 5.372-.117.117-.35.35-.584.701h6.774v2.453c-3.738-.117-7.358-.117-11.095-.117zm33.168-46.015h-3.62v-4.087c0-.468-.118-.935-.351-1.285a159.258 159.258 0 0 1-3.737-5.723c-.117-.116-.234-.233-.35-.584h3.737c.233 0 .35.234.467.468.7 1.167 1.401 2.218 2.102 3.503a65.309 65.309 0 0 1 1.752-2.92c.35-.817.934-1.05 1.752-1.05.817.116 1.751 0 2.686 0-.117.233-.234.35-.35.583-1.285 1.869-2.57 3.854-3.855 5.723-.233.35-.35.817-.35 1.168.117 1.401.117 2.803.117 4.204z"/></svg>