<svg id="Layer_1" fill="currentColor" height="512" viewBox="0 0 128 128" width="512" xmlns="http://www.w3.org/2000/svg" data-name="Layer 1"><path d="m15.479 23.2a1.75 1.75 0 0 0 -2.987 1.237v90.563a1.75 1.75 0 0 0 1.75 1.75h90.558a1.75 1.75 0 0 0 1.237-2.987zm71.06 90.051v-6.3a1.75 1.75 0 0 0 -3.5 0v6.3h-6.63v-3.861a1.75 1.75 0 0 0 -3.5 0v3.861h-6.63v-6.3a1.75 1.75 0 0 0 -3.5 0v6.3h-6.63v-3.861a1.75 1.75 0 0 0 -3.5 0v3.861h-6.63v-6.3a1.75 1.75 0 1 0 -3.5 0v6.3h-6.63v-3.861a1.75 1.75 0 0 0 -3.5 0v3.861h-6.63v-6.3a1.75 1.75 0 0 0 -3.5 0v6.3h-6.267v-84.59l84.588 84.589z"/><path d="m29.2 101.789h39.485a1.75 1.75 0 0 0 1.237-2.989l-39.482-39.481a1.75 1.75 0 0 0 -2.987 1.237v39.482a1.75 1.75 0 0 0 1.747 1.751zm1.75-37.007 33.51 33.507h-33.507z"/><path d="m115 78.261-66.5-66.5a1.749 1.749 0 0 0 -2.475 0l-11.7 11.7a1.749 1.749 0 0 0 0 2.475l66.5 66.5a1.749 1.749 0 0 0 2.475 0l11.7-11.7a1.749 1.749 0 0 0 0-2.475zm-12.942 10.463-7.009-7.009 5.06-5.06a1.75 1.75 0 1 0 -2.475-2.475l-5.06 5.06-5.447-5.447 3.15-3.15a1.75 1.75 0 0 0 -2.477-2.475l-3.15 3.15-5.447-5.447 5.06-5.06a1.75 1.75 0 0 0 -2.475-2.475l-5.06 5.06-5.447-5.447 3.15-3.15a1.75 1.75 0 0 0 -2.475-2.475l-3.15 3.15-5.447-5.447 5.059-5.06a1.75 1.75 0 0 0 -2.475-2.475l-5.059 5.06-5.444-5.446 3.15-3.15a1.75 1.75 0 0 0 -2.475-2.475l-3.15 3.15-5.447-5.447 5.059-5.06a1.75 1.75 0 0 0 -2.477-2.475l-5.059 5.06-7.006-7.009 9.225-9.225 64.023 64.025z"/></svg>