<svg xmlns="http://www.w3.org/2000/svg" viewBox="0 0 64 64" fill="currentColor"><path d="M31.1 59.7c-3.2-2.1-6.4-4.1-9.6-6.2C15 49.3 8.4 45.1 1.8 40.8c-.2-.1-.4-.2-.6-.4.2-.1.4-.3.5-.4 2-1.3 4-2.5 5.9-3.8.4-.3.7-.3 1.2 0 7.5 4.9 15.1 9.7 22.6 14.5.4.3.7.3 1.1 0 7.6-4.9 15.1-9.7 22.7-14.6.4-.3.7-.3 1.1 0 2 1.3 4 2.6 6 3.8.2.1.3.2.5.4-.3.2-.5.3-.7.5L33.6 59.1c-.2.1-1.3.9-1.5 1.1-.5-.2-.5-.2-1-.5z"/><path d="M1.2 23.7c.2-.1.4-.3.5-.4 9.9-6.4 19.8-12.7 29.7-19.1.4-.3.7-.3 1.1 0 9.9 6.4 19.8 12.8 29.8 19.1.1.1.3.2.5.3-.2.1-.4.3-.6.4-9.9 6.3-19.8 12.7-29.7 19.1-.4.3-.7.3-1.1 0C21.5 36.7 11.6 30.4 1.7 24c-.1-.1-.3-.2-.5-.3z"/></svg>