<!DOCTYPE svg PUBLIC "-//W3C//DTD SVG 20010904//EN" "http://www.w3.org/TR/2001/REC-SVG-20010904/DTD/svg10.dtd">
<svg version="1.0" xmlns="http://www.w3.org/2000/svg" width="1427px" height="1600px" viewBox="0 0 14270 16000" preserveAspectRatio="xMidYMid meet">
<g id="layer101" fill="currentColor" stroke="none">
 <path d="M14265 8000 c0 -4403 1 -6204 2 -4003 2 2202 2 5804 0 8005 -1 2202 -2 401 -2 -4002z"/>
 <path d="M9500 15812 c-105 -33 -152 -67 -202 -147 -46 -74 -48 -104 -48 -614 l0 -479 -382 -4 c-372 -3 -384 -4 -432 -26 -27 -12 -52 -22 -57 -22 -17 0 -106 -66 -155 -116 -28 -28 -64 -75 -79 -105 -57 -113 -55 -64 -55 -1291 0 -1001 2 -1137 16 -1192 18 -68 32 -98 86 -172 33 -46 123 -124 144 -124 4 0 15 -6 23 -14 9 -7 51 -25 94 -40 l77 -26 360 0 359 0 3 -592 3 -593 28 -55 c43 -87 91 -131 189 -172 l53 -23 1605 0 1605 0 68 29 c37 15 67 32 67 37 0 5 5 9 11 9 13 0 69 55 69 68 0 6 5 12 11 14 5 2 19 30 30 62 18 56 19 92 19 638 l0 578 360 0 c352 0 361 1 432 24 105 34 152 61 216 125 70 69 92 97 92 116 0 8 4 15 9 15 5 0 12 10 16 23 4 12 14 42 23 67 14 39 16 182 19 1155 3 1008 2 1117 -13 1195 -20 100 -58 173 -129 247 -46 48 -134 113 -154 113 -5 0 -30 10 -57 22 -48 22 -60 23 -431 26 l-383 4 0 484 c0 505 -3 549 -43 609 -52 77 -118 125 -203 148 -55 16 -196 17 -1635 16 -1446 -1 -1578 -2 -1629 -17z m3189 -243 c17 -6 36 -19 41 -29 6 -12 10 -454 10 -1214 l0 -1196 -1610 0 -1610 0 0 1193 c0 1079 2 1195 16 1215 9 13 26 27 38 32 33 14 3076 12 3115 -1z m-3439 -1913 c0 -727 -2 -705 60 -751 l34 -25 1783 0 1784 0 38 22 c23 13 43 34 50 53 8 22 11 228 11 698 l0 667 348 0 347 0 50 -26 c70 -37 99 -67 129 -134 l26 -58 -2 -1109 c-3 -1077 -4 -1109 -23 -1148 -26 -54 -94 -115 -152 -137 -46 -17 -156 -18 -2603 -17 -2365 0 -2559 2 -2603 17 -57 21 -121 80 -148 138 -18 42 -19 76 -19 1161 l0 1119 26 52 c27 54 59 84 129 121 38 20 53 21 387 21 l348 0 0 -664z m3490 -2783 l0 -567 -22 -23 -21 -23 -1564 0 -1564 0 -24 25 -25 24 0 566 0 565 1610 0 1610 0 0 -567z"/>
 <path d="M10188 15134 c-53 -16 -76 -43 -84 -96 -9 -52 17 -103 65 -127 40 -21 51 -21 968 -21 l928 0 39 23 c68 38 82 141 27 191 -50 45 -46 45 -996 45 -760 0 -907 -3 -947 -15z"/>
 <path d="M10159 14457 c-45 -30 -61 -63 -56 -116 4 -32 13 -52 36 -75 l31 -31 964 0 964 0 25 23 c58 55 52 152 -12 196 l-37 26 -941 0 -940 0 -34 -23z"/>
 <path d="M10176 13803 c-10 -3 -31 -17 -45 -31 -22 -22 -26 -35 -26 -85 0 -54 3 -62 30 -84 17 -13 40 -29 53 -34 14 -5 398 -9 949 -9 l926 0 42 25 c34 19 45 33 53 65 12 50 -1 100 -35 132 l-25 23 -951 1 c-524 1 -961 0 -971 -3z"/>
 <path d="M8903 12369 c-29 -27 -33 -36 -33 -84 0 -82 48 -125 137 -125 118 1 164 125 80 218 -17 18 -31 22 -86 22 -60 0 -69 -3 -98 -31z"/>
 <path d="M1601 14989 c-405 -9 -523 -20 -584 -54 -78 -44 -167 -140 -222 -238 -49 -88 -55 -128 -65 -387 -5 -142 -9 -2989 -10 -6788 l0 -6543 65 -82 c36 -45 69 -87 74 -93 5 -6 16 -24 24 -41 52 -99 196 -128 772 -153 289 -13 10294 -13 10705 0 396 13 456 20 535 68 115 69 219 200 262 331 24 73 36 2721 28 6039 l-7 2792 -119 0 -119 0 -1 -1057 c-1 -582 -4 -2564 -7 -4406 l-7 -3347 -59 -53 c-32 -28 -79 -71 -105 -94 l-46 -42 -5765 -1 -5765 0 -46 43 c-25 23 -74 67 -107 97 l-62 54 0 6761 0 6760 98 103 97 102 3533 0 3532 0 0 120 0 120 -3147 -2 c-1732 0 -3298 -5 -3482 -9z"/>
 <path d="M1664 14013 c3 -71 9 -172 13 -225 l6 -98 1452 0 1452 0 6 58 c4 31 7 131 9 222 l2 165 -1474 3 -1473 2 7 -127z"/>
 <path d="M2495 13160 c-236 -4 -521 -11 -633 -15 l-202 -8 2 -206 3 -206 1468 -3 1467 -2 0 225 0 225 -837 -2 c-461 -1 -1031 -5 -1268 -8z"/>
 <path d="M6736 11929 c-100 -6 -174 -15 -225 -29 -42 -12 -111 -31 -153 -43 l-78 -22 0 -50 c0 -27 9 -122 19 -210 11 -88 24 -205 30 -260 5 -55 16 -139 23 -187 l12 -88 44 0 c24 0 80 9 125 21 77 19 102 20 397 16 312 -5 383 -12 507 -51 17 -6 21 -1 27 31 3 21 6 60 6 86 0 26 9 122 20 212 15 118 20 209 18 326 l-3 163 -45 17 c-94 36 -224 58 -380 64 -85 3 -164 7 -175 9 -11 1 -87 -1 -169 -5z"/>
 <path d="M6720 10914 c-14 -2 -70 -11 -125 -20 -143 -23 -210 -48 -226 -85 -14 -36 -10 -81 47 -529 23 -172 16 -162 89 -138 51 16 99 20 325 24 240 5 358 0 480 -22 55 -9 69 15 85 138 16 122 32 301 40 451 5 98 4 107 -12 107 -10 0 -49 9 -88 19 -127 35 -267 54 -430 57 -88 1 -171 1 -185 -2z"/>
 <path d="M3685 10866 c-5 -2 -50 -9 -100 -16 -262 -34 -532 -235 -712 -529 -25 -39 -106 -202 -133 -266 -62 -144 -123 -362 -160 -565 -46 -258 -83 -436 -117 -570 -8 -30 -18 -147 -24 -260 -18 -412 -38 -635 -63 -722 -52 -185 -74 -740 -33 -858 17 -51 37 -323 37 -506 0 -66 5 -200 11 -299 12 -184 22 -237 94 -480 14 -49 30 -127 35 -172 9 -92 39 -194 75 -263 13 -25 31 -59 39 -76 8 -17 22 -36 30 -44 9 -7 16 -18 16 -25 0 -8 3 -15 8 -17 4 -1 27 -30 52 -62 25 -33 74 -89 110 -126 36 -37 98 -102 139 -144 81 -84 74 -82 166 -44 87 35 136 62 149 83 7 11 16 57 20 103 6 80 31 165 55 193 69 82 125 138 176 179 63 50 227 140 255 140 9 0 20 4 26 9 13 13 326 111 352 111 8 0 46 9 85 19 125 34 306 60 492 71 288 17 746 30 1074 30 l303 0 -7 103 c-4 56 -10 122 -14 147 l-6 45 -295 8 c-485 13 -953 -2 -1225 -40 -60 -8 -130 -17 -155 -19 -104 -11 -456 -88 -502 -111 -15 -7 -36 -13 -48 -13 -12 0 -40 -9 -62 -20 -23 -11 -48 -20 -55 -20 -38 0 -362 -167 -371 -191 -2 -5 -8 -9 -14 -9 -16 0 -142 -108 -184 -158 -41 -50 -124 -169 -124 -180 -1 -4 -10 -18 -21 -31 l-20 -25 -26 30 c-109 125 -160 244 -170 394 -4 70 -2 96 16 150 12 36 31 77 42 92 10 15 19 30 19 33 0 5 23 34 80 98 61 69 198 175 325 249 54 32 294 148 305 148 6 0 32 8 58 19 232 91 473 126 877 126 483 0 764 -34 1365 -165 117 -25 155 -26 165 -2 4 9 10 76 13 148 l4 130 -39 12 c-22 7 -48 12 -58 12 -9 0 -49 9 -88 19 -137 37 -418 92 -602 118 -114 16 -201 18 -705 18 -519 0 -584 -2 -670 -19 -161 -31 -391 -100 -505 -151 -16 -7 -57 -25 -90 -40 -64 -29 -78 -35 -134 -68 -20 -11 -45 -25 -56 -31 -16 -9 -106 -68 -183 -121 -8 -5 -27 -21 -41 -34 -14 -13 -52 -44 -83 -69 -32 -25 -58 -49 -58 -53 0 -5 -7 -9 -15 -9 -8 0 -19 -9 -25 -20 -6 -11 -15 -20 -21 -20 -6 0 -17 -7 -25 -15 -34 -34 -36 -18 -31 193 8 288 33 397 125 542 39 63 156 181 222 225 25 16 47 33 50 36 7 8 174 92 225 112 355 143 904 160 1460 46 195 -40 346 -80 560 -149 217 -70 263 -87 363 -131 23 -10 48 -19 55 -19 6 -1 30 -9 52 -20 22 -11 45 -19 51 -20 6 0 26 -7 44 -16 18 -9 46 -20 64 -25 17 -4 50 -13 74 -20 37 -10 45 -9 62 6 17 15 20 31 20 105 0 48 -3 102 -6 120 -10 46 -60 91 -140 123 -38 16 -86 37 -107 48 -22 10 -44 19 -50 19 -7 0 -25 7 -40 15 -15 8 -42 19 -60 24 -18 6 -63 22 -102 36 -38 14 -92 32 -120 40 -27 7 -70 20 -95 29 -217 74 -571 150 -917 196 -225 30 -658 29 -828 -1 -117 -21 -294 -64 -365 -89 -113 -39 -154 -56 -235 -96 -132 -65 -178 -94 -311 -200 l-91 -72 -13 85 c-22 141 10 383 78 583 14 41 31 82 39 91 7 8 13 19 13 23 0 5 14 26 32 48 26 34 55 60 165 148 19 15 190 100 202 100 6 0 39 9 73 19 195 60 555 59 853 -1 151 -30 401 -95 460 -118 17 -7 44 -16 60 -20 29 -8 98 -33 215 -80 30 -12 72 -28 93 -36 92 -34 480 -223 485 -236 2 -4 10 -8 19 -8 8 0 27 -8 41 -18 15 -10 52 -31 82 -46 30 -16 62 -34 70 -41 8 -6 26 -16 40 -23 14 -7 34 -18 44 -24 44 -29 132 -83 151 -94 11 -6 36 -21 55 -32 19 -12 46 -28 60 -35 14 -6 36 -20 50 -29 14 -9 37 -20 52 -23 37 -9 45 11 58 141 16 167 16 165 -32 194 -23 14 -55 34 -72 45 -17 12 -38 24 -46 28 -8 4 -33 18 -55 32 -22 13 -56 34 -75 45 -19 11 -42 25 -50 30 -22 14 -135 79 -205 117 -93 50 -388 194 -475 231 -121 51 -150 63 -215 87 -38 14 -85 32 -103 40 -18 8 -38 15 -45 15 -6 0 -34 8 -62 19 -156 58 -389 117 -645 160 -221 38 -636 36 -805 -4 -93 -22 -265 -77 -271 -87 -3 -4 -12 -8 -21 -8 -8 0 -29 -6 -46 -14 -125 -55 -151 -66 -163 -66 -10 0 -14 15 -14 54 0 57 41 269 65 339 8 23 15 49 15 57 0 17 34 108 61 163 11 22 19 43 19 49 0 30 115 152 201 214 141 101 205 116 541 121 291 5 289 6 493 -63 176 -58 203 -69 293 -113 24 -11 49 -21 55 -21 7 0 23 -9 37 -20 14 -11 32 -20 40 -20 8 0 26 -9 40 -20 14 -11 33 -20 42 -20 9 0 18 -4 20 -8 2 -5 37 -27 78 -50 76 -43 105 -61 124 -75 56 -40 84 -58 99 -63 9 -4 17 -9 17 -13 0 -3 18 -17 40 -31 22 -14 40 -28 40 -32 0 -5 5 -8 11 -8 6 0 34 -19 63 -42 29 -24 65 -52 80 -63 16 -11 36 -27 45 -35 9 -9 55 -48 102 -88 137 -115 248 -217 457 -422 179 -176 285 -270 305 -270 19 0 32 59 47 209 13 135 13 157 -3 173 -33 32 -318 300 -377 354 -35 32 -74 69 -86 82 -12 12 -26 22 -33 22 -6 0 -11 4 -11 8 0 5 -41 42 -91 83 -51 41 -99 82 -108 92 -8 9 -21 17 -27 17 -7 0 -14 4 -16 9 -4 11 -137 111 -148 111 -4 0 -10 4 -12 8 -2 7 -107 78 -308 211 -14 9 -47 28 -75 41 -27 14 -52 28 -55 31 -7 9 -248 128 -305 151 -167 67 -277 105 -400 136 -183 47 -239 55 -442 59 -250 6 -308 -3 -594 -98 -30 -11 -67 -19 -82 -19 -24 0 -25 2 -20 38 3 20 14 54 24 74 11 21 19 42 19 47 0 12 72 171 95 211 8 14 27 49 42 79 44 84 278 311 322 311 5 0 25 8 43 19 18 10 76 28 129 41 83 19 116 22 230 18 215 -8 386 -53 614 -165 116 -56 131 -65 260 -153 74 -50 145 -105 145 -112 0 -4 6 -8 13 -8 7 0 20 -8 29 -17 9 -10 23 -23 30 -29 147 -118 424 -388 550 -536 45 -54 86 -98 90 -98 5 0 8 -7 8 -15 0 -8 9 -19 20 -25 11 -6 20 -15 20 -20 0 -4 9 -19 20 -32 58 -70 186 -239 215 -287 6 -9 24 -36 40 -60 17 -24 35 -51 40 -60 6 -9 24 -36 40 -60 17 -24 35 -51 40 -60 14 -22 67 -93 83 -109 18 -20 39 -8 59 35 14 31 17 68 18 208 0 161 -1 173 -25 220 -20 41 -89 147 -122 190 -5 6 -38 48 -74 95 -37 47 -74 93 -83 102 -9 9 -21 23 -26 30 -54 68 -315 345 -446 475 -239 235 -402 370 -544 449 -16 9 -32 20 -35 24 -10 13 -213 120 -332 175 -145 66 -306 115 -438 134 -83 12 -365 25 -385 17z"/>
 <path d="M6725 10049 c-55 -4 -144 -18 -197 -30 -93 -21 -98 -24 -98 -48 1 -154 41 -595 55 -609 3 -3 44 3 92 12 123 25 288 46 353 46 63 -1 222 -22 291 -40 25 -6 59 -10 75 -8 29 3 29 4 41 98 46 364 52 474 25 505 -30 37 -143 63 -317 75 -174 11 -174 11 -320 -1z"/>
 <path d="M8149 9757 c-41 -46 -92 -105 -114 -131 -22 -26 -47 -55 -56 -64 -9 -10 -40 -48 -69 -87 -29 -38 -56 -72 -59 -75 -17 -12 -122 -182 -153 -245 -32 -69 -33 -72 -32 -200 1 -98 7 -150 23 -210 12 -43 25 -83 29 -87 5 -5 23 20 41 54 19 35 42 72 52 84 11 11 19 23 19 27 0 3 15 27 33 53 17 25 37 53 42 62 6 9 16 22 23 30 7 8 19 27 27 43 9 16 20 29 25 29 6 0 10 4 10 10 0 5 16 31 36 57 111 149 171 228 187 244 9 11 17 23 17 29 0 5 9 14 20 20 11 6 20 17 20 25 0 8 4 15 9 15 4 0 25 21 45 48 48 60 163 188 244 268 34 35 62 67 62 73 0 8 -66 11 -204 11 l-204 0 -73 -83z"/>
 <path d="M10100 9834 c-14 -2 -72 -11 -130 -20 -160 -23 -344 -69 -460 -114 -190 -75 -389 -172 -535 -261 -16 -10 -46 -28 -65 -39 -131 -77 -373 -250 -545 -389 -71 -57 -95 -78 -165 -141 -9 -8 -38 -35 -66 -59 -70 -64 -265 -244 -347 -323 l-70 -68 6 -168 c6 -183 15 -226 44 -215 10 4 23 12 28 18 6 7 42 40 80 75 39 35 148 138 244 229 95 91 192 184 216 206 57 54 159 142 212 184 24 18 43 38 43 42 0 5 6 9 13 9 7 0 20 8 29 18 9 9 23 22 30 27 7 6 43 34 80 63 37 28 72 52 78 52 5 0 10 4 10 8 0 4 13 16 30 25 16 10 35 23 43 30 14 13 35 27 87 57 19 11 47 28 62 38 113 73 409 229 468 247 14 4 34 14 45 21 11 8 25 14 32 14 7 0 32 8 56 19 52 23 157 54 262 78 118 27 569 26 668 -1 66 -17 148 -57 175 -83 7 -7 16 -13 20 -13 14 0 106 -95 152 -155 41 -54 140 -241 140 -263 0 -4 9 -36 20 -72 25 -83 60 -283 60 -343 0 -53 -9 -57 -63 -33 -18 8 -61 26 -97 41 -36 15 -83 35 -105 45 -62 28 -136 52 -185 61 -25 4 -61 13 -80 19 -48 15 -286 39 -390 40 -267 1 -698 -74 -924 -161 -27 -11 -55 -19 -63 -19 -8 0 -35 -8 -61 -19 -26 -10 -74 -28 -107 -40 -236 -87 -595 -255 -900 -421 -60 -33 -123 -67 -140 -75 -16 -9 -50 -29 -75 -45 -25 -16 -52 -33 -60 -37 -44 -20 -123 -89 -137 -118 -14 -30 -15 -51 -6 -165 6 -72 13 -133 16 -137 10 -10 92 28 192 90 77 48 172 108 180 114 24 18 72 45 98 54 15 6 27 15 27 19 0 4 12 13 28 19 15 6 50 24 77 41 28 17 57 33 65 36 8 3 26 12 40 20 14 8 68 35 120 60 52 26 103 51 113 55 41 21 80 39 182 84 69 31 226 94 283 114 17 6 47 16 65 23 378 134 660 188 967 188 371 -1 673 -89 817 -239 39 -40 103 -161 140 -261 50 -136 93 -345 93 -453 0 -40 -26 -173 -36 -186 -1 -1 -47 32 -101 75 -54 44 -106 84 -115 89 -9 6 -37 25 -62 43 -26 17 -54 32 -62 32 -7 0 -14 3 -14 8 0 6 -58 35 -175 87 -22 10 -53 21 -70 25 -16 4 -50 15 -75 24 -78 27 -200 54 -335 76 -188 29 -593 29 -820 -1 -261 -33 -538 -90 -775 -159 -130 -37 -417 -132 -490 -161 -25 -9 -72 -27 -105 -39 -33 -12 -85 -31 -115 -42 -106 -39 -130 -51 -134 -67 -9 -34 -17 -240 -10 -275 5 -32 10 -37 28 -33 24 6 136 46 216 77 30 12 73 29 95 37 22 8 54 20 70 28 17 7 39 15 50 18 11 3 52 18 90 32 39 15 88 32 110 39 22 6 60 19 85 27 83 30 321 99 339 99 7 0 45 9 84 19 205 55 468 96 720 112 466 30 867 -51 1133 -227 71 -48 193 -161 230 -216 16 -24 32 -45 35 -48 9 -8 55 -100 77 -155 11 -27 30 -93 42 -145 18 -82 21 -119 18 -267 -2 -94 -6 -175 -10 -179 -7 -6 -85 51 -113 82 -30 33 -278 224 -291 224 -4 0 -15 7 -25 16 -20 18 -42 30 -177 97 -146 73 -178 87 -194 87 -8 0 -18 4 -23 9 -24 22 -299 103 -440 130 -202 39 -1123 36 -1390 -4 -199 -29 -471 -85 -722 -147 l-43 -11 0 -132 c0 -74 3 -140 6 -149 8 -22 49 -21 164 4 52 12 133 29 180 40 478 104 601 115 1260 107 386 -4 447 -7 545 -26 162 -31 261 -60 390 -116 55 -24 240 -117 245 -124 3 -3 31 -24 64 -46 62 -42 92 -68 196 -170 80 -78 115 -119 142 -167 12 -21 25 -38 30 -38 4 0 8 -6 8 -13 0 -8 8 -29 18 -48 12 -24 18 -64 20 -140 3 -91 1 -114 -18 -160 -12 -30 -26 -61 -31 -69 -5 -8 -17 -31 -28 -50 -11 -19 -32 -49 -48 -67 -15 -17 -39 -46 -53 -62 l-25 -31 -17 22 c-10 13 -18 30 -18 38 0 8 -9 26 -20 40 -11 14 -20 28 -20 32 -1 31 -225 268 -254 268 -5 0 -19 8 -30 19 -12 10 -46 32 -76 48 -30 16 -64 35 -75 41 -17 9 -97 46 -160 73 -44 19 -142 51 -175 58 -19 4 -44 12 -55 18 -11 6 -43 16 -70 21 -28 5 -79 17 -115 26 -116 28 -213 46 -290 55 -41 5 -127 16 -190 24 -254 34 -715 56 -1181 57 -226 0 -299 -3 -307 -12 -13 -18 -52 -251 -43 -261 25 -26 163 -38 531 -47 838 -20 1113 -40 1337 -101 39 -10 77 -19 85 -19 13 0 102 -26 213 -62 294 -96 491 -218 582 -360 34 -54 73 -161 73 -203 0 -97 41 -152 132 -179 121 -35 137 -26 335 174 51 52 102 104 112 115 28 30 141 202 141 214 0 6 8 25 18 43 22 40 49 157 58 253 4 38 24 122 45 185 68 209 77 256 88 505 27 568 33 678 49 800 25 188 24 556 -2 685 -10 52 -27 120 -37 150 -32 96 -49 259 -55 528 -5 266 -24 445 -64 602 -44 174 -53 219 -60 301 -10 112 -35 224 -92 417 l-10 32 -160 0 -160 0 7 -22 c4 -13 9 -40 12 -60 6 -45 -1 -47 -79 -20 -233 81 -297 93 -518 97 -102 2 -196 1 -210 -1z"/>
 <path d="M6735 9244 c-85 -7 -256 -46 -262 -60 -8 -23 15 -335 33 -441 21 -118 33 -132 99 -114 62 17 418 25 505 12 170 -27 166 -27 179 10 7 19 16 82 21 140 5 59 16 173 25 253 10 81 16 149 14 151 -2 2 -56 13 -119 24 -113 20 -384 34 -495 25z"/>
 <path d="M6805 8460 c-22 -5 -71 -14 -109 -20 -93 -14 -153 -42 -167 -77 -7 -20 -5 -69 10 -191 12 -90 21 -180 21 -201 0 -20 6 -45 13 -55 15 -20 38 -18 234 20 104 20 154 18 283 -15 87 -22 118 -26 127 -18 15 16 53 195 53 254 0 42 7 103 25 209 l5 32 -87 20 c-200 46 -332 59 -408 42z"/>
 <path d="M6888 7618 c-24 -23 -75 -89 -93 -120 -52 -87 -115 -202 -115 -209 0 -5 -8 -28 -19 -51 -36 -82 -52 -144 -62 -228 -23 -220 -30 -318 -38 -581 -14 -410 -44 -608 -116 -749 -23 -45 -162 -200 -180 -200 -9 0 -97 -72 -153 -124 -134 -126 -187 -320 -130 -473 24 -63 66 -123 86 -123 6 0 12 -4 12 -9 0 -11 57 -26 80 -22 36 6 196 96 237 133 36 33 170 92 248 110 129 29 409 24 580 -10 37 -8 191 -80 218 -102 25 -22 88 -60 98 -60 5 0 22 -8 36 -17 31 -21 86 -43 124 -50 47 -9 100 37 148 127 22 39 25 58 25 145 -1 87 -4 109 -28 164 -42 99 -118 195 -206 259 -172 128 -310 349 -339 542 -19 126 -31 307 -31 470 -1 376 -40 688 -105 840 -31 72 -93 189 -106 200 -3 3 -17 23 -31 45 -34 55 -89 115 -104 115 -7 0 -23 -10 -36 -22z"/>
 <path d="M6635 4749 c-33 -5 -71 -13 -85 -18 -14 -6 -44 -13 -67 -16 -24 -4 -45 -11 -48 -16 -8 -11 13 -386 28 -519 l12 -105 65 3 c36 2 104 12 152 23 120 26 323 26 433 0 44 -11 107 -21 139 -23 l60 -3 8 35 c10 45 32 371 33 475 0 115 -9 126 -121 149 -103 21 -507 31 -609 15z"/>
 <path d="M6760 3974 c-125 -18 -273 -54 -283 -68 -8 -13 -2 -209 15 -408 l11 -138 397 0 398 0 6 31 c3 17 6 50 6 74 0 23 7 86 15 141 20 130 19 227 -1 270 -14 30 -25 36 -97 58 -88 27 -270 57 -333 55 -22 -1 -82 -7 -134 -15z"/>
 <path d="M2970 2975 l0 -395 -380 0 -380 0 0 -105 0 -105 380 0 380 0 0 -390 0 -390 115 0 115 0 0 390 0 390 375 0 375 0 0 105 0 105 -375 0 -375 0 0 395 0 395 -115 0 -115 0 0 -395z"/>
 </g>

</svg>