<?xml version="1.0" encoding="utf-8"?>
<!-- Generator: Adobe Illustrator 22.0.0, SVG Export Plug-In . SVG Version: 6.00 Build 0)  -->
<svg version="1.1" id="Layer_1" xmlns="http://www.w3.org/2000/svg" xmlns:xlink="http://www.w3.org/1999/xlink" x="0px" y="0px"
	 viewBox="0 0 64 64" style="enable-background:new 0 0 64 64;" xml:space="preserve">
<style type="text/css">
	.st0{fill:currentColor;}
</style>
<g>
	<g>
		<path class="st0" d="M62.3,44.3V21.4c0-2.9-2.4-5.2-5.3-5.2h-6.4v-12c0-1.9-1.5-3.4-3.4-3.4h-31c-1.9,0-3.4,1.5-3.4,3.4v12H6.2
			c-2.9,0-5.3,2.3-5.3,5.2v22.9c0,2.9,2.4,5.2,5.3,5.2h6.4v10.1c0,1.9,1.5,3.4,3.4,3.4h31c1.9,0,3.4-1.5,3.4-3.4V49.6H57
			C59.9,49.6,62.3,47.2,62.3,44.3z M15.2,4.2c0-0.5,0.4-0.9,0.9-0.9h31c0.5,0,0.9,0.4,0.9,0.9v12H15.2V4.2z M48,59.6
			c0,0.5-0.4,0.9-0.9,0.9H16.1c-0.5,0-0.9-0.4-0.9-0.9V34.1H48L48,59.6L48,59.6z M59.8,44.3c0,1.5-1.2,2.7-2.8,2.7h-6.4V32.9
			c0-0.7-0.6-1.3-1.3-1.3H13.9c-0.7,0-1.3,0.6-1.3,1.3v14.2H6.2c-1.5,0-2.8-1.2-2.8-2.7V21.4c0-1.5,1.2-2.7,2.8-2.7H57
			c1.5,0,2.8,1.2,2.8,2.7V44.3L59.8,44.3z"/>
		<path class="st0" d="M10,23.9c-0.3,0-0.7,0.1-0.9,0.4c-0.2,0.2-0.4,0.6-0.4,0.9s0.1,0.6,0.4,0.9c0.2,0.2,0.6,0.4,0.9,0.4
			c0.3,0,0.7-0.1,0.9-0.4c0.2-0.2,0.4-0.6,0.4-0.9s-0.1-0.6-0.4-0.9C10.6,24,10.3,23.9,10,23.9z"/>
	</g>
</g>
<g>
	<g>
		<path d="M41.8,39.1c0.4,2.1,0.6,4.1,0.9,6.2c0.1,0.5,0.1,1-0.6,1.3c-0.2,0.1-0.4,0.4-0.3,0.6c0.1,0.2,0.4,0.3,0.7,0.3
			c0.2,0,0.4-0.2,0.6-0.2c0.2-0.1,0.5-0.3,0.7-0.3c0.7-0.1,0.8-0.3,0.5-0.9c-0.3-0.5-0.5-1-0.6-1.5c-0.2-1.3-0.5-2.6-0.6-3.9
			c-0.1-1.3-0.8-4.8,0.1-6.2c0.1-0.2-0.1-0.4-0.3-0.6c-0.1-0.1-0.5-0.1-0.5,0c-0.4,0.3-0.7,0.5-1.3,0.3c0,0-0.1,0-0.2,0
			c-0.5,0.1-0.3,0.4-0.2,0.7C41.1,35.6,41.7,38.5,41.8,39.1z"/>
		<path d="M20.3,47c0.3,0,0.5,0.2,0.7,0.3c0.2,0.1,0.4,0.3,0.6,0.2c0.2,0,0.6-0.2,0.7-0.3c0.1-0.1-0.1-0.5-0.3-0.6
			c-0.7-0.3-0.7-0.8-0.6-1.3c0.3-2.1,0.6-4.2,0.9-6.2c0.1-0.6,0.8-3.5,1.1-4c0.1-0.3,0.3-0.6-0.2-0.7c-0.1,0-0.1,0-0.2,0
			c-0.5,0.2-0.9,0-1.3-0.3c-0.1-0.1-0.4,0-0.5,0c-0.2,0.1-0.4,0.4-0.3,0.6c0.9,1.4,0.1,4.9,0,6.2c-0.1,1.3-0.3,2.6-0.6,3.9
			c-0.1,0.5-0.3,1-0.6,1.5C19.5,46.7,19.6,46.9,20.3,47z"/>
		<path d="M15.3,63L49,63c0.9,0,1.6-0.6,1.6-1.4l0-28.3c0-0.8-0.7-1.4-1.6-1.4l-33.7,0c-0.9,0-1.6,0.6-1.6,1.4l0,28.3
			C13.6,62.4,14.4,63,15.3,63z M30.6,48.1c-0.6-0.5-1.4-0.9-2.4-1.2c-0.6-0.2-1.2-0.3-1.7-0.3c-0.5-0.5-0.7-1-0.5-1.3
			c0.2-0.2,0.6-0.3,1.2-0.3c0.7,0,1.6,0.3,2.4,0.7c0.6,0.3,1.1,0.6,1.5,1C30.7,47.2,30.6,47.7,30.6,48.1z M29.8,55.6
			c-0.4-0.2-0.8-0.4-1.3-0.6c-0.5-0.1-0.9-0.2-1.4-0.3c0-0.1-0.1-0.1-0.1-0.2c-0.1-0.1-0.2-0.2-0.3-0.2c0,0,0,0,0,0
			c-0.1,0-0.3,0.1-0.3,0.2l-0.1,0.2c-0.1,0-0.2,0-0.3,0.1c-1.2-0.6-1.7-1.3-1.5-1.6c0.1-0.2,0.5-0.4,1.1-0.5c0.7-0.1,1.6,0,2.5,0.3
			c1.8,0.5,2.9,1.5,2.7,2.1C30.5,55.3,30.2,55.5,29.8,55.6z M30.1,57.1c-0.1,0.2-0.6,0.4-1.2,0.4c-0.2,0-0.3,0-0.5,0
			c-0.2-0.7-0.6-1.4-0.9-2c0.2,0,0.4,0.1,0.6,0.2c0.6,0.2,1.2,0.5,1.6,0.8C30.1,56.7,30.2,57,30.1,57.1z M24.2,50.6
			c0.1-0.2,0.5-0.4,1.1-0.5c0.7-0.1,1.6,0,2.5,0.3c1.8,0.5,2.9,1.5,2.7,2.1c-0.1,0.2-0.3,0.3-0.5,0.4c-0.5-0.3-1.1-0.5-1.7-0.7
			c-0.8-0.2-1.7-0.4-2.4-0.4c-0.2,0-0.4,0-0.6,0c-0.1,0-0.1,0-0.2,0C24.4,51.4,24.1,50.9,24.2,50.6z M24.2,48
			c0.1-0.2,0.5-0.4,1.1-0.5c0.7-0.1,1.6,0,2.5,0.3c1.8,0.5,2.9,1.5,2.7,2.1c-0.1,0.2-0.3,0.3-0.6,0.4c-0.5-0.3-1.1-0.5-1.7-0.7
			c-0.8-0.2-1.7-0.4-2.4-0.4c-0.2,0-0.4,0-0.6,0c0,0-0.1,0-0.1,0C24.5,48.8,24.1,48.3,24.2,48z M29.8,34.4c-0.3,0.2-0.5,0.6-0.9,0.6
			c-0.4,0-0.4-0.2-0.8-0.4c0.5-0.3,0.8-0.5,1.2-0.6C29.4,34.1,29.7,34.3,29.8,34.4z M29.1,36c1.4-1.4,4.8-0.7,5.5,0.2
			c0.6,0.6,0.5,1.3-0.1,1.7c-0.5,0.3-0.8,0.3-1.2-0.2c-0.3-0.4-0.7-0.8-1.2-1.2c-0.1-0.1-0.6-0.1-0.7,0c-0.4,0.3-0.8,0.7-1.2,1.1
			C30,37.8,29.6,38,29.4,38c-0.3-0.1-0.8-0.4-0.8-0.7C28.6,36.8,28.7,36.2,29.1,36z M34.6,35.1c-0.3,0-0.7-0.3-1.2-0.6
			c0.3-0.2,0.6-0.4,0.6-0.4c0.4,0.1,0.7,0.4,1,0.6C34.9,34.8,34.9,35.1,34.6,35.1z M33,33.7c-0.9,0.5-1.7,0.5-2.6,0
			c-0.3-0.2-0.6-0.3-0.8-0.3h4.1C33.5,33.4,33.3,33.5,33,33.7z M28.7,33.4c-0.5,0.2-0.9,0.6-1.2,1.3c-0.1,0.4-0.2,1.5-1,1.7
			c-1.1,0.8-2.8,2-2.4,3.1c0.2,0.4,0.3,0.9,0.7,1.4c1.1,1.4,2.9,1.6,4.3,0.5c0.5-0.4,1-0.8,1.5-1.2c0.8-0.8,1.4-0.8,2.3,0
			c0.5,0.4,1,0.8,1.5,1.2c1.5,1.1,3.4,0.8,4.4-0.6c0.8-1.1,0.7-2-0.4-3c-0.3-0.3-0.5-0.7-0.8-1.1c-1.2-0.7-1.4-1.3-1.6-1.9
			c-0.2-0.7-0.6-1.1-1.2-1.3l14.2,0l0,28.3l-16.1,0c0.1-0.1,0.2-0.2,0.2-0.3c0-0.2-0.1-0.3-0.3-0.4c-0.1-0.1-1.6,0-1.6,0
			c0,0-0.1,0-0.1,0v-0.3c0,0,0,0,0.1,0h1.2c0.3,0,0.5-0.2,0.5-0.4s-0.2-0.4-0.5-0.4h-0.9c0,0,0,0,0,0v-0.3h0.7
			c0.2,0,0.4-0.1,0.5-0.3c0.4-0.1,0.7-0.5,0.7-0.9V58c0.3,0.1,0.7,0.2,1.2,0.2c0.3,0,0.6,0,1-0.1c0,0.2,0,0.5,0.1,0.6
			c0.6,1.1,3.2,1.6,3.5,1.7c0,0,0,0,0.1,0c0,0,0.1,0,0.2,0c0.4,0,1.2-0.1,1.7-0.6c0.3-0.4,0.3-0.8,0.1-1.4c0,0,0,0,0-0.1
			c0.1,0,0.1,0.1,0.2,0.1c0.2,0.1,0.5-0.1,0.7-0.1c0.3-0.1,0.5-0.2,0.8-0.2c0.7,0,0.9-0.2,0.7-0.8c-0.2-0.5-0.3-1-0.3-1.6
			c0.1-1.3,0.1-2.6,0.3-3.9c0.2-1.3,0.1-2.5,1.3-3.7c0.2-0.1,0-0.4-0.1-0.6c-0.1-0.1-0.4-0.2-0.5-0.1c-0.4,0.2-0.8,0.4-1.3,0.1
			c0,0-0.1,0-0.2,0c-0.5,0.1-0.4,0.3-0.4,0.7c0.1,0.6,0.3,1.2,0.2,1.8c-0.1,2.1-0.3,4.2-0.5,6.3c0,0.5-0.2,1-0.9,1.2
			c-0.2,0-0.5,0.4-0.4,0.5c0,0,0,0,0,0l-1.1-1l-0.8-1c0-0.1,0-0.3-0.1-0.4c0-0.1-0.1-0.1-0.1-0.2c1.3-0.7,1.9-1.7,1.6-2.5
			c-0.1-0.3-0.3-0.5-0.7-0.7c0.7-0.6,1-1.3,0.7-1.9c-0.1-0.3-0.4-0.5-0.7-0.7c0.7-0.6,1-1.3,0.7-1.9c-0.2-0.6-1-1-2-1.1c0,0,0,0,0,0
			c0.4-0.7,0.5-1.3,0.1-1.8c-0.3-0.5-1-0.7-1.9-0.7c-0.1,0-0.2,0-0.3,0c-0.9,0.1-1.9,0.4-2.9,0.8c-0.2,0.1-0.4,0.2-0.7,0.4
			c0,0,0,0,0,0h-1.8c0,0,0,0,0,0c-0.1-0.1-0.2-0.1-0.2-0.2c0,0,0-0.1,0-0.1v-0.2c0-0.1,0.1-0.2,0.3-0.2h1.8c0.3,0,0.5-0.2,0.5-0.4
			c0-0.1-0.1-0.2-0.2-0.3c-0.1-0.1-0.2-0.2-0.4-0.2l-1.6,0c-0.1,0-0.2-0.1-0.2-0.2v-0.2c0-0.1,0.1-0.2,0.2-0.2h1.6
			c0.3,0,0.5-0.2,0.5-0.4c0-0.2-0.1-0.3-0.3-0.4c-0.1-0.1-0.2-0.2-0.4-0.2h-1.2c0,0-0.1,0-0.1,0v-0.1c0,0,0,0,0.1,0h1.3
			c0.3,0,0.5-0.2,0.5-0.4s-0.2-0.4-0.5-0.4h-0.9c0,0,0,0,0,0V41h0.7c0.3,0,0.5-0.2,0.5-0.4s-0.2-0.4-0.5-0.4h-0.8
			c-0.5,0-0.9,0.3-0.9,0.7v0.4c0,0.1,0,0.1,0,0.2c-0.3,0.2-0.4,0.4-0.4,0.7v0.1c0,0.1,0,0.3,0.1,0.4c-0.3,0.2-0.4,0.5-0.4,0.8v0.2
			c0,0.2,0.1,0.4,0.2,0.6c-0.2,0.2-0.3,0.4-0.4,0.6c-0.8-0.3-1.6-0.5-2.3-0.6c-0.1,0-0.2,0-0.3,0c-0.9,0-1.5,0.3-1.9,0.7
			c-0.3,0.5-0.3,1.1,0.1,1.8c0,0,0,0,0,0c-1,0.1-1.7,0.5-2,1.1c-0.3,0.6,0,1.3,0.7,1.9c-0.3,0.2-0.6,0.4-0.7,0.7
			c-0.3,0.6,0,1.3,0.7,1.9c-0.3,0.2-0.5,0.4-0.7,0.7c-0.3,0.8,0.3,1.7,1.6,2.5c0,0.1-0.1,0.1-0.1,0.2c-0.1,0.3-0.1,0.6,0.1,0.9
			L24.5,57l-0.9,0.9c-0.1-0.1-0.2-0.3-0.4-0.4c-0.7-0.2-0.9-0.6-0.9-1.2c-0.2-2.1-0.4-4.2-0.5-6.3c0-0.6,0.1-1.2,0.2-1.8
			c0.1-0.3,0.1-0.6-0.4-0.7c-0.1,0-0.2,0-0.2,0c-0.5,0.3-0.9,0.1-1.3-0.1c-0.1-0.1-0.5,0-0.5,0.1c-0.1,0.2-0.3,0.5-0.1,0.6
			c1.2,1.2,1.1,2.4,1.3,3.7c0.2,1.3,0.3,2.6,0.3,3.9c0,0.5-0.1,1.1-0.3,1.6c-0.2,0.6,0,0.8,0.7,0.8c0.3,0,0.5,0.1,0.8,0.2
			c0.2,0,0.5,0.2,0.7,0.1c-0.3,0.6-0.2,1.1,0.1,1.4c0.4,0.5,1.2,0.6,1.7,0.6c0.1,0,0.2,0,0.2,0c0,0,0,0,0.1,0
			c0.3-0.1,2.8-0.6,3.5-1.7c0.1-0.2,0.1-0.4,0.1-0.6c0.1,0,0.3,0,0.4,0c0.5,0,0.9-0.1,1.2-0.2l0,0.3c0,0.3,0.2,0.6,0.4,0.7
			c-0.1,0.1-0.1,0.2-0.1,0.3v0.4c0,0.1,0,0.1,0,0.2c-0.3,0.2-0.4,0.4-0.4,0.7v0.1c0,0.1,0,0.7,0.5,0.9l-15.4,0l0-28.3L28.7,33.4
			L28.7,33.4z M35.1,55c-0.5,0.1-0.9,0.3-1.3,0.6c-0.4-0.1-0.8-0.3-0.8-0.5c-0.2-0.5,0.9-1.5,2.7-2.1c0.9-0.3,1.8-0.4,2.5-0.3
			c0.6,0.1,1,0.2,1.1,0.5c0.1,0.3-0.3,1-1.3,1.5l-0.1-0.1c-0.1-0.1-0.2-0.2-0.3-0.2c0,0,0,0,0,0c-0.1,0-0.3,0.1-0.3,0.2
			c0,0-0.1,0.1-0.1,0.1c-0.1,0-0.1,0-0.2,0C36.3,54.7,35.7,54.8,35.1,55z M36.6,55.4c-0.3,0.6-0.7,1.3-0.9,2
			c-0.4,0.1-0.8,0.1-1.1,0.1c-0.6,0-1.1-0.1-1.2-0.4c-0.1-0.2,0.1-0.4,0.4-0.7c0.4-0.3,1-0.6,1.6-0.8C35.8,55.5,36.2,55.4,36.6,55.4
			z M38.4,51.8c-0.1,0-0.1,0-0.2,0c-0.2,0-0.4,0-0.6,0c-0.8,0-1.6,0.1-2.4,0.4c-0.7,0.2-1.2,0.4-1.7,0.7c-0.2-0.1-0.4-0.2-0.5-0.4
			c-0.2-0.5,0.9-1.5,2.7-2.1c0.9-0.3,1.8-0.4,2.5-0.3c0.6,0.1,1,0.2,1.1,0.5C39.4,50.9,39.1,51.4,38.4,51.8z M38.4,49.2
			c0,0-0.1,0-0.1,0c-0.2,0-0.4,0-0.6,0c-0.8,0-1.6,0.1-2.4,0.4c-0.6,0.2-1.2,0.4-1.7,0.7c-0.3-0.1-0.5-0.2-0.6-0.4
			c-0.2-0.5,0.9-1.5,2.7-2.1c0.9-0.3,1.8-0.4,2.5-0.3c0.6,0.1,1,0.2,1.1,0.5C39.4,48.3,39.1,48.8,38.4,49.2z M37,46.6
			c-0.6,0.1-1.2,0.2-1.7,0.3c-1,0.3-1.8,0.7-2.4,1.2c0.1-0.4-0.1-0.9-0.5-1.4c0.4-0.4,0.9-0.7,1.5-1c0.8-0.4,1.7-0.7,2.4-0.7
			c0.6,0,1,0.1,1.2,0.3C37.7,45.6,37.5,46.1,37,46.6z"/>
	</g>
</g>
</svg>
