<svg xmlns="http://www.w3.org/2000/svg" viewBox="0 0 64 64" fill="currentColor"><path d="M14.8 40.8v-4.3c0-.3.1-.5.1-.8l.3-12.6c.1-2.7.1-5.5.2-8.2 0-1 .5-1.8 1.5-2.2 2-.8 4.5.3 4.4 2.8-.1 4.2 0 8.4 0 12.5 0 .2-.1.4 0 .5.2.2.4.6.7.6.2 0 .5-.3.6-.6.1-.2 0-.4 0-.6V10c0-.8.2-1.5.7-2.1.9-1.1 2.4-1.4 3.7-.9 1.2.5 1.8 1.4 1.8 2.8v16.7c0 .9.2 1.2.7 1.2.5 0 .7-.3.7-1.2V4.9c0-.9.3-1.7 1.1-2.3 1.2-.9 2.5-.8 3.8-.3 1.1.7 1.2 1.7 1.2 2.8v21.5c0 .9.2 1.2.7 1.2.5 0 .7-.4.7-1.3V8.4c0-1.8 1.3-3 3.1-3 1.9 0 3.1 1.2 3.1 3v32.1c0 .4.1.7.6.8.4.1.7-.1.8-.5.3-.7.5-1.4.8-2.1 1.3-3 2.5-6.1 3.9-9.1.6-1.3 1.9-2 3.2-1.9 1.6.2 2.8 1.1 3.2 2.6v.8l-.3.9c-2.2 6.4-4.4 12.7-6.6 19.1-.9 2.5-2.3 4.6-4.3 6.2-4.9 4-10.6 5-16.7 4-6-1-9.9-4.8-11.8-10.6-1.2-3-1.7-6.5-1.9-9.9z"/></svg>