<?xml version="1.0" encoding="utf-8"?>
<!-- Generator: Adobe Illustrator 22.0.0, SVG Export Plug-In . SVG Version: 6.00 Build 0)  -->
<svg version="1.1" id="Layer_1" xmlns="http://www.w3.org/2000/svg" xmlns:xlink="http://www.w3.org/1999/xlink" x="0px" y="0px"
	 viewBox="0 0 242 467" style="enable-background:new 0 0 242 467;" xml:space="preserve">
<style type="text/css">
	.st0{fill:currentColor!important;}
</style>
<g id="layer101">
	<path class="st0" fill="currentColor" d="M28.7,451.3c-2.5-59.5-4.1-84.6-6.6-102.3c-0.5-3.6-1.5-11.2-2.1-17c-2.4-21.6-6.2-39.2-13.6-63
		c-1.9-6.2-2.8-11.5-3.1-19.5C2.9,239.3,3,238.2,5.2,234c1.5-2.8,4.3-5.8,7.2-7.8c4.3-2.8,5.6-3.2,11.6-3.2c4.2,0,8.9,0.8,12.6,2.1
		c3.2,1.1,6.6,2.2,7.4,2.5c1.3,0.4,1.5-1.1,1.5-9.3c0-8.7,0.4-10.5,2.8-15.4c5.5-11.2,17.7-20,29.7-21.2c5.3-0.5,20,2.3,22.4,4.2
		c0.9,0.8,1.9,1.1,2.2,0.9c0.3-0.3,2.5,1.2,4.8,3.4c8.1,7.3,12.6,19.2,12.6,33.4c0,2.8-0.3,5.4-0.7,5.8c-0.4,0.4-0.8,1.6-0.8,2.6
		c0,2.5-7.8,11.8-13.3,15.9c-4.7,3.5-10.8,6.1-18.7,8c-2.7,0.7-5.2,1.4-5.4,1.7c-0.4,0.4,1.7,14.7,3.6,24.4c0.3,1.4,0.7,5.3,1,8.8
		c0.4,5.9,0.2,6.9-4.2,15.9c-2.6,5.3-5.2,11-5.7,12.7c-1.3,4.3-3.6,58.2-4.4,106.9L70.7,467H50H29.3L28.7,451.3z M53,350.5
		c0.6-14.8,1.8-36.9,2.7-49s1.7-24.3,1.8-27c0.1-2.8,0.5-5.7,0.9-6.4c0.4-0.7,0.5-1.5,0.2-1.8c-0.3-0.3,0.2-2.2,1.1-4.2
		c0.8-2,2.3-6.7,3.4-10.5c2.4-9.2,3.4-10.1,8.5-8c5.1,2.2,16.7,2.3,21.5,0.2c17.7-7.7,21.8-32,7.7-45.5c-7.6-7.3-19.9-9.5-29.5-5.3
		c-14.7,6.5-20.6,22.9-13.4,37.4c1.7,3.5,3.1,6.7,3.1,7.2s-1.6,2.2-3.6,3.8c-2,1.5-5.4,5.4-7.8,8.5c-4.1,5.6-4.1,5.9-4,13.2
		c0.4,15.5,0.7,19.4,1.6,20.6c0.6,0.7,0.5,1.4-0.2,1.8c-0.8,0.5-1,7.2-0.5,23.4c0.7,29.4,2.6,68.4,3.2,69.4
		C51.3,380.9,52,374.9,53,350.5z"/>
	<path class="st0" fill="currentColor" d="M147.2,356c-15.1-5.4-28-18.9-37.7-39.3c-5.8-12.3-6.7-15.6-7-26.7c-0.3-9.4,0.6-11.7,8.9-21
		c7-7.9,7.9-10.7,4.7-13.7c-3.6-3.3-3.5-6.5,0.2-13.9c4.9-9.7,5.7-13,6-22.5c0.3-15.7-4.1-24.5-16.8-33.2c-10-6.8-15.3-7.8-33.2-6.2
		c-12.5,1.2-13.3-0.5-8.8-16.2c2.3-7.7,2.5-9.4,1.5-13.3c-1.3-5.2-6.2-13.9-12.5-22.5C41,112,39.2,108.8,36.5,98.7
		c-2.9-11.1-0.8-25.7,6-41.8c4.7-11.3,9.7-18.3,21-29.4C75,16.1,83.7,10.5,96.1,6.4c7.3-2.4,10.4-2.8,23.4-3.1
		c16.1-0.5,23.8,0.6,34.7,4.7c14.5,5.4,31.7,20.4,42.3,36.7c13.1,20,13.1,20.1,20.5,26.1c4.4,3.6,5.9,4.2,14,5.6l6.5,1.1l0.3,68.8
		c0.2,61,0,68.8-1.3,69.3c-0.9,0.4-2.5-0.4-3.8-1.7c-1.3-1.3-4.4-3.8-6.9-5.6c-6.2-4.2-14.5-14.4-19-23.5c-2.1-4.1-3.8-7.7-3.8-8.1
		c0-0.4-0.8-2.6-1.9-5c-1-2.3-2.4-5.7-3.1-7.5c-1.7-4.4-11.1-14-14.6-14.8c-1.6-0.3-4-1.3-5.3-2.1c-3.2-2.1-16.4-2-19.6,0.1
		c-9.9,6.5-2.4,37.1,15.9,64.8c7.1,10.9,17.2,21,27.9,28.2c8,5.3,29.2,16.1,33.2,16.8c1.9,0.3,2,1.1,2,21.3v21l-7.8,3.8
		c-7.4,3.7-8.2,4.4-15.8,14.5c-9.4,12.6-25,28.8-32,33.2C171.5,357.8,157.6,359.8,147.2,356z M190.6,294.5c4.6-1.9,7.9-7.1,7.9-12.5
		c0-3.9-0.7-5.4-5-10.9c-3.5-4.4-6.7-7.3-10.8-9.5c-3.3-1.7-7.3-3.9-9-4.9c-2.1-1.1-4.8-1.6-7.7-1.5c-4.3,0.3-4.4,0.4-5.2,4.1
		c-1.1,5.5,1.5,20.5,4.9,27.4c1.8,3.7,4.1,6.6,6.3,8.1c3.1,2.1,4.2,2.3,9.5,1.7C184.8,296.1,188.9,295.2,190.6,294.5z"/>
</g>
</svg>
