<svg xmlns="http://www.w3.org/2000/svg" viewBox="0 0 64 64" fill="currentColor"><path d="M2.6 38c2 .5 4 1 6 1.6 3.9 1 7.8 2.1 11.7 3.1.1 0 .2.1.2.1-1.6 1.5-3.1 3.1-4.7 4.7 1.1.9 2 1.8 3.1 2.5 4.2 3 8.8 4.3 14 4.1 10-.4 18.4-7.7 20.5-17.4.3-1.5 1.8-2.5 3.2-2.2 1.5.3 2.4 1.8 2 3.3-2.8 11-9.7 18.2-20.7 20.9-8.9 2.1-16.9 0-24-5.8-.3-.2-.6-.5-.9-.8-.3-.3-.6-.5-.9-.8-1.5 1.6-3.1 3.1-4.7 4.7-.3-1-.5-1.8-.7-2.7-1.3-5-2.7-10-4-15.1 0-.1-.1-.2-.1-.2 0 .1 0 0 0 0zm57.6-11.7c-2.3-.6-4.5-1.2-6.8-1.8-3.6-1-7.3-1.9-10.9-2.9-.1 0-.2-.1-.2-.1l4.7-4.7c-1.1-.9-2-1.8-3.1-2.5-4.2-3-8.9-4.3-14-4.1-9.9.5-18.4 7.6-20.5 17.3-.3 1.3-1.3 2.2-2.5 2.2-1.3.1-2.5-.7-2.7-1.9-.1-.8-.1-1.6.2-2.4 3.1-10.8 10.2-17.7 21.3-20 9.3-2 17.5.6 24.5 7.1l.4.4c1.5-1.6 3.1-3.1 4.7-4.7.2.7.4 1.2.5 1.8 1.4 5.3 2.8 10.6 4.3 15.9 0 .1.1.2.1.2v.2z"/></svg>