<svg xmlns="http://www.w3.org/2000/svg" viewBox="0 0 64 64" fill="currentColor"><path d="M.9 32.3v-.4c0-.3.1-.6.1-.9 0-2.2.3-4.4.9-6.6 1.8-7.1 5.7-12.9 11.5-17.3C18 3.6 23.1 1.6 28.9 1c1-.1 2.1-.2 3.1-.2h.4c.1 0 .3.1.4.1 1.5.1 3.1.2 4.6.4 6.1 1 11.4 3.6 15.9 7.9 8 7.7 11.2 17 9.5 28-1.1 7.3-4.6 13.4-10.1 18.2-7.7 6.7-16.8 9.1-26.8 7.1-7.4-1.4-13.4-5.3-18.1-11.1-3.8-4.7-6-10.1-6.6-16.2-.2-1-.2-2-.3-2.9zm47.6-19.7c-9.7-8.5-25.6-8.5-35.4 2.3-9.5 10.5-7.9 25.4-.5 33.5 12-11.9 23.9-23.9 35.9-35.8z"/></svg>