<svg xmlns="http://www.w3.org/2000/svg" viewBox="0 0 64 64" fill="currentColor"><path d="M42 46.1C29.8 55.5 14.2 51.6 6.5 42-1.7 31.7-.6 17 8.6 8c9.3-9 23.7-9.6 33.7-1.5 10 8.1 13 23.5 4 35.3.2.2.3.4.5.6l15.4 15.4c1.2 1.2 1.4 2.7.6 4-1.1 1.6-3.3 1.8-4.8.4-1.6-1.5-3.1-3.1-4.7-4.7l-11-11c0-.1-.1-.2-.3-.4zM26.4 6.9c-10.7 0-19.3 8.6-19.3 19.3 0 10.6 8.6 19.2 19.2 19.2 10.7 0 19.3-8.6 19.3-19.3 0-10.6-8.6-19.2-19.2-19.2z"/><path d="M26.7 12.8c3 3.4 5.9 6.8 8.9 10.2H17.8c2.9-3.5 5.9-6.8 8.9-10.2zm0 25.8c-3-3.4-5.9-6.8-8.9-10.2h17.8c-3 3.4-6 6.8-8.9 10.2z"/></svg>